G04 EAGLE Gerber RS-274X export*
G75*
%MOMM*%
%FSLAX34Y34*%
%LPD*%
%AMOC8*
5,1,8,0,0,1.08239X$1,22.5*%
G01*
%ADD10C,0.152400*%
%ADD11C,0.304800*%
%ADD12C,0.150000*%
%ADD13C,0.100000*%
%ADD14R,0.800000X0.800000*%
%ADD15C,0.010000*%
%ADD16C,0.228600*%
%ADD17C,0.101600*%
%ADD18C,0.127000*%
%ADD19R,0.300000X6.000000*%
%ADD20R,0.275000X0.025000*%
%ADD21R,1.075000X0.025000*%
%ADD22R,1.500000X0.025000*%
%ADD23R,1.825000X0.025000*%
%ADD24R,2.050000X0.025000*%
%ADD25R,2.300000X0.025000*%
%ADD26R,2.475000X0.025000*%
%ADD27R,2.650000X0.025000*%
%ADD28R,2.800000X0.025000*%
%ADD29R,2.925000X0.025000*%
%ADD30R,1.850000X0.025000*%
%ADD31R,0.425000X0.025000*%
%ADD32R,1.575000X0.025000*%
%ADD33R,0.125000X0.025000*%
%ADD34R,1.425000X0.025000*%
%ADD35R,1.325000X0.025000*%
%ADD36R,1.200000X0.025000*%
%ADD37R,0.975000X0.025000*%
%ADD38R,0.875000X0.025000*%
%ADD39R,0.800000X0.025000*%
%ADD40R,0.725000X0.025000*%
%ADD41R,0.650000X0.025000*%
%ADD42R,0.625000X0.025000*%
%ADD43R,0.600000X0.025000*%
%ADD44R,0.575000X0.025000*%
%ADD45R,0.550000X0.025000*%
%ADD46R,1.000000X0.025000*%
%ADD47R,0.475000X0.025000*%
%ADD48R,0.450000X0.025000*%
%ADD49R,1.100000X0.025000*%
%ADD50R,1.050000X0.025000*%
%ADD51R,1.175000X0.025000*%
%ADD52R,1.125000X0.025000*%
%ADD53R,1.250000X0.025000*%
%ADD54R,1.225000X0.025000*%
%ADD55R,1.300000X0.025000*%
%ADD56R,1.275000X0.025000*%
%ADD57R,1.375000X0.025000*%
%ADD58R,1.925000X0.025000*%
%ADD59R,1.400000X0.025000*%
%ADD60R,1.975000X0.025000*%
%ADD61R,1.350000X0.025000*%
%ADD62R,1.450000X0.025000*%
%ADD63R,2.125000X0.025000*%
%ADD64R,1.475000X0.025000*%
%ADD65R,0.400000X0.025000*%
%ADD66R,0.525000X0.025000*%
%ADD67R,0.500000X0.025000*%
%ADD68R,0.700000X0.025000*%
%ADD69R,0.925000X0.025000*%
%ADD70R,0.900000X0.025000*%
%ADD71R,0.300000X0.025000*%
%ADD72R,0.825000X0.025000*%
%ADD73R,0.775000X0.025000*%
%ADD74R,0.750000X0.025000*%
%ADD75R,0.675000X0.025000*%
%ADD76R,0.375000X0.025000*%
%ADD77R,0.350000X0.025000*%
%ADD78R,0.325000X0.025000*%
%ADD79R,0.950000X0.025000*%
%ADD80R,0.250000X0.025000*%
%ADD81R,0.025000X0.025000*%
%ADD82R,0.075000X0.025000*%
%ADD83R,0.150000X0.025000*%
%ADD84R,0.200000X0.025000*%
%ADD85R,1.150000X0.025000*%
%ADD86R,1.025000X0.025000*%
%ADD87R,0.850000X0.025000*%
%ADD88R,2.100000X0.025000*%
%ADD89R,2.000000X0.025000*%
%ADD90R,1.900000X0.025000*%
%ADD91R,1.600000X0.025000*%
%ADD92R,2.950000X0.025000*%
%ADD93R,2.275000X0.025000*%
%ADD94R,2.075000X0.025000*%
%ADD95C,0.200000*%


D10*
X123262Y-178416D02*
X134099Y-178416D01*
X128681Y-183835D02*
X128681Y-172998D01*
X133099Y172334D02*
X122262Y172334D01*
X127681Y177752D02*
X127681Y166915D01*
D11*
X-118710Y-196774D02*
X-118710Y-213726D01*
X-118710Y-196774D02*
X-114002Y-196774D01*
X-113866Y-196776D01*
X-113731Y-196782D01*
X-113595Y-196792D01*
X-113460Y-196805D01*
X-113326Y-196823D01*
X-113192Y-196844D01*
X-113058Y-196870D01*
X-112926Y-196899D01*
X-112794Y-196932D01*
X-112663Y-196968D01*
X-112534Y-197009D01*
X-112406Y-197053D01*
X-112279Y-197101D01*
X-112153Y-197152D01*
X-112029Y-197207D01*
X-111907Y-197266D01*
X-111786Y-197328D01*
X-111667Y-197394D01*
X-111550Y-197463D01*
X-111435Y-197535D01*
X-111323Y-197611D01*
X-111212Y-197689D01*
X-111104Y-197771D01*
X-110998Y-197856D01*
X-110895Y-197944D01*
X-110794Y-198035D01*
X-110696Y-198129D01*
X-110601Y-198226D01*
X-110509Y-198325D01*
X-110419Y-198427D01*
X-110332Y-198532D01*
X-110249Y-198639D01*
X-110169Y-198748D01*
X-110091Y-198860D01*
X-110017Y-198974D01*
X-109947Y-199089D01*
X-109879Y-199207D01*
X-109816Y-199327D01*
X-109755Y-199449D01*
X-109698Y-199572D01*
X-109645Y-199697D01*
X-109595Y-199823D01*
X-109549Y-199951D01*
X-109507Y-200080D01*
X-109468Y-200210D01*
X-109434Y-200341D01*
X-109403Y-200473D01*
X-109375Y-200606D01*
X-109352Y-200740D01*
X-109333Y-200874D01*
X-109317Y-201009D01*
X-109305Y-201144D01*
X-109297Y-201279D01*
X-109293Y-201415D01*
X-109293Y-201551D01*
X-109297Y-201687D01*
X-109305Y-201822D01*
X-109317Y-201957D01*
X-109333Y-202092D01*
X-109352Y-202226D01*
X-109375Y-202360D01*
X-109403Y-202493D01*
X-109434Y-202625D01*
X-109468Y-202756D01*
X-109507Y-202886D01*
X-109549Y-203015D01*
X-109595Y-203143D01*
X-109645Y-203269D01*
X-109698Y-203394D01*
X-109755Y-203517D01*
X-109816Y-203639D01*
X-109879Y-203759D01*
X-109947Y-203877D01*
X-110017Y-203992D01*
X-110091Y-204106D01*
X-110169Y-204218D01*
X-110249Y-204327D01*
X-110332Y-204434D01*
X-110419Y-204539D01*
X-110509Y-204641D01*
X-110601Y-204740D01*
X-110696Y-204837D01*
X-110794Y-204931D01*
X-110895Y-205022D01*
X-110998Y-205110D01*
X-111104Y-205195D01*
X-111212Y-205277D01*
X-111323Y-205355D01*
X-111435Y-205431D01*
X-111550Y-205503D01*
X-111667Y-205572D01*
X-111786Y-205638D01*
X-111907Y-205700D01*
X-112029Y-205759D01*
X-112153Y-205814D01*
X-112279Y-205865D01*
X-112406Y-205913D01*
X-112534Y-205957D01*
X-112663Y-205998D01*
X-112794Y-206034D01*
X-112926Y-206067D01*
X-113058Y-206096D01*
X-113192Y-206122D01*
X-113326Y-206143D01*
X-113460Y-206161D01*
X-113595Y-206174D01*
X-113731Y-206184D01*
X-113866Y-206190D01*
X-114002Y-206192D01*
X-118710Y-206192D01*
X-101857Y-202425D02*
X-101857Y-213726D01*
X-101857Y-202425D02*
X-96206Y-202425D01*
X-96206Y-204308D01*
X-90488Y-206192D02*
X-90488Y-209959D01*
X-90488Y-206192D02*
X-90486Y-206070D01*
X-90480Y-205948D01*
X-90470Y-205827D01*
X-90456Y-205705D01*
X-90439Y-205585D01*
X-90417Y-205465D01*
X-90392Y-205345D01*
X-90362Y-205227D01*
X-90329Y-205109D01*
X-90292Y-204993D01*
X-90251Y-204878D01*
X-90207Y-204765D01*
X-90159Y-204652D01*
X-90107Y-204542D01*
X-90052Y-204433D01*
X-89993Y-204326D01*
X-89931Y-204221D01*
X-89866Y-204118D01*
X-89797Y-204017D01*
X-89725Y-203919D01*
X-89650Y-203823D01*
X-89572Y-203729D01*
X-89490Y-203638D01*
X-89406Y-203550D01*
X-89319Y-203464D01*
X-89230Y-203382D01*
X-89137Y-203302D01*
X-89042Y-203225D01*
X-88945Y-203152D01*
X-88845Y-203081D01*
X-88744Y-203014D01*
X-88640Y-202950D01*
X-88534Y-202890D01*
X-88426Y-202833D01*
X-88316Y-202779D01*
X-88205Y-202730D01*
X-88092Y-202683D01*
X-87977Y-202641D01*
X-87862Y-202602D01*
X-87745Y-202567D01*
X-87627Y-202536D01*
X-87508Y-202508D01*
X-87388Y-202485D01*
X-87268Y-202465D01*
X-87147Y-202449D01*
X-87026Y-202437D01*
X-86904Y-202429D01*
X-86782Y-202425D01*
X-86660Y-202425D01*
X-86538Y-202429D01*
X-86416Y-202437D01*
X-86295Y-202449D01*
X-86174Y-202465D01*
X-86054Y-202485D01*
X-85934Y-202508D01*
X-85815Y-202536D01*
X-85697Y-202567D01*
X-85580Y-202602D01*
X-85465Y-202641D01*
X-85350Y-202683D01*
X-85237Y-202730D01*
X-85126Y-202779D01*
X-85016Y-202833D01*
X-84908Y-202890D01*
X-84802Y-202950D01*
X-84698Y-203014D01*
X-84597Y-203081D01*
X-84497Y-203152D01*
X-84400Y-203225D01*
X-84305Y-203302D01*
X-84212Y-203382D01*
X-84123Y-203464D01*
X-84036Y-203550D01*
X-83952Y-203638D01*
X-83870Y-203729D01*
X-83792Y-203823D01*
X-83717Y-203919D01*
X-83645Y-204017D01*
X-83576Y-204118D01*
X-83511Y-204221D01*
X-83449Y-204326D01*
X-83390Y-204433D01*
X-83335Y-204542D01*
X-83283Y-204652D01*
X-83235Y-204765D01*
X-83191Y-204878D01*
X-83150Y-204993D01*
X-83113Y-205109D01*
X-83080Y-205227D01*
X-83050Y-205345D01*
X-83025Y-205465D01*
X-83003Y-205585D01*
X-82986Y-205705D01*
X-82972Y-205827D01*
X-82962Y-205948D01*
X-82956Y-206070D01*
X-82954Y-206192D01*
X-82954Y-209959D01*
X-82956Y-210081D01*
X-82962Y-210203D01*
X-82972Y-210324D01*
X-82986Y-210446D01*
X-83003Y-210566D01*
X-83025Y-210686D01*
X-83050Y-210806D01*
X-83080Y-210924D01*
X-83113Y-211042D01*
X-83150Y-211158D01*
X-83191Y-211273D01*
X-83235Y-211386D01*
X-83283Y-211499D01*
X-83335Y-211609D01*
X-83390Y-211718D01*
X-83449Y-211825D01*
X-83511Y-211930D01*
X-83576Y-212033D01*
X-83645Y-212134D01*
X-83717Y-212232D01*
X-83792Y-212328D01*
X-83870Y-212422D01*
X-83952Y-212513D01*
X-84036Y-212601D01*
X-84123Y-212687D01*
X-84212Y-212769D01*
X-84305Y-212849D01*
X-84400Y-212926D01*
X-84497Y-212999D01*
X-84597Y-213070D01*
X-84698Y-213137D01*
X-84802Y-213201D01*
X-84908Y-213261D01*
X-85016Y-213318D01*
X-85126Y-213372D01*
X-85237Y-213421D01*
X-85350Y-213468D01*
X-85465Y-213510D01*
X-85580Y-213549D01*
X-85697Y-213584D01*
X-85815Y-213615D01*
X-85934Y-213643D01*
X-86054Y-213666D01*
X-86174Y-213686D01*
X-86295Y-213702D01*
X-86416Y-213714D01*
X-86538Y-213722D01*
X-86660Y-213726D01*
X-86782Y-213726D01*
X-86904Y-213722D01*
X-87026Y-213714D01*
X-87147Y-213702D01*
X-87268Y-213686D01*
X-87388Y-213666D01*
X-87508Y-213643D01*
X-87627Y-213615D01*
X-87745Y-213584D01*
X-87862Y-213549D01*
X-87977Y-213510D01*
X-88092Y-213468D01*
X-88205Y-213421D01*
X-88316Y-213372D01*
X-88426Y-213318D01*
X-88534Y-213261D01*
X-88640Y-213201D01*
X-88744Y-213137D01*
X-88845Y-213070D01*
X-88945Y-212999D01*
X-89042Y-212926D01*
X-89137Y-212849D01*
X-89230Y-212769D01*
X-89319Y-212687D01*
X-89406Y-212601D01*
X-89490Y-212513D01*
X-89572Y-212422D01*
X-89650Y-212328D01*
X-89725Y-212232D01*
X-89797Y-212134D01*
X-89866Y-212033D01*
X-89931Y-211930D01*
X-89993Y-211825D01*
X-90052Y-211718D01*
X-90107Y-211609D01*
X-90159Y-211499D01*
X-90207Y-211386D01*
X-90251Y-211273D01*
X-90292Y-211158D01*
X-90329Y-211042D01*
X-90362Y-210924D01*
X-90392Y-210806D01*
X-90417Y-210686D01*
X-90439Y-210566D01*
X-90456Y-210446D01*
X-90470Y-210324D01*
X-90480Y-210203D01*
X-90486Y-210081D01*
X-90488Y-209959D01*
X-74852Y-202425D02*
X-74852Y-219377D01*
X-74852Y-202425D02*
X-70143Y-202425D01*
X-70037Y-202427D01*
X-69932Y-202433D01*
X-69827Y-202443D01*
X-69722Y-202457D01*
X-69618Y-202474D01*
X-69514Y-202496D01*
X-69412Y-202521D01*
X-69310Y-202551D01*
X-69210Y-202584D01*
X-69111Y-202620D01*
X-69013Y-202661D01*
X-68917Y-202705D01*
X-68823Y-202752D01*
X-68731Y-202803D01*
X-68640Y-202858D01*
X-68552Y-202916D01*
X-68465Y-202977D01*
X-68382Y-203041D01*
X-68300Y-203109D01*
X-68222Y-203179D01*
X-68145Y-203252D01*
X-68072Y-203328D01*
X-68002Y-203407D01*
X-67934Y-203489D01*
X-67870Y-203572D01*
X-67809Y-203659D01*
X-67751Y-203747D01*
X-67696Y-203837D01*
X-67645Y-203930D01*
X-67598Y-204024D01*
X-67554Y-204120D01*
X-67513Y-204218D01*
X-67477Y-204317D01*
X-67444Y-204417D01*
X-67414Y-204519D01*
X-67389Y-204621D01*
X-67367Y-204725D01*
X-67350Y-204829D01*
X-67336Y-204934D01*
X-67326Y-205039D01*
X-67320Y-205144D01*
X-67318Y-205250D01*
X-67318Y-210901D01*
X-67320Y-211007D01*
X-67326Y-211112D01*
X-67336Y-211217D01*
X-67350Y-211322D01*
X-67367Y-211426D01*
X-67389Y-211530D01*
X-67414Y-211632D01*
X-67444Y-211734D01*
X-67477Y-211834D01*
X-67513Y-211933D01*
X-67554Y-212031D01*
X-67598Y-212127D01*
X-67645Y-212221D01*
X-67696Y-212314D01*
X-67751Y-212404D01*
X-67809Y-212492D01*
X-67870Y-212579D01*
X-67934Y-212662D01*
X-68002Y-212744D01*
X-68072Y-212822D01*
X-68145Y-212899D01*
X-68222Y-212972D01*
X-68300Y-213042D01*
X-68382Y-213110D01*
X-68465Y-213174D01*
X-68552Y-213235D01*
X-68640Y-213293D01*
X-68731Y-213348D01*
X-68823Y-213399D01*
X-68917Y-213446D01*
X-69013Y-213490D01*
X-69111Y-213531D01*
X-69210Y-213567D01*
X-69310Y-213601D01*
X-69412Y-213630D01*
X-69514Y-213655D01*
X-69618Y-213677D01*
X-69722Y-213694D01*
X-69827Y-213708D01*
X-69932Y-213718D01*
X-70037Y-213724D01*
X-70143Y-213726D01*
X-74852Y-213726D01*
X-57188Y-213726D02*
X-52479Y-213726D01*
X-57188Y-213726D02*
X-57294Y-213724D01*
X-57399Y-213718D01*
X-57504Y-213708D01*
X-57609Y-213694D01*
X-57713Y-213677D01*
X-57817Y-213655D01*
X-57919Y-213630D01*
X-58021Y-213600D01*
X-58121Y-213567D01*
X-58220Y-213531D01*
X-58318Y-213490D01*
X-58414Y-213446D01*
X-58508Y-213399D01*
X-58601Y-213348D01*
X-58691Y-213293D01*
X-58779Y-213235D01*
X-58866Y-213174D01*
X-58949Y-213110D01*
X-59031Y-213042D01*
X-59109Y-212972D01*
X-59186Y-212899D01*
X-59259Y-212822D01*
X-59329Y-212744D01*
X-59397Y-212662D01*
X-59461Y-212579D01*
X-59522Y-212492D01*
X-59580Y-212404D01*
X-59635Y-212314D01*
X-59686Y-212221D01*
X-59733Y-212127D01*
X-59777Y-212031D01*
X-59818Y-211933D01*
X-59854Y-211834D01*
X-59887Y-211734D01*
X-59917Y-211632D01*
X-59942Y-211530D01*
X-59964Y-211426D01*
X-59981Y-211322D01*
X-59995Y-211217D01*
X-60005Y-211112D01*
X-60011Y-211007D01*
X-60013Y-210901D01*
X-60013Y-206192D01*
X-60011Y-206070D01*
X-60005Y-205948D01*
X-59995Y-205827D01*
X-59981Y-205705D01*
X-59964Y-205585D01*
X-59942Y-205465D01*
X-59917Y-205345D01*
X-59887Y-205227D01*
X-59854Y-205109D01*
X-59817Y-204993D01*
X-59776Y-204878D01*
X-59732Y-204765D01*
X-59684Y-204652D01*
X-59632Y-204542D01*
X-59577Y-204433D01*
X-59518Y-204326D01*
X-59456Y-204221D01*
X-59391Y-204118D01*
X-59322Y-204017D01*
X-59250Y-203919D01*
X-59175Y-203823D01*
X-59097Y-203729D01*
X-59015Y-203638D01*
X-58931Y-203550D01*
X-58844Y-203464D01*
X-58755Y-203382D01*
X-58662Y-203302D01*
X-58567Y-203225D01*
X-58470Y-203152D01*
X-58370Y-203081D01*
X-58269Y-203014D01*
X-58165Y-202950D01*
X-58059Y-202890D01*
X-57951Y-202833D01*
X-57841Y-202779D01*
X-57730Y-202730D01*
X-57617Y-202683D01*
X-57502Y-202641D01*
X-57387Y-202602D01*
X-57270Y-202567D01*
X-57152Y-202536D01*
X-57033Y-202508D01*
X-56913Y-202485D01*
X-56793Y-202465D01*
X-56672Y-202449D01*
X-56551Y-202437D01*
X-56429Y-202429D01*
X-56307Y-202425D01*
X-56185Y-202425D01*
X-56063Y-202429D01*
X-55941Y-202437D01*
X-55820Y-202449D01*
X-55699Y-202465D01*
X-55579Y-202485D01*
X-55459Y-202508D01*
X-55340Y-202536D01*
X-55222Y-202567D01*
X-55105Y-202602D01*
X-54990Y-202641D01*
X-54875Y-202683D01*
X-54762Y-202730D01*
X-54651Y-202779D01*
X-54541Y-202833D01*
X-54433Y-202890D01*
X-54327Y-202950D01*
X-54223Y-203014D01*
X-54122Y-203081D01*
X-54022Y-203152D01*
X-53925Y-203225D01*
X-53830Y-203302D01*
X-53737Y-203382D01*
X-53648Y-203464D01*
X-53561Y-203550D01*
X-53477Y-203638D01*
X-53395Y-203729D01*
X-53317Y-203823D01*
X-53242Y-203919D01*
X-53170Y-204017D01*
X-53101Y-204118D01*
X-53036Y-204221D01*
X-52974Y-204326D01*
X-52915Y-204433D01*
X-52860Y-204542D01*
X-52808Y-204652D01*
X-52760Y-204765D01*
X-52716Y-204878D01*
X-52675Y-204993D01*
X-52638Y-205109D01*
X-52605Y-205227D01*
X-52575Y-205345D01*
X-52550Y-205465D01*
X-52528Y-205585D01*
X-52511Y-205705D01*
X-52497Y-205827D01*
X-52487Y-205948D01*
X-52481Y-206070D01*
X-52479Y-206192D01*
X-52479Y-208075D01*
X-60013Y-208075D01*
X-44913Y-210901D02*
X-44913Y-196774D01*
X-44912Y-210901D02*
X-44910Y-211007D01*
X-44904Y-211112D01*
X-44894Y-211217D01*
X-44880Y-211322D01*
X-44863Y-211426D01*
X-44841Y-211530D01*
X-44816Y-211632D01*
X-44786Y-211734D01*
X-44753Y-211834D01*
X-44717Y-211933D01*
X-44676Y-212031D01*
X-44632Y-212127D01*
X-44585Y-212221D01*
X-44534Y-212314D01*
X-44479Y-212404D01*
X-44421Y-212492D01*
X-44360Y-212579D01*
X-44296Y-212662D01*
X-44228Y-212744D01*
X-44158Y-212822D01*
X-44085Y-212899D01*
X-44008Y-212972D01*
X-43930Y-213042D01*
X-43848Y-213110D01*
X-43765Y-213174D01*
X-43678Y-213235D01*
X-43590Y-213293D01*
X-43500Y-213348D01*
X-43407Y-213399D01*
X-43313Y-213446D01*
X-43217Y-213490D01*
X-43119Y-213531D01*
X-43020Y-213567D01*
X-42920Y-213600D01*
X-42818Y-213630D01*
X-42716Y-213655D01*
X-42612Y-213677D01*
X-42508Y-213694D01*
X-42403Y-213708D01*
X-42298Y-213718D01*
X-42193Y-213724D01*
X-42087Y-213726D01*
X-35713Y-210901D02*
X-35713Y-196774D01*
X-35713Y-210901D02*
X-35711Y-211007D01*
X-35705Y-211112D01*
X-35695Y-211217D01*
X-35681Y-211322D01*
X-35664Y-211426D01*
X-35642Y-211530D01*
X-35617Y-211632D01*
X-35587Y-211734D01*
X-35554Y-211834D01*
X-35518Y-211933D01*
X-35477Y-212031D01*
X-35433Y-212127D01*
X-35386Y-212221D01*
X-35335Y-212314D01*
X-35280Y-212404D01*
X-35222Y-212492D01*
X-35161Y-212579D01*
X-35097Y-212662D01*
X-35029Y-212744D01*
X-34959Y-212822D01*
X-34886Y-212899D01*
X-34809Y-212972D01*
X-34731Y-213042D01*
X-34649Y-213110D01*
X-34566Y-213174D01*
X-34479Y-213235D01*
X-34391Y-213293D01*
X-34301Y-213348D01*
X-34208Y-213399D01*
X-34114Y-213446D01*
X-34018Y-213490D01*
X-33920Y-213531D01*
X-33821Y-213567D01*
X-33721Y-213600D01*
X-33619Y-213630D01*
X-33517Y-213655D01*
X-33413Y-213677D01*
X-33309Y-213694D01*
X-33204Y-213708D01*
X-33099Y-213718D01*
X-32994Y-213724D01*
X-32888Y-213726D01*
X-23838Y-213726D02*
X-19129Y-213726D01*
X-23838Y-213726D02*
X-23944Y-213724D01*
X-24049Y-213718D01*
X-24154Y-213708D01*
X-24259Y-213694D01*
X-24363Y-213677D01*
X-24467Y-213655D01*
X-24569Y-213630D01*
X-24671Y-213600D01*
X-24771Y-213567D01*
X-24870Y-213531D01*
X-24968Y-213490D01*
X-25064Y-213446D01*
X-25158Y-213399D01*
X-25250Y-213348D01*
X-25341Y-213293D01*
X-25429Y-213235D01*
X-25516Y-213174D01*
X-25599Y-213110D01*
X-25681Y-213042D01*
X-25759Y-212972D01*
X-25836Y-212899D01*
X-25909Y-212822D01*
X-25979Y-212744D01*
X-26047Y-212662D01*
X-26111Y-212579D01*
X-26172Y-212492D01*
X-26230Y-212404D01*
X-26285Y-212314D01*
X-26336Y-212221D01*
X-26383Y-212127D01*
X-26427Y-212031D01*
X-26468Y-211933D01*
X-26504Y-211834D01*
X-26537Y-211734D01*
X-26567Y-211632D01*
X-26592Y-211530D01*
X-26614Y-211426D01*
X-26631Y-211322D01*
X-26645Y-211217D01*
X-26655Y-211112D01*
X-26661Y-211007D01*
X-26663Y-210901D01*
X-26663Y-206192D01*
X-26661Y-206070D01*
X-26655Y-205948D01*
X-26645Y-205827D01*
X-26631Y-205705D01*
X-26614Y-205585D01*
X-26592Y-205465D01*
X-26567Y-205345D01*
X-26537Y-205227D01*
X-26504Y-205109D01*
X-26467Y-204993D01*
X-26426Y-204878D01*
X-26382Y-204765D01*
X-26334Y-204652D01*
X-26282Y-204542D01*
X-26227Y-204433D01*
X-26168Y-204326D01*
X-26106Y-204221D01*
X-26041Y-204118D01*
X-25972Y-204017D01*
X-25900Y-203919D01*
X-25825Y-203823D01*
X-25747Y-203729D01*
X-25665Y-203638D01*
X-25581Y-203550D01*
X-25494Y-203464D01*
X-25405Y-203382D01*
X-25312Y-203302D01*
X-25217Y-203225D01*
X-25120Y-203152D01*
X-25020Y-203081D01*
X-24919Y-203014D01*
X-24815Y-202950D01*
X-24709Y-202890D01*
X-24601Y-202833D01*
X-24491Y-202779D01*
X-24380Y-202730D01*
X-24267Y-202683D01*
X-24152Y-202641D01*
X-24037Y-202602D01*
X-23920Y-202567D01*
X-23802Y-202536D01*
X-23683Y-202508D01*
X-23563Y-202485D01*
X-23443Y-202465D01*
X-23322Y-202449D01*
X-23201Y-202437D01*
X-23079Y-202429D01*
X-22957Y-202425D01*
X-22835Y-202425D01*
X-22713Y-202429D01*
X-22591Y-202437D01*
X-22470Y-202449D01*
X-22349Y-202465D01*
X-22229Y-202485D01*
X-22109Y-202508D01*
X-21990Y-202536D01*
X-21872Y-202567D01*
X-21755Y-202602D01*
X-21640Y-202641D01*
X-21525Y-202683D01*
X-21412Y-202730D01*
X-21301Y-202779D01*
X-21191Y-202833D01*
X-21083Y-202890D01*
X-20977Y-202950D01*
X-20873Y-203014D01*
X-20772Y-203081D01*
X-20672Y-203152D01*
X-20575Y-203225D01*
X-20480Y-203302D01*
X-20387Y-203382D01*
X-20298Y-203464D01*
X-20211Y-203550D01*
X-20127Y-203638D01*
X-20045Y-203729D01*
X-19967Y-203823D01*
X-19892Y-203919D01*
X-19820Y-204017D01*
X-19751Y-204118D01*
X-19686Y-204221D01*
X-19624Y-204326D01*
X-19565Y-204433D01*
X-19510Y-204542D01*
X-19458Y-204652D01*
X-19410Y-204765D01*
X-19366Y-204878D01*
X-19325Y-204993D01*
X-19288Y-205109D01*
X-19255Y-205227D01*
X-19225Y-205345D01*
X-19200Y-205465D01*
X-19178Y-205585D01*
X-19161Y-205705D01*
X-19147Y-205827D01*
X-19137Y-205948D01*
X-19131Y-206070D01*
X-19129Y-206192D01*
X-19129Y-208075D01*
X-26663Y-208075D01*
X-4290Y-213726D02*
X-4290Y-196774D01*
X-4290Y-213726D02*
X-8999Y-213726D01*
X-9105Y-213724D01*
X-9210Y-213718D01*
X-9315Y-213708D01*
X-9420Y-213694D01*
X-9524Y-213677D01*
X-9628Y-213655D01*
X-9730Y-213630D01*
X-9832Y-213600D01*
X-9932Y-213567D01*
X-10031Y-213531D01*
X-10129Y-213490D01*
X-10225Y-213446D01*
X-10319Y-213399D01*
X-10411Y-213348D01*
X-10502Y-213293D01*
X-10590Y-213235D01*
X-10677Y-213174D01*
X-10760Y-213110D01*
X-10842Y-213042D01*
X-10920Y-212972D01*
X-10997Y-212899D01*
X-11070Y-212822D01*
X-11140Y-212744D01*
X-11208Y-212662D01*
X-11272Y-212579D01*
X-11333Y-212492D01*
X-11391Y-212404D01*
X-11446Y-212314D01*
X-11497Y-212221D01*
X-11544Y-212127D01*
X-11588Y-212031D01*
X-11629Y-211933D01*
X-11665Y-211834D01*
X-11698Y-211734D01*
X-11728Y-211632D01*
X-11753Y-211530D01*
X-11775Y-211426D01*
X-11792Y-211322D01*
X-11806Y-211217D01*
X-11816Y-211112D01*
X-11822Y-211007D01*
X-11824Y-210901D01*
X-11824Y-205250D01*
X-11822Y-205144D01*
X-11816Y-205039D01*
X-11806Y-204934D01*
X-11792Y-204829D01*
X-11775Y-204725D01*
X-11753Y-204621D01*
X-11728Y-204519D01*
X-11698Y-204417D01*
X-11665Y-204317D01*
X-11629Y-204218D01*
X-11588Y-204120D01*
X-11544Y-204024D01*
X-11497Y-203930D01*
X-11446Y-203838D01*
X-11391Y-203747D01*
X-11333Y-203659D01*
X-11272Y-203572D01*
X-11208Y-203489D01*
X-11140Y-203407D01*
X-11070Y-203329D01*
X-10997Y-203252D01*
X-10920Y-203179D01*
X-10842Y-203109D01*
X-10760Y-203041D01*
X-10677Y-202977D01*
X-10590Y-202916D01*
X-10502Y-202858D01*
X-10411Y-202803D01*
X-10319Y-202752D01*
X-10225Y-202705D01*
X-10129Y-202661D01*
X-10031Y-202620D01*
X-9932Y-202584D01*
X-9832Y-202551D01*
X-9730Y-202521D01*
X-9628Y-202496D01*
X-9524Y-202474D01*
X-9420Y-202457D01*
X-9315Y-202443D01*
X-9210Y-202433D01*
X-9105Y-202427D01*
X-8999Y-202425D01*
X-4290Y-202425D01*
X-118919Y-226774D02*
X-118919Y-243726D01*
X-114210Y-243726D01*
X-114104Y-243724D01*
X-113999Y-243718D01*
X-113894Y-243708D01*
X-113789Y-243694D01*
X-113685Y-243677D01*
X-113581Y-243655D01*
X-113479Y-243630D01*
X-113377Y-243600D01*
X-113277Y-243567D01*
X-113178Y-243531D01*
X-113080Y-243490D01*
X-112984Y-243446D01*
X-112890Y-243399D01*
X-112798Y-243348D01*
X-112707Y-243293D01*
X-112619Y-243235D01*
X-112532Y-243174D01*
X-112449Y-243110D01*
X-112367Y-243042D01*
X-112289Y-242972D01*
X-112212Y-242899D01*
X-112139Y-242823D01*
X-112069Y-242744D01*
X-112001Y-242662D01*
X-111937Y-242579D01*
X-111876Y-242492D01*
X-111818Y-242404D01*
X-111763Y-242314D01*
X-111712Y-242221D01*
X-111665Y-242127D01*
X-111621Y-242031D01*
X-111580Y-241933D01*
X-111544Y-241834D01*
X-111511Y-241734D01*
X-111481Y-241632D01*
X-111456Y-241530D01*
X-111434Y-241426D01*
X-111417Y-241322D01*
X-111403Y-241217D01*
X-111393Y-241112D01*
X-111387Y-241007D01*
X-111385Y-240901D01*
X-111385Y-235250D01*
X-111387Y-235144D01*
X-111393Y-235039D01*
X-111403Y-234934D01*
X-111417Y-234829D01*
X-111434Y-234725D01*
X-111456Y-234621D01*
X-111481Y-234519D01*
X-111511Y-234417D01*
X-111544Y-234317D01*
X-111580Y-234218D01*
X-111621Y-234120D01*
X-111665Y-234024D01*
X-111712Y-233930D01*
X-111763Y-233837D01*
X-111818Y-233747D01*
X-111876Y-233659D01*
X-111937Y-233572D01*
X-112001Y-233489D01*
X-112069Y-233407D01*
X-112139Y-233329D01*
X-112212Y-233252D01*
X-112289Y-233179D01*
X-112367Y-233109D01*
X-112449Y-233041D01*
X-112532Y-232977D01*
X-112619Y-232916D01*
X-112707Y-232858D01*
X-112798Y-232803D01*
X-112890Y-232752D01*
X-112984Y-232705D01*
X-113080Y-232661D01*
X-113178Y-232620D01*
X-113277Y-232584D01*
X-113377Y-232550D01*
X-113479Y-232521D01*
X-113581Y-232496D01*
X-113685Y-232474D01*
X-113789Y-232457D01*
X-113894Y-232443D01*
X-113999Y-232433D01*
X-114104Y-232427D01*
X-114210Y-232425D01*
X-118919Y-232425D01*
X-104655Y-249377D02*
X-102771Y-249377D01*
X-97120Y-232425D01*
X-104655Y-232425D02*
X-100887Y-243726D01*
X-77312Y-243726D02*
X-77312Y-226774D01*
X-72604Y-226774D02*
X-82021Y-226774D01*
X-63304Y-243726D02*
X-58595Y-243726D01*
X-63304Y-243726D02*
X-63410Y-243724D01*
X-63515Y-243718D01*
X-63620Y-243708D01*
X-63725Y-243694D01*
X-63829Y-243677D01*
X-63933Y-243655D01*
X-64035Y-243630D01*
X-64137Y-243600D01*
X-64237Y-243567D01*
X-64336Y-243531D01*
X-64434Y-243490D01*
X-64530Y-243446D01*
X-64624Y-243399D01*
X-64717Y-243348D01*
X-64807Y-243293D01*
X-64895Y-243235D01*
X-64982Y-243174D01*
X-65065Y-243110D01*
X-65147Y-243042D01*
X-65225Y-242972D01*
X-65302Y-242899D01*
X-65375Y-242822D01*
X-65445Y-242744D01*
X-65513Y-242662D01*
X-65577Y-242579D01*
X-65638Y-242492D01*
X-65696Y-242404D01*
X-65751Y-242314D01*
X-65802Y-242221D01*
X-65849Y-242127D01*
X-65893Y-242031D01*
X-65934Y-241933D01*
X-65970Y-241834D01*
X-66003Y-241734D01*
X-66033Y-241632D01*
X-66058Y-241530D01*
X-66080Y-241426D01*
X-66097Y-241322D01*
X-66111Y-241217D01*
X-66121Y-241112D01*
X-66127Y-241007D01*
X-66129Y-240901D01*
X-66130Y-240901D02*
X-66130Y-236192D01*
X-66129Y-236192D02*
X-66127Y-236070D01*
X-66121Y-235948D01*
X-66111Y-235827D01*
X-66097Y-235705D01*
X-66080Y-235585D01*
X-66058Y-235465D01*
X-66033Y-235345D01*
X-66003Y-235227D01*
X-65970Y-235109D01*
X-65933Y-234993D01*
X-65892Y-234878D01*
X-65848Y-234765D01*
X-65800Y-234652D01*
X-65748Y-234542D01*
X-65693Y-234433D01*
X-65634Y-234326D01*
X-65572Y-234221D01*
X-65507Y-234118D01*
X-65438Y-234017D01*
X-65366Y-233919D01*
X-65291Y-233823D01*
X-65213Y-233729D01*
X-65131Y-233638D01*
X-65047Y-233550D01*
X-64960Y-233464D01*
X-64871Y-233382D01*
X-64778Y-233302D01*
X-64683Y-233225D01*
X-64586Y-233152D01*
X-64486Y-233081D01*
X-64385Y-233014D01*
X-64281Y-232950D01*
X-64175Y-232890D01*
X-64067Y-232833D01*
X-63957Y-232779D01*
X-63846Y-232730D01*
X-63733Y-232683D01*
X-63618Y-232641D01*
X-63503Y-232602D01*
X-63386Y-232567D01*
X-63268Y-232536D01*
X-63149Y-232508D01*
X-63029Y-232485D01*
X-62909Y-232465D01*
X-62788Y-232449D01*
X-62667Y-232437D01*
X-62545Y-232429D01*
X-62423Y-232425D01*
X-62301Y-232425D01*
X-62179Y-232429D01*
X-62057Y-232437D01*
X-61936Y-232449D01*
X-61815Y-232465D01*
X-61695Y-232485D01*
X-61575Y-232508D01*
X-61456Y-232536D01*
X-61338Y-232567D01*
X-61221Y-232602D01*
X-61106Y-232641D01*
X-60991Y-232683D01*
X-60878Y-232730D01*
X-60767Y-232779D01*
X-60657Y-232833D01*
X-60549Y-232890D01*
X-60443Y-232950D01*
X-60339Y-233014D01*
X-60238Y-233081D01*
X-60138Y-233152D01*
X-60041Y-233225D01*
X-59946Y-233302D01*
X-59853Y-233382D01*
X-59764Y-233464D01*
X-59677Y-233550D01*
X-59593Y-233638D01*
X-59511Y-233729D01*
X-59433Y-233823D01*
X-59358Y-233919D01*
X-59286Y-234017D01*
X-59217Y-234118D01*
X-59152Y-234221D01*
X-59090Y-234326D01*
X-59031Y-234433D01*
X-58976Y-234542D01*
X-58924Y-234652D01*
X-58876Y-234765D01*
X-58832Y-234878D01*
X-58791Y-234993D01*
X-58754Y-235109D01*
X-58721Y-235227D01*
X-58691Y-235345D01*
X-58666Y-235465D01*
X-58644Y-235585D01*
X-58627Y-235705D01*
X-58613Y-235827D01*
X-58603Y-235948D01*
X-58597Y-236070D01*
X-58595Y-236192D01*
X-58595Y-238075D01*
X-66130Y-238075D01*
X-63304Y-228187D02*
X-60479Y-224890D01*
X-51029Y-226774D02*
X-51029Y-240901D01*
X-51027Y-241007D01*
X-51021Y-241112D01*
X-51011Y-241217D01*
X-50997Y-241322D01*
X-50980Y-241426D01*
X-50958Y-241530D01*
X-50933Y-241632D01*
X-50903Y-241734D01*
X-50870Y-241834D01*
X-50834Y-241933D01*
X-50793Y-242031D01*
X-50749Y-242127D01*
X-50702Y-242221D01*
X-50651Y-242314D01*
X-50596Y-242404D01*
X-50538Y-242492D01*
X-50477Y-242579D01*
X-50413Y-242662D01*
X-50345Y-242744D01*
X-50275Y-242822D01*
X-50202Y-242899D01*
X-50125Y-242972D01*
X-50047Y-243042D01*
X-49965Y-243110D01*
X-49882Y-243174D01*
X-49795Y-243235D01*
X-49707Y-243293D01*
X-49617Y-243348D01*
X-49524Y-243399D01*
X-49430Y-243446D01*
X-49334Y-243490D01*
X-49236Y-243531D01*
X-49137Y-243567D01*
X-49037Y-243600D01*
X-48935Y-243630D01*
X-48833Y-243655D01*
X-48729Y-243677D01*
X-48625Y-243694D01*
X-48520Y-243708D01*
X-48415Y-243718D01*
X-48310Y-243724D01*
X-48204Y-243726D01*
X-39154Y-243726D02*
X-34445Y-243726D01*
X-39154Y-243726D02*
X-39260Y-243724D01*
X-39365Y-243718D01*
X-39470Y-243708D01*
X-39575Y-243694D01*
X-39679Y-243677D01*
X-39783Y-243655D01*
X-39885Y-243630D01*
X-39987Y-243600D01*
X-40087Y-243567D01*
X-40186Y-243531D01*
X-40284Y-243490D01*
X-40380Y-243446D01*
X-40474Y-243399D01*
X-40567Y-243348D01*
X-40657Y-243293D01*
X-40745Y-243235D01*
X-40832Y-243174D01*
X-40915Y-243110D01*
X-40997Y-243042D01*
X-41075Y-242972D01*
X-41152Y-242899D01*
X-41225Y-242822D01*
X-41295Y-242744D01*
X-41363Y-242662D01*
X-41427Y-242579D01*
X-41488Y-242492D01*
X-41546Y-242404D01*
X-41601Y-242314D01*
X-41652Y-242221D01*
X-41699Y-242127D01*
X-41743Y-242031D01*
X-41784Y-241933D01*
X-41820Y-241834D01*
X-41853Y-241734D01*
X-41883Y-241632D01*
X-41908Y-241530D01*
X-41930Y-241426D01*
X-41947Y-241322D01*
X-41961Y-241217D01*
X-41971Y-241112D01*
X-41977Y-241007D01*
X-41979Y-240901D01*
X-41980Y-240901D02*
X-41980Y-236192D01*
X-41978Y-236070D01*
X-41972Y-235948D01*
X-41962Y-235827D01*
X-41948Y-235705D01*
X-41931Y-235585D01*
X-41909Y-235465D01*
X-41884Y-235345D01*
X-41854Y-235227D01*
X-41821Y-235109D01*
X-41784Y-234993D01*
X-41743Y-234878D01*
X-41699Y-234765D01*
X-41651Y-234652D01*
X-41599Y-234542D01*
X-41544Y-234433D01*
X-41485Y-234326D01*
X-41423Y-234221D01*
X-41358Y-234118D01*
X-41289Y-234017D01*
X-41217Y-233919D01*
X-41142Y-233823D01*
X-41064Y-233729D01*
X-40982Y-233638D01*
X-40898Y-233550D01*
X-40811Y-233464D01*
X-40722Y-233382D01*
X-40629Y-233302D01*
X-40534Y-233225D01*
X-40437Y-233152D01*
X-40337Y-233081D01*
X-40236Y-233014D01*
X-40132Y-232950D01*
X-40026Y-232890D01*
X-39918Y-232833D01*
X-39808Y-232779D01*
X-39697Y-232730D01*
X-39584Y-232683D01*
X-39469Y-232641D01*
X-39354Y-232602D01*
X-39237Y-232567D01*
X-39119Y-232536D01*
X-39000Y-232508D01*
X-38880Y-232485D01*
X-38760Y-232465D01*
X-38639Y-232449D01*
X-38518Y-232437D01*
X-38396Y-232429D01*
X-38274Y-232425D01*
X-38152Y-232425D01*
X-38030Y-232429D01*
X-37908Y-232437D01*
X-37787Y-232449D01*
X-37666Y-232465D01*
X-37546Y-232485D01*
X-37426Y-232508D01*
X-37307Y-232536D01*
X-37189Y-232567D01*
X-37072Y-232602D01*
X-36957Y-232641D01*
X-36842Y-232683D01*
X-36729Y-232730D01*
X-36618Y-232779D01*
X-36508Y-232833D01*
X-36400Y-232890D01*
X-36294Y-232950D01*
X-36190Y-233014D01*
X-36089Y-233081D01*
X-35989Y-233152D01*
X-35892Y-233225D01*
X-35797Y-233302D01*
X-35704Y-233382D01*
X-35615Y-233464D01*
X-35528Y-233550D01*
X-35444Y-233638D01*
X-35362Y-233729D01*
X-35284Y-233823D01*
X-35209Y-233919D01*
X-35137Y-234017D01*
X-35068Y-234118D01*
X-35003Y-234221D01*
X-34941Y-234326D01*
X-34882Y-234433D01*
X-34827Y-234542D01*
X-34775Y-234652D01*
X-34727Y-234765D01*
X-34683Y-234878D01*
X-34642Y-234993D01*
X-34605Y-235109D01*
X-34572Y-235227D01*
X-34542Y-235345D01*
X-34517Y-235465D01*
X-34495Y-235585D01*
X-34478Y-235705D01*
X-34464Y-235827D01*
X-34454Y-235948D01*
X-34448Y-236070D01*
X-34446Y-236192D01*
X-34445Y-236192D02*
X-34445Y-238075D01*
X-41980Y-238075D01*
X-24315Y-243726D02*
X-19606Y-243726D01*
X-24315Y-243726D02*
X-24421Y-243724D01*
X-24526Y-243718D01*
X-24631Y-243708D01*
X-24736Y-243694D01*
X-24840Y-243677D01*
X-24944Y-243655D01*
X-25046Y-243630D01*
X-25148Y-243600D01*
X-25248Y-243567D01*
X-25347Y-243531D01*
X-25445Y-243490D01*
X-25541Y-243446D01*
X-25635Y-243399D01*
X-25727Y-243348D01*
X-25818Y-243293D01*
X-25906Y-243235D01*
X-25993Y-243174D01*
X-26076Y-243110D01*
X-26158Y-243042D01*
X-26236Y-242972D01*
X-26313Y-242899D01*
X-26386Y-242822D01*
X-26456Y-242744D01*
X-26524Y-242662D01*
X-26588Y-242579D01*
X-26649Y-242492D01*
X-26707Y-242404D01*
X-26762Y-242314D01*
X-26813Y-242221D01*
X-26860Y-242127D01*
X-26904Y-242031D01*
X-26945Y-241933D01*
X-26981Y-241834D01*
X-27014Y-241734D01*
X-27044Y-241632D01*
X-27069Y-241530D01*
X-27091Y-241426D01*
X-27108Y-241322D01*
X-27122Y-241217D01*
X-27132Y-241112D01*
X-27138Y-241007D01*
X-27140Y-240901D01*
X-27140Y-235250D01*
X-27138Y-235144D01*
X-27132Y-235039D01*
X-27122Y-234934D01*
X-27108Y-234829D01*
X-27091Y-234725D01*
X-27069Y-234621D01*
X-27044Y-234519D01*
X-27014Y-234417D01*
X-26981Y-234317D01*
X-26945Y-234218D01*
X-26904Y-234120D01*
X-26860Y-234024D01*
X-26813Y-233930D01*
X-26762Y-233838D01*
X-26707Y-233747D01*
X-26649Y-233659D01*
X-26588Y-233572D01*
X-26524Y-233489D01*
X-26456Y-233407D01*
X-26386Y-233329D01*
X-26313Y-233252D01*
X-26236Y-233179D01*
X-26158Y-233109D01*
X-26076Y-233041D01*
X-25993Y-232977D01*
X-25906Y-232916D01*
X-25818Y-232858D01*
X-25728Y-232803D01*
X-25635Y-232752D01*
X-25541Y-232705D01*
X-25445Y-232661D01*
X-25347Y-232620D01*
X-25248Y-232584D01*
X-25148Y-232551D01*
X-25046Y-232521D01*
X-24944Y-232496D01*
X-24840Y-232474D01*
X-24736Y-232457D01*
X-24631Y-232443D01*
X-24526Y-232433D01*
X-24421Y-232427D01*
X-24315Y-232425D01*
X-19606Y-232425D01*
X-19606Y-246551D01*
X-19607Y-246551D02*
X-19609Y-246657D01*
X-19615Y-246762D01*
X-19625Y-246867D01*
X-19639Y-246972D01*
X-19656Y-247076D01*
X-19678Y-247180D01*
X-19703Y-247282D01*
X-19733Y-247384D01*
X-19766Y-247484D01*
X-19802Y-247583D01*
X-19843Y-247681D01*
X-19887Y-247777D01*
X-19934Y-247871D01*
X-19985Y-247964D01*
X-20040Y-248054D01*
X-20098Y-248142D01*
X-20159Y-248229D01*
X-20223Y-248312D01*
X-20291Y-248394D01*
X-20361Y-248472D01*
X-20434Y-248549D01*
X-20511Y-248622D01*
X-20589Y-248692D01*
X-20671Y-248760D01*
X-20754Y-248824D01*
X-20841Y-248885D01*
X-20929Y-248943D01*
X-21020Y-248998D01*
X-21112Y-249049D01*
X-21206Y-249096D01*
X-21302Y-249140D01*
X-21400Y-249181D01*
X-21499Y-249217D01*
X-21599Y-249251D01*
X-21701Y-249280D01*
X-21803Y-249305D01*
X-21907Y-249327D01*
X-22011Y-249344D01*
X-22116Y-249358D01*
X-22221Y-249368D01*
X-22326Y-249374D01*
X-22432Y-249376D01*
X-22432Y-249377D02*
X-26199Y-249377D01*
X-8319Y-237134D02*
X-4081Y-237134D01*
X-8319Y-237134D02*
X-8433Y-237136D01*
X-8546Y-237142D01*
X-8660Y-237152D01*
X-8773Y-237165D01*
X-8885Y-237183D01*
X-8997Y-237204D01*
X-9108Y-237230D01*
X-9218Y-237259D01*
X-9327Y-237292D01*
X-9434Y-237328D01*
X-9541Y-237369D01*
X-9646Y-237413D01*
X-9749Y-237460D01*
X-9851Y-237512D01*
X-9951Y-237566D01*
X-10048Y-237624D01*
X-10144Y-237686D01*
X-10238Y-237750D01*
X-10329Y-237818D01*
X-10418Y-237889D01*
X-10505Y-237963D01*
X-10589Y-238040D01*
X-10670Y-238120D01*
X-10748Y-238202D01*
X-10823Y-238287D01*
X-10896Y-238375D01*
X-10965Y-238465D01*
X-11032Y-238558D01*
X-11095Y-238652D01*
X-11154Y-238749D01*
X-11211Y-238848D01*
X-11263Y-238949D01*
X-11313Y-239051D01*
X-11359Y-239156D01*
X-11401Y-239261D01*
X-11439Y-239368D01*
X-11474Y-239477D01*
X-11505Y-239586D01*
X-11532Y-239697D01*
X-11556Y-239808D01*
X-11575Y-239920D01*
X-11591Y-240033D01*
X-11603Y-240146D01*
X-11611Y-240259D01*
X-11615Y-240373D01*
X-11615Y-240487D01*
X-11611Y-240601D01*
X-11603Y-240714D01*
X-11591Y-240827D01*
X-11575Y-240940D01*
X-11556Y-241052D01*
X-11532Y-241163D01*
X-11505Y-241274D01*
X-11474Y-241383D01*
X-11439Y-241492D01*
X-11401Y-241599D01*
X-11359Y-241704D01*
X-11313Y-241809D01*
X-11263Y-241911D01*
X-11211Y-242012D01*
X-11154Y-242111D01*
X-11095Y-242208D01*
X-11032Y-242302D01*
X-10965Y-242395D01*
X-10896Y-242485D01*
X-10823Y-242573D01*
X-10748Y-242658D01*
X-10670Y-242740D01*
X-10589Y-242820D01*
X-10505Y-242897D01*
X-10418Y-242971D01*
X-10329Y-243042D01*
X-10238Y-243110D01*
X-10144Y-243174D01*
X-10048Y-243236D01*
X-9951Y-243294D01*
X-9851Y-243348D01*
X-9749Y-243400D01*
X-9646Y-243447D01*
X-9541Y-243491D01*
X-9434Y-243532D01*
X-9327Y-243568D01*
X-9218Y-243601D01*
X-9108Y-243630D01*
X-8997Y-243656D01*
X-8885Y-243677D01*
X-8773Y-243695D01*
X-8660Y-243708D01*
X-8546Y-243718D01*
X-8433Y-243724D01*
X-8319Y-243726D01*
X-4081Y-243726D01*
X-4081Y-235250D01*
X-4082Y-235250D02*
X-4084Y-235144D01*
X-4090Y-235039D01*
X-4100Y-234934D01*
X-4114Y-234829D01*
X-4131Y-234725D01*
X-4153Y-234621D01*
X-4178Y-234519D01*
X-4208Y-234417D01*
X-4241Y-234317D01*
X-4277Y-234218D01*
X-4318Y-234120D01*
X-4362Y-234024D01*
X-4409Y-233930D01*
X-4460Y-233837D01*
X-4515Y-233747D01*
X-4573Y-233659D01*
X-4634Y-233572D01*
X-4698Y-233489D01*
X-4766Y-233407D01*
X-4836Y-233329D01*
X-4909Y-233252D01*
X-4986Y-233179D01*
X-5064Y-233109D01*
X-5146Y-233041D01*
X-5229Y-232977D01*
X-5316Y-232916D01*
X-5404Y-232858D01*
X-5495Y-232803D01*
X-5587Y-232752D01*
X-5681Y-232705D01*
X-5777Y-232661D01*
X-5875Y-232620D01*
X-5974Y-232584D01*
X-6074Y-232550D01*
X-6176Y-232521D01*
X-6278Y-232496D01*
X-6382Y-232474D01*
X-6486Y-232457D01*
X-6591Y-232443D01*
X-6696Y-232433D01*
X-6801Y-232427D01*
X-6907Y-232425D01*
X-10674Y-232425D01*
D10*
X70000Y122000D02*
X139500Y122000D01*
X139500Y72000D01*
X70000Y72000D01*
X70000Y112000D01*
X70000Y122000D01*
D12*
X70000Y112000D02*
X69000Y112000D01*
X69000Y123000D01*
X81000Y123000D01*
X81000Y124000D01*
X68000Y124000D01*
X68000Y112000D01*
D10*
X137000Y187500D02*
X206500Y187500D01*
X206500Y137500D01*
X137000Y137500D01*
X137000Y177500D01*
X137000Y187500D01*
D12*
X137000Y177500D02*
X136000Y177500D01*
X136000Y188500D01*
X148000Y188500D01*
X148000Y189500D01*
X135000Y189500D01*
X135000Y177500D01*
D13*
X64000Y110500D02*
X64000Y24500D01*
X26000Y24500D01*
X26000Y110500D01*
X64000Y110500D01*
D12*
X-2250Y176000D02*
X-9250Y176000D01*
X11750Y176000D02*
X18750Y176000D01*
X18750Y167000D01*
X7250Y166000D02*
X2250Y166000D01*
X-9250Y167000D02*
X-9250Y176000D01*
D14*
X4750Y182000D03*
X-4750Y160000D03*
X14250Y160000D03*
D13*
X-24500Y155750D02*
X-42500Y155750D01*
X-42500Y164750D01*
X-24500Y164750D01*
X-24500Y155750D01*
D10*
X143000Y123500D02*
X212500Y123500D01*
X212500Y73500D01*
X143000Y73500D01*
X143000Y113500D01*
X143000Y123500D01*
D12*
X143000Y113500D02*
X142000Y113500D01*
X142000Y124500D01*
X154000Y124500D01*
X154000Y125500D01*
X141000Y125500D01*
X141000Y113500D01*
D10*
X101500Y187500D02*
X32000Y187500D01*
X101500Y187500D02*
X101500Y137500D01*
X32000Y137500D01*
X32000Y177500D01*
X32000Y187500D01*
D12*
X32000Y177500D02*
X31000Y177500D01*
X31000Y188500D01*
X43000Y188500D01*
X43000Y189500D01*
X30000Y189500D01*
X30000Y177500D01*
D10*
X32000Y-137500D02*
X101500Y-137500D01*
X101500Y-187500D01*
X32000Y-187500D01*
X32000Y-147500D01*
X32000Y-137500D01*
D12*
X32000Y-147500D02*
X31000Y-147500D01*
X31000Y-136500D01*
X43000Y-136500D01*
X43000Y-135500D01*
X30000Y-135500D01*
X30000Y-147500D01*
D10*
X137000Y-137500D02*
X206500Y-137500D01*
X206500Y-187500D01*
X137000Y-187500D01*
X137000Y-147500D01*
X137000Y-137500D01*
D12*
X137000Y-147500D02*
X136000Y-147500D01*
X136000Y-136500D01*
X148000Y-136500D01*
X148000Y-135500D01*
X135000Y-135500D01*
X135000Y-147500D01*
D13*
X26000Y-110500D02*
X26000Y-24500D01*
X64000Y-24500D01*
X64000Y-110500D01*
X26000Y-110500D01*
X-13000Y-161000D02*
X-13000Y-179000D01*
X-22000Y-179000D01*
X-22000Y-161000D01*
X-13000Y-161000D01*
X9000Y-161000D02*
X9000Y-179000D01*
X0Y-179000D01*
X0Y-161000D01*
X9000Y-161000D01*
D10*
X143000Y-73500D02*
X212500Y-73500D01*
X212500Y-123500D01*
X143000Y-123500D01*
X143000Y-83500D01*
X143000Y-73500D01*
D12*
X143000Y-83500D02*
X142000Y-83500D01*
X142000Y-72500D01*
X154000Y-72500D01*
X154000Y-71500D01*
X141000Y-71500D01*
X141000Y-83500D01*
D13*
X-24000Y-161000D02*
X-24000Y-179000D01*
X-33000Y-179000D01*
X-33000Y-161000D01*
X-24000Y-161000D01*
D10*
X70000Y-72000D02*
X139500Y-72000D01*
X139500Y-122000D01*
X70000Y-122000D01*
X70000Y-82000D01*
X70000Y-72000D01*
D12*
X70000Y-82000D02*
X69000Y-82000D01*
X69000Y-71000D01*
X81000Y-71000D01*
X81000Y-70000D01*
X68000Y-70000D01*
X68000Y-82000D01*
D13*
X-2000Y-161000D02*
X-2000Y-179000D01*
X-11000Y-179000D01*
X-11000Y-161000D01*
X-2000Y-161000D01*
D10*
X70000Y-16500D02*
X139500Y-16500D01*
X139500Y-66500D01*
X70000Y-66500D01*
X70000Y-26500D01*
X70000Y-16500D01*
D12*
X70000Y-26500D02*
X69000Y-26500D01*
X69000Y-15500D01*
X81000Y-15500D01*
X81000Y-14500D01*
X68000Y-14500D01*
X68000Y-26500D01*
D10*
X143000Y-19500D02*
X212500Y-19500D01*
X212500Y-69500D01*
X143000Y-69500D01*
X143000Y-29500D01*
X143000Y-19500D01*
D12*
X143000Y-29500D02*
X142000Y-29500D01*
X142000Y-18500D01*
X154000Y-18500D01*
X154000Y-17500D01*
X141000Y-17500D01*
X141000Y-29500D01*
D10*
X143000Y69500D02*
X212500Y69500D01*
X212500Y19500D01*
X143000Y19500D01*
X143000Y59500D01*
X143000Y69500D01*
D12*
X143000Y59500D02*
X142000Y59500D01*
X142000Y70500D01*
X154000Y70500D01*
X154000Y71500D01*
X141000Y71500D01*
X141000Y59500D01*
D10*
X139500Y66500D02*
X70000Y66500D01*
X139500Y66500D02*
X139500Y16500D01*
X70000Y16500D01*
X70000Y56500D01*
X70000Y66500D01*
D12*
X70000Y56500D02*
X69000Y56500D01*
X69000Y67500D01*
X81000Y67500D01*
X81000Y68500D01*
X68000Y68500D01*
X68000Y56500D01*
D13*
X161620Y-192126D02*
X124380Y-213626D01*
X161620Y-192126D02*
X175620Y-216374D01*
X138380Y-237874D01*
X124380Y-213626D01*
X215500Y16000D02*
X258500Y16000D01*
X215500Y16000D02*
X215500Y44000D01*
X258500Y44000D01*
X258500Y16000D01*
X258500Y-104000D02*
X215500Y-104000D01*
X215500Y-76000D01*
X258500Y-76000D01*
X258500Y-104000D01*
X258500Y-44000D02*
X215500Y-44000D01*
X215500Y-16000D01*
X258500Y-16000D01*
X258500Y-44000D01*
X258500Y-14000D02*
X215500Y-14000D01*
X215500Y14000D01*
X258500Y14000D01*
X258500Y-14000D01*
X258500Y-74000D02*
X215500Y-74000D01*
X215500Y-46000D01*
X258500Y-46000D01*
X258500Y-74000D01*
X258500Y46000D02*
X215500Y46000D01*
X215500Y74000D01*
X258500Y74000D01*
X258500Y46000D01*
X175620Y216374D02*
X138380Y237874D01*
X175620Y216374D02*
X161620Y192126D01*
X124380Y213626D01*
X138380Y237874D01*
X215500Y76000D02*
X258500Y76000D01*
X215500Y76000D02*
X215500Y104000D01*
X258500Y104000D01*
X258500Y76000D01*
D15*
X-7500Y-149500D02*
X-226500Y-149500D01*
X-226862Y-149496D01*
X-227225Y-149482D01*
X-227587Y-149461D01*
X-227948Y-149430D01*
X-228308Y-149391D01*
X-228667Y-149343D01*
X-229025Y-149286D01*
X-229382Y-149221D01*
X-229737Y-149147D01*
X-230090Y-149064D01*
X-230441Y-148973D01*
X-230789Y-148874D01*
X-231135Y-148766D01*
X-231479Y-148650D01*
X-231819Y-148525D01*
X-232156Y-148393D01*
X-232490Y-148252D01*
X-232821Y-148103D01*
X-233148Y-147946D01*
X-233471Y-147782D01*
X-233790Y-147610D01*
X-234104Y-147430D01*
X-234415Y-147242D01*
X-234720Y-147047D01*
X-235021Y-146845D01*
X-235317Y-146635D01*
X-235607Y-146419D01*
X-235893Y-146195D01*
X-236173Y-145965D01*
X-236447Y-145728D01*
X-236715Y-145484D01*
X-236978Y-145234D01*
X-237234Y-144978D01*
X-237484Y-144715D01*
X-237728Y-144447D01*
X-237965Y-144173D01*
X-238195Y-143893D01*
X-238419Y-143607D01*
X-238635Y-143317D01*
X-238845Y-143021D01*
X-239047Y-142720D01*
X-239242Y-142415D01*
X-239430Y-142104D01*
X-239610Y-141790D01*
X-239782Y-141471D01*
X-239946Y-141148D01*
X-240103Y-140821D01*
X-240252Y-140490D01*
X-240393Y-140156D01*
X-240525Y-139819D01*
X-240650Y-139479D01*
X-240766Y-139135D01*
X-240874Y-138789D01*
X-240973Y-138441D01*
X-241064Y-138090D01*
X-241147Y-137737D01*
X-241221Y-137382D01*
X-241286Y-137025D01*
X-241343Y-136667D01*
X-241391Y-136308D01*
X-241430Y-135948D01*
X-241461Y-135587D01*
X-241482Y-135225D01*
X-241496Y-134862D01*
X-241500Y-134500D01*
X-241500Y134500D01*
X-241496Y134862D01*
X-241482Y135225D01*
X-241461Y135587D01*
X-241430Y135948D01*
X-241391Y136308D01*
X-241343Y136667D01*
X-241286Y137025D01*
X-241221Y137382D01*
X-241147Y137737D01*
X-241064Y138090D01*
X-240973Y138441D01*
X-240874Y138789D01*
X-240766Y139135D01*
X-240650Y139479D01*
X-240525Y139819D01*
X-240393Y140156D01*
X-240252Y140490D01*
X-240103Y140821D01*
X-239946Y141148D01*
X-239782Y141471D01*
X-239610Y141790D01*
X-239430Y142104D01*
X-239242Y142415D01*
X-239047Y142720D01*
X-238845Y143021D01*
X-238635Y143317D01*
X-238419Y143607D01*
X-238195Y143893D01*
X-237965Y144173D01*
X-237728Y144447D01*
X-237484Y144715D01*
X-237234Y144978D01*
X-236978Y145234D01*
X-236715Y145484D01*
X-236447Y145728D01*
X-236173Y145965D01*
X-235893Y146195D01*
X-235607Y146419D01*
X-235317Y146635D01*
X-235021Y146845D01*
X-234720Y147047D01*
X-234415Y147242D01*
X-234104Y147430D01*
X-233790Y147610D01*
X-233471Y147782D01*
X-233148Y147946D01*
X-232821Y148103D01*
X-232490Y148252D01*
X-232156Y148393D01*
X-231819Y148525D01*
X-231479Y148650D01*
X-231135Y148766D01*
X-230789Y148874D01*
X-230441Y148973D01*
X-230090Y149064D01*
X-229737Y149147D01*
X-229382Y149221D01*
X-229025Y149286D01*
X-228667Y149343D01*
X-228308Y149391D01*
X-227948Y149430D01*
X-227587Y149461D01*
X-227225Y149482D01*
X-226862Y149496D01*
X-226500Y149500D01*
X-7500Y149500D01*
X-7138Y149496D01*
X-6775Y149482D01*
X-6413Y149461D01*
X-6052Y149430D01*
X-5692Y149391D01*
X-5333Y149343D01*
X-4975Y149286D01*
X-4618Y149221D01*
X-4263Y149147D01*
X-3910Y149064D01*
X-3559Y148973D01*
X-3211Y148874D01*
X-2865Y148766D01*
X-2521Y148650D01*
X-2181Y148525D01*
X-1844Y148393D01*
X-1510Y148252D01*
X-1179Y148103D01*
X-852Y147946D01*
X-529Y147782D01*
X-210Y147610D01*
X104Y147430D01*
X415Y147242D01*
X720Y147047D01*
X1021Y146845D01*
X1317Y146635D01*
X1607Y146419D01*
X1893Y146195D01*
X2173Y145965D01*
X2447Y145728D01*
X2715Y145484D01*
X2978Y145234D01*
X3234Y144978D01*
X3484Y144715D01*
X3728Y144447D01*
X3965Y144173D01*
X4195Y143893D01*
X4419Y143607D01*
X4635Y143317D01*
X4845Y143021D01*
X5047Y142720D01*
X5242Y142415D01*
X5430Y142104D01*
X5610Y141790D01*
X5782Y141471D01*
X5946Y141148D01*
X6103Y140821D01*
X6252Y140490D01*
X6393Y140156D01*
X6525Y139819D01*
X6650Y139479D01*
X6766Y139135D01*
X6874Y138789D01*
X6973Y138441D01*
X7064Y138090D01*
X7147Y137737D01*
X7221Y137382D01*
X7286Y137025D01*
X7343Y136667D01*
X7391Y136308D01*
X7430Y135948D01*
X7461Y135587D01*
X7482Y135225D01*
X7496Y134862D01*
X7500Y134500D01*
X7500Y-134500D01*
X7496Y-134862D01*
X7482Y-135225D01*
X7461Y-135587D01*
X7430Y-135948D01*
X7391Y-136308D01*
X7343Y-136667D01*
X7286Y-137025D01*
X7221Y-137382D01*
X7147Y-137737D01*
X7064Y-138090D01*
X6973Y-138441D01*
X6874Y-138789D01*
X6766Y-139135D01*
X6650Y-139479D01*
X6525Y-139819D01*
X6393Y-140156D01*
X6252Y-140490D01*
X6103Y-140821D01*
X5946Y-141148D01*
X5782Y-141471D01*
X5610Y-141790D01*
X5430Y-142104D01*
X5242Y-142415D01*
X5047Y-142720D01*
X4845Y-143021D01*
X4635Y-143317D01*
X4419Y-143607D01*
X4195Y-143893D01*
X3965Y-144173D01*
X3728Y-144447D01*
X3484Y-144715D01*
X3234Y-144978D01*
X2978Y-145234D01*
X2715Y-145484D01*
X2447Y-145728D01*
X2173Y-145965D01*
X1893Y-146195D01*
X1607Y-146419D01*
X1317Y-146635D01*
X1021Y-146845D01*
X720Y-147047D01*
X415Y-147242D01*
X104Y-147430D01*
X-210Y-147610D01*
X-529Y-147782D01*
X-852Y-147946D01*
X-1179Y-148103D01*
X-1510Y-148252D01*
X-1844Y-148393D01*
X-2181Y-148525D01*
X-2521Y-148650D01*
X-2865Y-148766D01*
X-3211Y-148874D01*
X-3559Y-148973D01*
X-3910Y-149064D01*
X-4263Y-149147D01*
X-4618Y-149221D01*
X-4975Y-149286D01*
X-5333Y-149343D01*
X-5692Y-149391D01*
X-6052Y-149430D01*
X-6413Y-149461D01*
X-6775Y-149482D01*
X-7138Y-149496D01*
X-7500Y-149500D01*
D12*
X-22000Y-150000D02*
X-32000Y-150000D01*
X-37000Y-145000D01*
X-37000Y-135000D02*
X-32000Y-130000D01*
X-22000Y-130000D01*
X-17000Y-135000D01*
X-17000Y-145000D01*
X-22000Y-150000D01*
X-42000Y-150000D02*
X-52000Y-150000D01*
X-57000Y-145000D01*
X-57000Y-135000D02*
X-52000Y-130000D01*
X-42000Y-130000D01*
X-37000Y-135000D01*
X-37000Y-145000D02*
X-42000Y-150000D01*
X-62000Y-150000D02*
X-72000Y-150000D01*
X-77000Y-145000D01*
X-77000Y-135000D02*
X-72000Y-130000D01*
X-62000Y-130000D01*
X-57000Y-135000D01*
X-57000Y-145000D02*
X-62000Y-150000D01*
X-77000Y-145000D02*
X-77000Y-135000D01*
X-12000Y-135000D02*
X-12000Y-125000D01*
X-7000Y-120000D01*
X-12000Y-115000D01*
X-12000Y-105000D01*
X-7000Y-100000D01*
X-12000Y-95000D01*
X-12000Y-85000D01*
X-7000Y-80000D01*
X-12000Y-75000D01*
X-12000Y-65000D01*
X-7000Y-60000D01*
X-12000Y-55000D01*
X-12000Y-45000D01*
X-7000Y-40000D01*
X-12000Y-35000D01*
X-12000Y-25000D01*
X-7000Y-20000D01*
X-12000Y-15000D01*
X-12000Y-5000D01*
X-7000Y0D01*
X8000Y-5000D02*
X8000Y-15000D01*
X3000Y-20000D01*
X8000Y-25000D01*
X8000Y-35000D01*
X3000Y-40000D01*
X8000Y-45000D01*
X8000Y-55000D01*
X3000Y-60000D01*
X8000Y-65000D01*
X8000Y-75000D01*
X3000Y-80000D01*
X8000Y-85000D01*
X8000Y-95000D01*
X3000Y-100000D01*
X8000Y-105000D01*
X8000Y-115000D01*
X3000Y-120000D01*
X8000Y-125000D01*
X8000Y-135000D01*
X3000Y-140000D01*
X-7000Y-140000D01*
X-12000Y-135000D01*
X8000Y-5000D02*
X3000Y0D01*
X-12000Y5000D02*
X-12000Y15000D01*
X-7000Y20000D01*
X-12000Y25000D01*
X-12000Y35000D01*
X-7000Y40000D01*
X-12000Y45000D01*
X-12000Y55000D01*
X-7000Y60000D01*
X-12000Y65000D01*
X-12000Y75000D01*
X-7000Y80000D01*
X-12000Y85000D01*
X-12000Y95000D01*
X-7000Y100000D01*
X-12000Y105000D01*
X-12000Y115000D01*
X-7000Y120000D01*
X-12000Y125000D01*
X-12000Y135000D01*
X-7000Y140000D01*
X3000Y140000D01*
X8000Y135000D02*
X8000Y125000D01*
X3000Y120000D01*
X8000Y115000D01*
X8000Y105000D01*
X3000Y100000D01*
X8000Y95000D01*
X8000Y85000D01*
X3000Y80000D01*
X8000Y75000D01*
X8000Y65000D01*
X3000Y60000D01*
X8000Y55000D01*
X8000Y45000D01*
X3000Y40000D01*
X8000Y35000D01*
X8000Y25000D01*
X3000Y20000D01*
X8000Y15000D01*
X8000Y5000D01*
X3000Y0D01*
X-7000Y0D02*
X-12000Y5000D01*
X8000Y135000D02*
X3000Y140000D01*
X-22000Y130000D02*
X-32000Y130000D01*
X-37000Y135000D01*
X-37000Y145000D02*
X-32000Y150000D01*
X-22000Y150000D01*
X-17000Y145000D01*
X-17000Y135000D01*
X-22000Y130000D01*
X-42000Y130000D02*
X-52000Y130000D01*
X-57000Y135000D01*
X-57000Y145000D02*
X-52000Y150000D01*
X-42000Y150000D01*
X-37000Y145000D01*
X-37000Y135000D02*
X-42000Y130000D01*
X-62000Y130000D02*
X-72000Y130000D01*
X-77000Y135000D01*
X-77000Y145000D02*
X-72000Y150000D01*
X-62000Y150000D01*
X-57000Y145000D01*
X-57000Y135000D02*
X-62000Y130000D01*
X-77000Y135000D02*
X-77000Y145000D01*
X-242000Y-125000D02*
X-242000Y-135000D01*
X-242000Y-125000D02*
X-237000Y-120000D01*
X-242000Y-115000D01*
X-242000Y-105000D01*
X-237000Y-100000D01*
X-242000Y-95000D01*
X-242000Y-85000D01*
X-237000Y-80000D01*
X-242000Y-75000D01*
X-242000Y-65000D01*
X-237000Y-60000D01*
X-242000Y-55000D01*
X-242000Y-45000D01*
X-237000Y-40000D01*
X-242000Y-35000D01*
X-242000Y-25000D01*
X-237000Y-20000D01*
X-242000Y-15000D01*
X-242000Y-5000D01*
X-237000Y0D01*
X-222000Y-5000D02*
X-222000Y-15000D01*
X-227000Y-20000D01*
X-222000Y-25000D01*
X-222000Y-35000D01*
X-227000Y-40000D01*
X-222000Y-45000D01*
X-222000Y-55000D01*
X-227000Y-60000D01*
X-222000Y-65000D01*
X-222000Y-75000D01*
X-227000Y-80000D01*
X-222000Y-85000D01*
X-222000Y-95000D01*
X-227000Y-100000D01*
X-222000Y-105000D01*
X-222000Y-115000D01*
X-227000Y-120000D01*
X-222000Y-125000D01*
X-222000Y-135000D01*
X-227000Y-140000D01*
X-237000Y-140000D01*
X-242000Y-135000D01*
X-222000Y-5000D02*
X-227000Y0D01*
X-242000Y5000D02*
X-242000Y15000D01*
X-237000Y20000D01*
X-242000Y25000D01*
X-242000Y35000D01*
X-237000Y40000D01*
X-242000Y45000D01*
X-242000Y55000D01*
X-237000Y60000D01*
X-242000Y65000D01*
X-242000Y75000D01*
X-237000Y80000D01*
X-242000Y85000D01*
X-242000Y95000D01*
X-237000Y100000D01*
X-242000Y105000D01*
X-242000Y115000D01*
X-237000Y120000D01*
X-242000Y125000D01*
X-242000Y135000D01*
X-237000Y140000D01*
X-227000Y140000D01*
X-222000Y135000D02*
X-222000Y125000D01*
X-227000Y120000D01*
X-222000Y115000D01*
X-222000Y105000D01*
X-227000Y100000D01*
X-222000Y95000D01*
X-222000Y85000D01*
X-227000Y80000D01*
X-222000Y75000D01*
X-222000Y65000D01*
X-227000Y60000D01*
X-222000Y55000D01*
X-222000Y45000D01*
X-227000Y40000D01*
X-222000Y35000D01*
X-222000Y25000D01*
X-227000Y20000D01*
X-222000Y15000D01*
X-222000Y5000D01*
X-227000Y0D01*
X-237000Y0D02*
X-242000Y5000D01*
X-222000Y135000D02*
X-227000Y140000D01*
X-152000Y-150000D02*
X-142000Y-150000D01*
X-152000Y-150000D02*
X-157000Y-145000D01*
X-157000Y-135000D02*
X-152000Y-130000D01*
X-142000Y-130000D01*
X-137000Y-135000D01*
X-137000Y-145000D01*
X-142000Y-150000D01*
X-162000Y-150000D02*
X-172000Y-150000D01*
X-177000Y-145000D01*
X-177000Y-135000D02*
X-172000Y-130000D01*
X-162000Y-130000D01*
X-157000Y-135000D01*
X-157000Y-145000D02*
X-162000Y-150000D01*
X-182000Y-150000D02*
X-192000Y-150000D01*
X-197000Y-145000D01*
X-197000Y-135000D02*
X-192000Y-130000D01*
X-182000Y-130000D01*
X-177000Y-135000D01*
X-177000Y-145000D02*
X-182000Y-150000D01*
X-202000Y-150000D02*
X-212000Y-150000D01*
X-217000Y-145000D01*
X-217000Y-135000D02*
X-212000Y-130000D01*
X-202000Y-130000D01*
X-197000Y-135000D01*
X-197000Y-145000D02*
X-202000Y-150000D01*
X-217000Y-145000D02*
X-217000Y-135000D01*
X-152000Y130000D02*
X-142000Y130000D01*
X-152000Y130000D02*
X-157000Y135000D01*
X-157000Y145000D02*
X-152000Y150000D01*
X-142000Y150000D01*
X-137000Y145000D01*
X-137000Y135000D01*
X-142000Y130000D01*
X-162000Y130000D02*
X-172000Y130000D01*
X-177000Y135000D01*
X-177000Y145000D02*
X-172000Y150000D01*
X-162000Y150000D01*
X-157000Y145000D01*
X-157000Y135000D02*
X-162000Y130000D01*
X-182000Y130000D02*
X-192000Y130000D01*
X-197000Y135000D01*
X-197000Y145000D02*
X-192000Y150000D01*
X-182000Y150000D01*
X-177000Y145000D01*
X-177000Y135000D02*
X-182000Y130000D01*
X-202000Y130000D02*
X-212000Y130000D01*
X-217000Y135000D01*
X-217000Y145000D02*
X-212000Y150000D01*
X-202000Y150000D01*
X-197000Y145000D01*
X-197000Y135000D02*
X-202000Y130000D01*
X-217000Y135000D02*
X-217000Y145000D01*
D16*
X-161160Y6357D02*
X-161160Y-6357D01*
X-156922Y-706D02*
X-161160Y6357D01*
X-156922Y-706D02*
X-152684Y6357D01*
X-152684Y-6357D01*
X-145603Y-2825D02*
X-145603Y2825D01*
X-145604Y2825D02*
X-145602Y2943D01*
X-145596Y3061D01*
X-145586Y3179D01*
X-145572Y3296D01*
X-145555Y3412D01*
X-145533Y3529D01*
X-145508Y3644D01*
X-145479Y3758D01*
X-145445Y3871D01*
X-145409Y3984D01*
X-145368Y4094D01*
X-145324Y4204D01*
X-145276Y4312D01*
X-145224Y4418D01*
X-145169Y4522D01*
X-145111Y4625D01*
X-145049Y4726D01*
X-144984Y4824D01*
X-144916Y4920D01*
X-144844Y5014D01*
X-144769Y5105D01*
X-144692Y5194D01*
X-144611Y5280D01*
X-144527Y5364D01*
X-144441Y5445D01*
X-144352Y5522D01*
X-144261Y5597D01*
X-144167Y5669D01*
X-144071Y5737D01*
X-143973Y5802D01*
X-143872Y5864D01*
X-143769Y5922D01*
X-143665Y5977D01*
X-143559Y6029D01*
X-143451Y6077D01*
X-143341Y6121D01*
X-143231Y6162D01*
X-143118Y6198D01*
X-143005Y6232D01*
X-142891Y6261D01*
X-142776Y6286D01*
X-142659Y6308D01*
X-142543Y6325D01*
X-142426Y6339D01*
X-142308Y6349D01*
X-142190Y6355D01*
X-142072Y6357D01*
X-141954Y6355D01*
X-141836Y6349D01*
X-141718Y6339D01*
X-141601Y6325D01*
X-141485Y6308D01*
X-141368Y6286D01*
X-141253Y6261D01*
X-141139Y6232D01*
X-141026Y6198D01*
X-140913Y6162D01*
X-140803Y6121D01*
X-140693Y6077D01*
X-140585Y6029D01*
X-140479Y5977D01*
X-140375Y5922D01*
X-140272Y5864D01*
X-140171Y5802D01*
X-140073Y5737D01*
X-139977Y5669D01*
X-139883Y5597D01*
X-139792Y5522D01*
X-139703Y5445D01*
X-139617Y5364D01*
X-139533Y5280D01*
X-139452Y5194D01*
X-139375Y5105D01*
X-139300Y5014D01*
X-139228Y4920D01*
X-139160Y4824D01*
X-139095Y4726D01*
X-139033Y4625D01*
X-138975Y4522D01*
X-138920Y4418D01*
X-138868Y4312D01*
X-138820Y4204D01*
X-138776Y4094D01*
X-138735Y3984D01*
X-138699Y3871D01*
X-138665Y3758D01*
X-138636Y3644D01*
X-138611Y3529D01*
X-138589Y3412D01*
X-138572Y3296D01*
X-138558Y3179D01*
X-138548Y3061D01*
X-138542Y2943D01*
X-138540Y2825D01*
X-138540Y-2825D01*
X-138542Y-2943D01*
X-138548Y-3061D01*
X-138558Y-3179D01*
X-138572Y-3296D01*
X-138589Y-3412D01*
X-138611Y-3529D01*
X-138636Y-3644D01*
X-138665Y-3758D01*
X-138699Y-3871D01*
X-138735Y-3984D01*
X-138776Y-4094D01*
X-138820Y-4204D01*
X-138868Y-4312D01*
X-138920Y-4418D01*
X-138975Y-4522D01*
X-139033Y-4625D01*
X-139095Y-4726D01*
X-139160Y-4824D01*
X-139228Y-4920D01*
X-139300Y-5014D01*
X-139375Y-5105D01*
X-139452Y-5194D01*
X-139533Y-5280D01*
X-139617Y-5364D01*
X-139703Y-5445D01*
X-139792Y-5522D01*
X-139883Y-5597D01*
X-139977Y-5669D01*
X-140073Y-5737D01*
X-140171Y-5802D01*
X-140272Y-5864D01*
X-140375Y-5922D01*
X-140479Y-5977D01*
X-140585Y-6029D01*
X-140693Y-6077D01*
X-140803Y-6121D01*
X-140913Y-6162D01*
X-141026Y-6198D01*
X-141139Y-6232D01*
X-141253Y-6261D01*
X-141368Y-6286D01*
X-141485Y-6308D01*
X-141601Y-6325D01*
X-141718Y-6339D01*
X-141836Y-6349D01*
X-141954Y-6355D01*
X-142072Y-6357D01*
X-142190Y-6355D01*
X-142308Y-6349D01*
X-142426Y-6339D01*
X-142543Y-6325D01*
X-142659Y-6308D01*
X-142776Y-6286D01*
X-142891Y-6261D01*
X-143005Y-6232D01*
X-143118Y-6198D01*
X-143231Y-6162D01*
X-143341Y-6121D01*
X-143451Y-6077D01*
X-143559Y-6029D01*
X-143665Y-5977D01*
X-143769Y-5922D01*
X-143872Y-5864D01*
X-143973Y-5802D01*
X-144071Y-5737D01*
X-144167Y-5669D01*
X-144261Y-5597D01*
X-144352Y-5522D01*
X-144441Y-5445D01*
X-144527Y-5364D01*
X-144611Y-5280D01*
X-144692Y-5194D01*
X-144769Y-5105D01*
X-144844Y-5014D01*
X-144916Y-4920D01*
X-144984Y-4824D01*
X-145049Y-4726D01*
X-145111Y-4625D01*
X-145169Y-4522D01*
X-145224Y-4418D01*
X-145276Y-4312D01*
X-145324Y-4204D01*
X-145368Y-4094D01*
X-145409Y-3984D01*
X-145445Y-3871D01*
X-145479Y-3758D01*
X-145508Y-3644D01*
X-145533Y-3529D01*
X-145555Y-3412D01*
X-145572Y-3296D01*
X-145586Y-3179D01*
X-145596Y-3061D01*
X-145602Y-2943D01*
X-145604Y-2825D01*
X-131653Y-6357D02*
X-131653Y6357D01*
X-128122Y6357D01*
X-128004Y6355D01*
X-127886Y6349D01*
X-127768Y6339D01*
X-127651Y6325D01*
X-127535Y6308D01*
X-127418Y6286D01*
X-127303Y6261D01*
X-127189Y6232D01*
X-127076Y6198D01*
X-126963Y6162D01*
X-126853Y6121D01*
X-126743Y6077D01*
X-126635Y6029D01*
X-126529Y5977D01*
X-126425Y5922D01*
X-126322Y5864D01*
X-126221Y5802D01*
X-126123Y5737D01*
X-126027Y5669D01*
X-125933Y5597D01*
X-125842Y5522D01*
X-125753Y5445D01*
X-125667Y5364D01*
X-125583Y5280D01*
X-125502Y5194D01*
X-125425Y5105D01*
X-125350Y5014D01*
X-125278Y4920D01*
X-125210Y4824D01*
X-125145Y4726D01*
X-125083Y4625D01*
X-125025Y4522D01*
X-124970Y4418D01*
X-124918Y4312D01*
X-124870Y4204D01*
X-124826Y4094D01*
X-124785Y3984D01*
X-124749Y3871D01*
X-124715Y3758D01*
X-124686Y3644D01*
X-124661Y3529D01*
X-124639Y3412D01*
X-124622Y3296D01*
X-124608Y3179D01*
X-124598Y3061D01*
X-124592Y2943D01*
X-124590Y2825D01*
X-124590Y-2825D01*
X-124592Y-2943D01*
X-124598Y-3061D01*
X-124608Y-3179D01*
X-124622Y-3296D01*
X-124639Y-3412D01*
X-124661Y-3529D01*
X-124686Y-3644D01*
X-124715Y-3758D01*
X-124749Y-3871D01*
X-124785Y-3984D01*
X-124826Y-4094D01*
X-124870Y-4204D01*
X-124918Y-4312D01*
X-124970Y-4418D01*
X-125025Y-4522D01*
X-125083Y-4625D01*
X-125145Y-4726D01*
X-125210Y-4824D01*
X-125279Y-4920D01*
X-125350Y-5014D01*
X-125425Y-5105D01*
X-125502Y-5194D01*
X-125583Y-5280D01*
X-125667Y-5364D01*
X-125753Y-5445D01*
X-125842Y-5522D01*
X-125933Y-5597D01*
X-126027Y-5669D01*
X-126123Y-5737D01*
X-126222Y-5802D01*
X-126322Y-5864D01*
X-126425Y-5922D01*
X-126529Y-5977D01*
X-126635Y-6029D01*
X-126743Y-6077D01*
X-126853Y-6121D01*
X-126963Y-6162D01*
X-127076Y-6198D01*
X-127189Y-6232D01*
X-127303Y-6261D01*
X-127419Y-6286D01*
X-127535Y-6308D01*
X-127651Y-6325D01*
X-127768Y-6339D01*
X-127886Y-6349D01*
X-128004Y-6355D01*
X-128122Y-6357D01*
X-131653Y-6357D01*
X-117253Y-2825D02*
X-117253Y6357D01*
X-117254Y-2825D02*
X-117252Y-2943D01*
X-117246Y-3061D01*
X-117236Y-3179D01*
X-117222Y-3296D01*
X-117205Y-3412D01*
X-117183Y-3529D01*
X-117158Y-3644D01*
X-117129Y-3758D01*
X-117095Y-3871D01*
X-117059Y-3984D01*
X-117018Y-4094D01*
X-116974Y-4204D01*
X-116926Y-4312D01*
X-116874Y-4418D01*
X-116819Y-4522D01*
X-116761Y-4625D01*
X-116699Y-4726D01*
X-116634Y-4824D01*
X-116566Y-4920D01*
X-116494Y-5014D01*
X-116419Y-5105D01*
X-116342Y-5194D01*
X-116261Y-5280D01*
X-116177Y-5364D01*
X-116091Y-5445D01*
X-116002Y-5522D01*
X-115911Y-5597D01*
X-115817Y-5669D01*
X-115721Y-5737D01*
X-115623Y-5802D01*
X-115522Y-5864D01*
X-115419Y-5922D01*
X-115315Y-5977D01*
X-115209Y-6029D01*
X-115101Y-6077D01*
X-114991Y-6121D01*
X-114881Y-6162D01*
X-114768Y-6198D01*
X-114655Y-6232D01*
X-114541Y-6261D01*
X-114426Y-6286D01*
X-114309Y-6308D01*
X-114193Y-6325D01*
X-114076Y-6339D01*
X-113958Y-6349D01*
X-113840Y-6355D01*
X-113722Y-6357D01*
X-113604Y-6355D01*
X-113486Y-6349D01*
X-113368Y-6339D01*
X-113251Y-6325D01*
X-113135Y-6308D01*
X-113018Y-6286D01*
X-112903Y-6261D01*
X-112789Y-6232D01*
X-112676Y-6198D01*
X-112563Y-6162D01*
X-112453Y-6121D01*
X-112343Y-6077D01*
X-112235Y-6029D01*
X-112129Y-5977D01*
X-112025Y-5922D01*
X-111922Y-5864D01*
X-111821Y-5802D01*
X-111723Y-5737D01*
X-111627Y-5669D01*
X-111533Y-5597D01*
X-111442Y-5522D01*
X-111353Y-5445D01*
X-111267Y-5364D01*
X-111183Y-5280D01*
X-111102Y-5194D01*
X-111025Y-5105D01*
X-110950Y-5014D01*
X-110878Y-4920D01*
X-110810Y-4824D01*
X-110745Y-4726D01*
X-110683Y-4625D01*
X-110625Y-4522D01*
X-110570Y-4418D01*
X-110518Y-4312D01*
X-110470Y-4204D01*
X-110426Y-4094D01*
X-110385Y-3984D01*
X-110349Y-3871D01*
X-110315Y-3758D01*
X-110286Y-3644D01*
X-110261Y-3529D01*
X-110239Y-3412D01*
X-110222Y-3296D01*
X-110208Y-3179D01*
X-110198Y-3061D01*
X-110192Y-2943D01*
X-110190Y-2825D01*
X-110190Y6357D01*
X-102815Y6357D02*
X-102815Y-6357D01*
X-97164Y-6357D01*
X-91115Y-6357D02*
X-85464Y-6357D01*
X-91115Y-6357D02*
X-91115Y6357D01*
X-85464Y6357D01*
X-86877Y706D02*
X-91115Y706D01*
X-79904Y3532D02*
X-76372Y6357D01*
X-76372Y-6357D01*
X-79904Y-6357D02*
X-72840Y-6357D01*
D17*
X94948Y164508D02*
X94948Y172297D01*
X91054Y168403D02*
X98843Y168403D01*
D16*
X126357Y193640D02*
X126357Y196466D01*
X126357Y193640D02*
X126355Y193534D01*
X126349Y193429D01*
X126339Y193324D01*
X126325Y193219D01*
X126308Y193115D01*
X126286Y193011D01*
X126261Y192909D01*
X126231Y192807D01*
X126198Y192707D01*
X126162Y192608D01*
X126121Y192510D01*
X126077Y192414D01*
X126030Y192320D01*
X125979Y192227D01*
X125924Y192137D01*
X125866Y192049D01*
X125805Y191962D01*
X125741Y191879D01*
X125673Y191797D01*
X125603Y191719D01*
X125530Y191642D01*
X125453Y191569D01*
X125375Y191499D01*
X125293Y191431D01*
X125210Y191367D01*
X125123Y191306D01*
X125035Y191248D01*
X124944Y191193D01*
X124852Y191142D01*
X124758Y191095D01*
X124662Y191051D01*
X124564Y191010D01*
X124465Y190974D01*
X124365Y190941D01*
X124263Y190911D01*
X124161Y190886D01*
X124057Y190864D01*
X123953Y190847D01*
X123848Y190833D01*
X123743Y190823D01*
X123638Y190817D01*
X123532Y190815D01*
X116468Y190815D01*
X116362Y190817D01*
X116257Y190823D01*
X116152Y190833D01*
X116047Y190847D01*
X115943Y190864D01*
X115839Y190886D01*
X115737Y190911D01*
X115635Y190941D01*
X115535Y190974D01*
X115436Y191010D01*
X115338Y191051D01*
X115242Y191095D01*
X115148Y191142D01*
X115056Y191193D01*
X114965Y191248D01*
X114877Y191306D01*
X114790Y191367D01*
X114707Y191431D01*
X114625Y191499D01*
X114547Y191569D01*
X114470Y191642D01*
X114397Y191718D01*
X114327Y191797D01*
X114259Y191879D01*
X114195Y191962D01*
X114134Y192049D01*
X114076Y192137D01*
X114021Y192227D01*
X113970Y192320D01*
X113923Y192414D01*
X113879Y192510D01*
X113838Y192608D01*
X113802Y192707D01*
X113769Y192807D01*
X113739Y192909D01*
X113714Y193011D01*
X113692Y193115D01*
X113675Y193219D01*
X113661Y193324D01*
X113651Y193429D01*
X113645Y193534D01*
X113643Y193640D01*
X113643Y196466D01*
X116468Y202122D02*
X113643Y205653D01*
X126357Y205653D01*
X126357Y202122D02*
X126357Y209185D01*
X126357Y-203784D02*
X126357Y-206610D01*
X126355Y-206716D01*
X126349Y-206821D01*
X126339Y-206926D01*
X126325Y-207031D01*
X126308Y-207135D01*
X126286Y-207239D01*
X126261Y-207341D01*
X126231Y-207443D01*
X126198Y-207543D01*
X126162Y-207642D01*
X126121Y-207740D01*
X126077Y-207836D01*
X126030Y-207930D01*
X125979Y-208023D01*
X125924Y-208113D01*
X125866Y-208201D01*
X125805Y-208288D01*
X125741Y-208371D01*
X125673Y-208453D01*
X125603Y-208531D01*
X125530Y-208608D01*
X125453Y-208681D01*
X125375Y-208751D01*
X125293Y-208819D01*
X125210Y-208883D01*
X125123Y-208944D01*
X125035Y-209002D01*
X124944Y-209057D01*
X124852Y-209108D01*
X124758Y-209155D01*
X124662Y-209199D01*
X124564Y-209240D01*
X124465Y-209276D01*
X124365Y-209309D01*
X124263Y-209339D01*
X124161Y-209364D01*
X124057Y-209386D01*
X123953Y-209403D01*
X123848Y-209417D01*
X123743Y-209427D01*
X123638Y-209433D01*
X123532Y-209435D01*
X116468Y-209435D01*
X116362Y-209433D01*
X116257Y-209427D01*
X116152Y-209417D01*
X116047Y-209403D01*
X115943Y-209386D01*
X115839Y-209364D01*
X115737Y-209339D01*
X115635Y-209309D01*
X115535Y-209276D01*
X115436Y-209240D01*
X115338Y-209199D01*
X115242Y-209155D01*
X115148Y-209108D01*
X115056Y-209057D01*
X114965Y-209002D01*
X114877Y-208944D01*
X114790Y-208883D01*
X114707Y-208819D01*
X114625Y-208751D01*
X114547Y-208681D01*
X114470Y-208608D01*
X114397Y-208532D01*
X114327Y-208453D01*
X114259Y-208371D01*
X114195Y-208288D01*
X114134Y-208201D01*
X114076Y-208113D01*
X114021Y-208023D01*
X113970Y-207930D01*
X113923Y-207836D01*
X113879Y-207740D01*
X113838Y-207642D01*
X113802Y-207543D01*
X113769Y-207443D01*
X113739Y-207341D01*
X113714Y-207239D01*
X113692Y-207135D01*
X113675Y-207031D01*
X113661Y-206926D01*
X113651Y-206821D01*
X113645Y-206716D01*
X113643Y-206610D01*
X113643Y-203784D01*
X113643Y-194243D02*
X113645Y-194132D01*
X113651Y-194021D01*
X113660Y-193911D01*
X113674Y-193801D01*
X113691Y-193691D01*
X113712Y-193582D01*
X113737Y-193474D01*
X113766Y-193367D01*
X113799Y-193261D01*
X113835Y-193156D01*
X113874Y-193052D01*
X113918Y-192950D01*
X113965Y-192849D01*
X114015Y-192751D01*
X114069Y-192654D01*
X114126Y-192558D01*
X114186Y-192465D01*
X114250Y-192374D01*
X114317Y-192286D01*
X114387Y-192200D01*
X114460Y-192116D01*
X114535Y-192035D01*
X114614Y-191956D01*
X114695Y-191881D01*
X114779Y-191808D01*
X114865Y-191738D01*
X114953Y-191671D01*
X115044Y-191607D01*
X115137Y-191547D01*
X115233Y-191490D01*
X115330Y-191436D01*
X115428Y-191386D01*
X115529Y-191339D01*
X115631Y-191295D01*
X115735Y-191256D01*
X115840Y-191220D01*
X115946Y-191187D01*
X116053Y-191158D01*
X116161Y-191133D01*
X116270Y-191112D01*
X116380Y-191095D01*
X116490Y-191081D01*
X116600Y-191072D01*
X116711Y-191066D01*
X116822Y-191064D01*
X113643Y-194243D02*
X113645Y-194368D01*
X113651Y-194493D01*
X113660Y-194618D01*
X113674Y-194743D01*
X113691Y-194867D01*
X113712Y-194990D01*
X113737Y-195113D01*
X113765Y-195235D01*
X113798Y-195356D01*
X113834Y-195476D01*
X113873Y-195595D01*
X113916Y-195712D01*
X113963Y-195828D01*
X114014Y-195943D01*
X114068Y-196056D01*
X114125Y-196167D01*
X114186Y-196277D01*
X114250Y-196385D01*
X114317Y-196490D01*
X114388Y-196594D01*
X114461Y-196695D01*
X114538Y-196794D01*
X114618Y-196890D01*
X114700Y-196985D01*
X114786Y-197076D01*
X114874Y-197165D01*
X114965Y-197251D01*
X115059Y-197334D01*
X115155Y-197415D01*
X115253Y-197492D01*
X115354Y-197566D01*
X115457Y-197637D01*
X115562Y-197705D01*
X115669Y-197770D01*
X115778Y-197832D01*
X115889Y-197890D01*
X116002Y-197944D01*
X116116Y-197995D01*
X116232Y-198043D01*
X116350Y-198087D01*
X116468Y-198127D01*
X119294Y-192124D02*
X119213Y-192042D01*
X119130Y-191963D01*
X119044Y-191887D01*
X118955Y-191813D01*
X118864Y-191743D01*
X118770Y-191676D01*
X118675Y-191611D01*
X118577Y-191551D01*
X118477Y-191493D01*
X118375Y-191439D01*
X118272Y-191388D01*
X118167Y-191341D01*
X118060Y-191297D01*
X117952Y-191257D01*
X117843Y-191221D01*
X117732Y-191189D01*
X117621Y-191160D01*
X117508Y-191135D01*
X117395Y-191113D01*
X117281Y-191096D01*
X117167Y-191082D01*
X117052Y-191073D01*
X116937Y-191067D01*
X116822Y-191065D01*
X119294Y-192124D02*
X126357Y-198128D01*
X126357Y-191065D01*
D18*
X30000Y-193000D02*
X30000Y-206000D01*
X30000Y-193000D02*
X100000Y-193000D01*
X100000Y-206000D01*
X30000Y-240000D02*
X30000Y-253000D01*
X100000Y-253000D01*
X100000Y-240000D01*
D19*
X45500Y-223000D03*
D20*
X-115250Y165500D03*
D21*
X-115250Y165750D03*
D22*
X-115125Y166000D03*
D23*
X-115250Y166250D03*
D24*
X-115125Y166500D03*
D25*
X-115125Y166750D03*
D26*
X-115000Y167000D03*
D27*
X-115125Y167250D03*
D28*
X-115125Y167500D03*
D29*
X-115000Y167750D03*
D30*
X-121125Y168000D03*
D31*
X-101750Y168000D03*
D32*
X-123000Y168250D03*
D33*
X-99750Y168250D03*
D34*
X-124250Y168500D03*
D35*
X-125250Y168750D03*
D36*
X-125875Y169000D03*
D21*
X-126250Y169250D03*
D37*
X-126750Y169500D03*
D38*
X-127000Y169750D03*
D39*
X-127375Y170000D03*
D40*
X-127500Y170250D03*
D41*
X-127625Y170500D03*
X-127625Y170750D03*
D42*
X-127500Y171000D03*
X-127500Y171250D03*
X-127250Y171500D03*
D43*
X-127125Y171750D03*
D42*
X-127000Y172000D03*
D43*
X-126875Y172250D03*
D44*
X-126750Y172500D03*
D43*
X-126625Y172750D03*
D44*
X-126500Y173000D03*
X-126500Y173250D03*
X-126250Y173500D03*
D45*
X-126125Y173750D03*
D46*
X-91375Y173750D03*
D37*
X-77250Y173750D03*
D21*
X-52500Y173750D03*
D47*
X-42750Y173750D03*
D48*
X-30125Y173750D03*
D45*
X-126125Y174000D03*
D49*
X-91875Y174000D03*
D50*
X-76875Y174000D03*
D51*
X-53000Y174000D03*
D48*
X-42625Y174000D03*
X-30375Y174000D03*
D45*
X-125875Y174250D03*
D44*
X-116750Y174250D03*
D51*
X-92250Y174250D03*
D52*
X-76500Y174250D03*
D53*
X-53375Y174250D03*
D47*
X-42500Y174250D03*
X-30500Y174250D03*
D45*
X-125875Y174500D03*
D38*
X-116500Y174500D03*
D54*
X-92500Y174500D03*
D51*
X-76250Y174500D03*
D55*
X-53625Y174500D03*
D48*
X-42375Y174500D03*
X-30625Y174500D03*
D45*
X-125625Y174750D03*
D49*
X-116375Y174750D03*
D56*
X-92750Y174750D03*
D54*
X-76000Y174750D03*
D35*
X-53750Y174750D03*
D47*
X-42250Y174750D03*
X-30750Y174750D03*
D23*
X-119000Y175000D03*
D55*
X-92875Y175000D03*
D53*
X-75875Y175000D03*
D57*
X-54000Y175000D03*
D48*
X-42125Y175000D03*
X-30875Y175000D03*
D58*
X-118500Y175250D03*
D35*
X-93000Y175250D03*
D56*
X-75750Y175250D03*
D59*
X-54125Y175250D03*
D47*
X-42000Y175250D03*
X-31000Y175250D03*
D60*
X-118000Y175500D03*
D61*
X-93125Y175500D03*
D35*
X-75500Y175500D03*
D34*
X-54250Y175500D03*
D48*
X-41875Y175500D03*
X-31125Y175500D03*
D24*
X-117375Y175750D03*
D57*
X-93250Y175750D03*
D61*
X-75375Y175750D03*
D62*
X-54375Y175750D03*
D48*
X-41625Y175750D03*
X-31375Y175750D03*
D63*
X-117000Y176000D03*
D59*
X-93375Y176000D03*
D57*
X-75250Y176000D03*
D62*
X-54375Y176000D03*
D48*
X-41625Y176000D03*
X-31375Y176000D03*
D55*
X-120875Y176250D03*
D34*
X-93500Y176250D03*
D59*
X-75125Y176250D03*
D64*
X-54500Y176250D03*
D48*
X-41375Y176250D03*
X-31625Y176250D03*
D52*
X-121750Y176500D03*
D62*
X-93625Y176500D03*
D59*
X-75125Y176500D03*
D22*
X-54625Y176500D03*
D47*
X-41250Y176500D03*
D48*
X-31625Y176500D03*
D37*
X-122250Y176750D03*
D45*
X-98125Y176750D03*
D65*
X-88375Y176750D03*
X-80125Y176750D03*
D66*
X-70500Y176750D03*
D45*
X-59375Y176750D03*
D65*
X-49125Y176750D03*
D48*
X-41125Y176750D03*
X-31875Y176750D03*
D38*
X-122500Y177000D03*
D66*
X-98500Y177000D03*
D65*
X-88375Y177000D03*
X-80125Y177000D03*
D67*
X-70125Y177000D03*
D66*
X-59750Y177000D03*
D65*
X-49125Y177000D03*
D47*
X-41000Y177000D03*
X-32000Y177000D03*
D39*
X-122875Y177250D03*
D47*
X-98750Y177250D03*
D65*
X-88375Y177250D03*
X-80125Y177250D03*
D47*
X-69750Y177250D03*
D67*
X-59875Y177250D03*
D65*
X-49125Y177250D03*
D48*
X-40875Y177250D03*
X-32125Y177250D03*
D68*
X-123125Y177500D03*
D47*
X-99000Y177500D03*
D65*
X-88375Y177500D03*
X-80125Y177500D03*
D48*
X-69625Y177500D03*
D67*
X-60125Y177500D03*
D65*
X-49125Y177500D03*
D47*
X-40750Y177500D03*
X-32250Y177500D03*
D42*
X-123250Y177750D03*
D48*
X-99125Y177750D03*
D65*
X-88375Y177750D03*
X-80125Y177750D03*
D48*
X-69375Y177750D03*
D47*
X-60250Y177750D03*
D65*
X-49125Y177750D03*
D48*
X-40625Y177750D03*
X-32375Y177750D03*
D45*
X-123625Y178000D03*
D48*
X-99375Y178000D03*
D65*
X-88375Y178000D03*
X-80125Y178000D03*
D31*
X-69250Y178000D03*
D48*
X-60375Y178000D03*
D65*
X-49125Y178000D03*
D47*
X-40500Y178000D03*
X-32500Y178000D03*
D66*
X-123500Y178250D03*
D31*
X-99500Y178250D03*
D65*
X-88375Y178250D03*
X-80125Y178250D03*
D48*
X-69125Y178250D03*
X-60625Y178250D03*
D65*
X-49125Y178250D03*
D48*
X-40375Y178250D03*
X-32625Y178250D03*
D66*
X-123500Y178500D03*
D31*
X-99500Y178500D03*
D65*
X-88375Y178500D03*
X-80125Y178500D03*
D31*
X-69000Y178500D03*
D48*
X-60625Y178500D03*
D65*
X-49125Y178500D03*
D48*
X-40125Y178500D03*
D47*
X-32750Y178500D03*
D67*
X-123375Y178750D03*
D31*
X-99750Y178750D03*
D65*
X-88375Y178750D03*
X-80125Y178750D03*
D31*
X-68750Y178750D03*
D48*
X-60625Y178750D03*
D65*
X-49125Y178750D03*
D48*
X-40125Y178750D03*
X-32875Y178750D03*
D67*
X-123125Y179000D03*
D31*
X-99750Y179000D03*
D65*
X-88375Y179000D03*
X-80125Y179000D03*
D31*
X-68750Y179000D03*
X-60750Y179000D03*
D65*
X-49125Y179000D03*
D48*
X-39875Y179000D03*
X-33125Y179000D03*
D67*
X-123125Y179250D03*
D65*
X-99875Y179250D03*
X-88375Y179250D03*
X-80125Y179250D03*
D31*
X-68500Y179250D03*
X-60750Y179250D03*
D65*
X-49125Y179250D03*
D48*
X-39875Y179250D03*
X-33125Y179250D03*
D47*
X-123000Y179500D03*
D65*
X-99875Y179500D03*
X-88375Y179500D03*
X-80125Y179500D03*
D31*
X-68500Y179500D03*
X-60750Y179500D03*
D65*
X-49125Y179500D03*
D48*
X-39625Y179500D03*
X-33375Y179500D03*
D67*
X-122875Y179750D03*
D65*
X-99875Y179750D03*
X-88375Y179750D03*
X-80125Y179750D03*
D31*
X-68500Y179750D03*
D48*
X-60875Y179750D03*
D65*
X-49125Y179750D03*
D47*
X-39500Y179750D03*
X-33500Y179750D03*
X-122750Y180000D03*
D65*
X-100125Y180000D03*
X-88375Y180000D03*
X-80125Y180000D03*
D31*
X-68250Y180000D03*
D48*
X-60875Y180000D03*
D65*
X-49125Y180000D03*
D48*
X-39375Y180000D03*
X-33625Y180000D03*
X-122625Y180250D03*
D65*
X-100125Y180250D03*
X-88375Y180250D03*
X-80125Y180250D03*
D31*
X-68250Y180250D03*
D48*
X-60875Y180250D03*
D65*
X-49125Y180250D03*
D47*
X-39250Y180250D03*
X-33750Y180250D03*
X-122500Y180500D03*
D65*
X-100125Y180500D03*
X-88375Y180500D03*
X-80125Y180500D03*
D31*
X-68250Y180500D03*
X-61000Y180500D03*
D65*
X-49125Y180500D03*
D48*
X-39125Y180500D03*
X-33875Y180500D03*
X-122375Y180750D03*
D65*
X-100125Y180750D03*
X-88375Y180750D03*
X-80125Y180750D03*
X-68125Y180750D03*
D31*
X-61000Y180750D03*
D65*
X-49125Y180750D03*
D47*
X-39000Y180750D03*
X-34000Y180750D03*
D31*
X-122250Y181000D03*
D65*
X-100125Y181000D03*
X-88375Y181000D03*
X-80125Y181000D03*
D31*
X-68000Y181000D03*
X-61000Y181000D03*
D65*
X-49125Y181000D03*
D69*
X-36500Y181000D03*
D48*
X-122125Y181250D03*
D65*
X-100125Y181250D03*
X-88375Y181250D03*
X-80125Y181250D03*
D31*
X-68000Y181250D03*
X-61000Y181250D03*
D65*
X-49125Y181250D03*
D70*
X-36375Y181250D03*
D31*
X-122000Y181500D03*
D65*
X-100125Y181500D03*
X-88375Y181500D03*
X-80125Y181500D03*
D31*
X-68000Y181500D03*
D48*
X-60875Y181500D03*
D65*
X-49125Y181500D03*
D38*
X-36500Y181500D03*
D48*
X-121875Y181750D03*
D71*
X-115625Y181750D03*
D65*
X-100125Y181750D03*
X-88375Y181750D03*
X-80125Y181750D03*
D31*
X-68000Y181750D03*
D48*
X-60875Y181750D03*
D65*
X-49125Y181750D03*
D72*
X-36500Y181750D03*
D31*
X-121750Y182000D03*
D42*
X-115500Y182000D03*
D65*
X-100125Y182000D03*
X-88375Y182000D03*
X-80125Y182000D03*
X-67875Y182000D03*
D48*
X-60875Y182000D03*
D65*
X-49125Y182000D03*
D72*
X-36500Y182000D03*
D53*
X-117375Y182250D03*
D65*
X-100125Y182250D03*
X-88375Y182250D03*
X-80125Y182250D03*
D31*
X-67750Y182250D03*
X-60750Y182250D03*
D65*
X-49125Y182250D03*
D73*
X-36500Y182250D03*
D61*
X-116875Y182500D03*
D65*
X-100125Y182500D03*
X-88375Y182500D03*
X-80125Y182500D03*
D31*
X-67750Y182500D03*
X-60750Y182500D03*
D65*
X-49125Y182500D03*
D73*
X-36500Y182500D03*
D61*
X-116625Y182750D03*
D65*
X-100125Y182750D03*
X-88375Y182750D03*
X-80125Y182750D03*
D31*
X-67750Y182750D03*
X-60750Y182750D03*
D65*
X-49125Y182750D03*
D40*
X-36500Y182750D03*
D69*
X-118500Y183000D03*
D65*
X-100125Y183000D03*
X-88375Y183000D03*
X-80125Y183000D03*
D31*
X-67750Y183000D03*
D48*
X-60625Y183000D03*
D65*
X-49125Y183000D03*
D40*
X-36500Y183000D03*
D74*
X-119375Y183250D03*
D65*
X-100125Y183250D03*
X-88375Y183250D03*
X-80125Y183250D03*
D31*
X-67750Y183250D03*
D48*
X-60625Y183250D03*
D65*
X-49125Y183250D03*
D75*
X-36500Y183250D03*
D42*
X-119750Y183500D03*
D65*
X-100125Y183500D03*
X-88375Y183500D03*
X-80125Y183500D03*
D31*
X-67750Y183500D03*
D48*
X-60625Y183500D03*
D65*
X-49125Y183500D03*
D75*
X-36500Y183500D03*
D45*
X-120125Y183750D03*
D65*
X-100125Y183750D03*
X-88375Y183750D03*
X-80125Y183750D03*
D31*
X-67750Y183750D03*
D48*
X-60375Y183750D03*
D65*
X-49125Y183750D03*
D42*
X-36500Y183750D03*
D48*
X-120375Y184000D03*
D65*
X-100125Y184000D03*
X-88375Y184000D03*
X-80125Y184000D03*
D31*
X-67750Y184000D03*
D48*
X-60375Y184000D03*
D65*
X-49125Y184000D03*
D42*
X-36500Y184000D03*
D65*
X-120375Y184250D03*
X-100125Y184250D03*
X-88375Y184250D03*
X-80125Y184250D03*
D31*
X-67750Y184250D03*
D47*
X-60250Y184250D03*
D65*
X-49125Y184250D03*
D44*
X-36500Y184250D03*
D65*
X-120375Y184500D03*
X-100125Y184500D03*
X-88375Y184500D03*
X-80125Y184500D03*
D31*
X-67750Y184500D03*
D47*
X-60000Y184500D03*
D65*
X-49125Y184500D03*
D45*
X-36375Y184500D03*
D76*
X-120250Y184750D03*
D65*
X-100125Y184750D03*
X-88375Y184750D03*
X-80125Y184750D03*
D48*
X-67625Y184750D03*
D67*
X-59875Y184750D03*
D65*
X-49125Y184750D03*
D66*
X-36500Y184750D03*
D76*
X-120250Y185000D03*
D65*
X-100125Y185000D03*
X-88375Y185000D03*
X-80125Y185000D03*
D48*
X-67625Y185000D03*
D66*
X-59500Y185000D03*
D65*
X-49125Y185000D03*
D47*
X-36500Y185000D03*
D76*
X-120000Y185250D03*
D65*
X-100125Y185250D03*
X-88375Y185250D03*
X-80125Y185250D03*
D48*
X-67625Y185250D03*
D75*
X-58750Y185250D03*
D31*
X-49250Y185250D03*
D47*
X-36500Y185250D03*
D77*
X-119875Y185500D03*
D65*
X-100125Y185500D03*
X-88375Y185500D03*
X-80125Y185500D03*
D48*
X-67625Y185500D03*
D64*
X-54500Y185500D03*
D47*
X-36500Y185500D03*
D76*
X-119750Y185750D03*
D65*
X-100125Y185750D03*
X-88375Y185750D03*
X-80125Y185750D03*
D31*
X-67750Y185750D03*
D64*
X-54500Y185750D03*
D67*
X-36375Y185750D03*
D77*
X-119625Y186000D03*
D65*
X-100125Y186000D03*
X-88375Y186000D03*
X-80125Y186000D03*
D31*
X-67750Y186000D03*
D62*
X-54375Y186000D03*
D66*
X-36500Y186000D03*
D78*
X-119500Y186250D03*
D65*
X-100125Y186250D03*
X-88375Y186250D03*
X-80125Y186250D03*
D31*
X-67750Y186250D03*
D34*
X-54250Y186250D03*
D44*
X-36500Y186250D03*
D77*
X-119375Y186500D03*
D65*
X-100125Y186500D03*
X-88375Y186500D03*
X-80125Y186500D03*
D31*
X-67750Y186500D03*
D59*
X-54125Y186500D03*
D44*
X-36500Y186500D03*
D78*
X-119250Y186750D03*
D65*
X-100125Y186750D03*
X-88375Y186750D03*
X-80125Y186750D03*
D31*
X-67750Y186750D03*
D57*
X-54000Y186750D03*
D42*
X-36500Y186750D03*
D78*
X-119250Y187000D03*
D65*
X-100125Y187000D03*
X-88375Y187000D03*
X-80125Y187000D03*
D31*
X-67750Y187000D03*
D61*
X-53875Y187000D03*
D42*
X-36500Y187000D03*
D78*
X-119000Y187250D03*
D65*
X-100125Y187250D03*
X-88375Y187250D03*
X-80125Y187250D03*
D31*
X-67750Y187250D03*
D55*
X-53625Y187250D03*
D75*
X-36500Y187250D03*
D71*
X-118875Y187500D03*
D65*
X-100125Y187500D03*
X-88375Y187500D03*
X-80125Y187500D03*
D31*
X-67750Y187500D03*
D53*
X-53375Y187500D03*
D75*
X-36500Y187500D03*
D78*
X-118750Y187750D03*
D65*
X-100125Y187750D03*
X-88375Y187750D03*
X-80125Y187750D03*
D31*
X-67750Y187750D03*
D36*
X-53125Y187750D03*
D40*
X-36500Y187750D03*
D71*
X-118625Y188000D03*
D65*
X-100125Y188000D03*
X-88375Y188000D03*
X-80125Y188000D03*
D31*
X-67750Y188000D03*
D49*
X-52625Y188000D03*
D40*
X-36500Y188000D03*
D20*
X-118500Y188250D03*
D65*
X-100125Y188250D03*
X-88375Y188250D03*
X-80125Y188250D03*
D31*
X-67750Y188250D03*
D79*
X-51875Y188250D03*
D73*
X-36500Y188250D03*
D71*
X-118375Y188500D03*
D65*
X-100125Y188500D03*
X-88375Y188500D03*
X-80125Y188500D03*
D31*
X-68000Y188500D03*
D65*
X-49125Y188500D03*
D39*
X-36375Y188500D03*
D20*
X-118250Y188750D03*
D65*
X-100125Y188750D03*
X-88375Y188750D03*
X-80125Y188750D03*
D31*
X-68000Y188750D03*
D65*
X-49125Y188750D03*
D72*
X-36500Y188750D03*
D71*
X-118125Y189000D03*
D65*
X-100125Y189000D03*
X-88375Y189000D03*
X-80125Y189000D03*
D31*
X-68000Y189000D03*
D65*
X-49125Y189000D03*
D38*
X-36500Y189000D03*
D20*
X-118000Y189250D03*
D65*
X-100125Y189250D03*
X-88375Y189250D03*
X-80125Y189250D03*
D31*
X-68000Y189250D03*
D65*
X-49125Y189250D03*
D38*
X-36500Y189250D03*
D80*
X-117875Y189500D03*
D65*
X-100125Y189500D03*
X-88375Y189500D03*
X-80125Y189500D03*
D31*
X-68000Y189500D03*
D65*
X-49375Y189500D03*
D69*
X-36500Y189500D03*
D20*
X-117750Y189750D03*
D65*
X-100125Y189750D03*
X-88375Y189750D03*
X-80125Y189750D03*
D31*
X-68250Y189750D03*
D65*
X-49375Y189750D03*
D48*
X-38875Y189750D03*
X-34125Y189750D03*
D80*
X-117625Y190000D03*
D65*
X-100125Y190000D03*
X-88375Y190000D03*
X-80125Y190000D03*
D31*
X-68250Y190000D03*
D65*
X-49375Y190000D03*
D47*
X-39000Y190000D03*
D48*
X-33875Y190000D03*
D80*
X-117375Y190250D03*
D65*
X-100125Y190250D03*
X-88375Y190250D03*
X-80125Y190250D03*
D31*
X-68250Y190250D03*
D65*
X-49375Y190250D03*
D48*
X-39125Y190250D03*
X-33875Y190250D03*
D80*
X-117375Y190500D03*
D65*
X-100125Y190500D03*
X-88375Y190500D03*
X-80125Y190500D03*
X-68375Y190500D03*
X-49375Y190500D03*
D48*
X-39375Y190500D03*
X-33625Y190500D03*
D80*
X-117125Y190750D03*
D65*
X-100125Y190750D03*
X-88375Y190750D03*
X-80125Y190750D03*
D31*
X-68500Y190750D03*
D65*
X-49375Y190750D03*
D48*
X-39375Y190750D03*
X-33625Y190750D03*
D20*
X-117000Y191000D03*
D65*
X-100125Y191000D03*
X-88375Y191000D03*
X-80125Y191000D03*
D31*
X-68500Y191000D03*
D65*
X-49375Y191000D03*
D48*
X-39625Y191000D03*
X-33375Y191000D03*
D80*
X-116875Y191250D03*
D65*
X-100125Y191250D03*
X-88375Y191250D03*
X-80125Y191250D03*
D31*
X-68750Y191250D03*
X-49500Y191250D03*
D48*
X-39625Y191250D03*
X-33375Y191250D03*
D20*
X-116750Y191500D03*
D65*
X-100125Y191500D03*
X-88375Y191500D03*
X-80125Y191500D03*
D31*
X-68750Y191500D03*
D65*
X-49625Y191500D03*
D48*
X-39875Y191500D03*
X-33125Y191500D03*
D80*
X-116625Y191750D03*
D65*
X-100125Y191750D03*
X-88375Y191750D03*
X-80125Y191750D03*
D48*
X-68875Y191750D03*
D65*
X-49625Y191750D03*
D47*
X-40000Y191750D03*
X-33000Y191750D03*
D20*
X-116500Y192000D03*
D65*
X-100125Y192000D03*
X-88375Y192000D03*
X-80125Y192000D03*
D31*
X-69000Y192000D03*
D65*
X-49625Y192000D03*
D48*
X-40125Y192000D03*
X-32875Y192000D03*
D71*
X-116375Y192250D03*
D65*
X-100125Y192250D03*
X-88375Y192250D03*
X-80125Y192250D03*
D48*
X-69125Y192250D03*
D31*
X-49750Y192250D03*
D47*
X-40250Y192250D03*
X-32750Y192250D03*
D20*
X-116250Y192500D03*
D65*
X-100125Y192500D03*
X-88375Y192500D03*
X-80125Y192500D03*
D48*
X-69375Y192500D03*
D65*
X-49875Y192500D03*
D48*
X-40375Y192500D03*
X-32625Y192500D03*
D71*
X-116125Y192750D03*
D65*
X-100125Y192750D03*
X-88375Y192750D03*
X-80125Y192750D03*
D47*
X-69500Y192750D03*
D81*
X-60000Y192750D03*
D31*
X-50000Y192750D03*
D47*
X-40500Y192750D03*
X-32500Y192750D03*
D78*
X-116000Y193000D03*
D65*
X-100125Y193000D03*
X-88375Y193000D03*
X-80125Y193000D03*
D47*
X-69750Y193000D03*
D82*
X-59750Y193000D03*
D31*
X-50000Y193000D03*
D48*
X-40625Y193000D03*
X-32375Y193000D03*
D71*
X-115875Y193250D03*
D65*
X-100125Y193250D03*
X-88375Y193250D03*
X-80125Y193250D03*
D47*
X-70000Y193250D03*
D33*
X-59750Y193250D03*
D31*
X-50250Y193250D03*
D48*
X-40875Y193250D03*
X-32125Y193250D03*
D78*
X-115750Y193500D03*
D65*
X-100125Y193500D03*
X-88375Y193500D03*
X-80125Y193500D03*
D66*
X-70250Y193500D03*
D83*
X-59625Y193500D03*
D48*
X-50375Y193500D03*
X-40875Y193500D03*
X-32125Y193500D03*
D71*
X-115625Y193750D03*
D65*
X-100125Y193750D03*
X-88375Y193750D03*
X-80125Y193750D03*
D44*
X-70750Y193750D03*
D84*
X-59375Y193750D03*
D48*
X-50625Y193750D03*
X-41125Y193750D03*
X-31875Y193750D03*
D78*
X-115500Y194000D03*
D65*
X-100125Y194000D03*
X-88375Y194000D03*
D59*
X-75125Y194000D03*
D80*
X-59375Y194000D03*
D47*
X-50750Y194000D03*
D48*
X-41125Y194000D03*
X-31875Y194000D03*
D77*
X-115375Y194250D03*
D65*
X-100125Y194250D03*
X-88375Y194250D03*
D57*
X-75250Y194250D03*
D71*
X-59125Y194250D03*
D47*
X-51000Y194250D03*
D48*
X-41375Y194250D03*
X-31625Y194250D03*
D78*
X-115250Y194500D03*
D65*
X-100125Y194500D03*
X-88375Y194500D03*
D61*
X-75375Y194500D03*
D65*
X-58875Y194500D03*
D66*
X-51250Y194500D03*
D47*
X-41500Y194500D03*
X-31500Y194500D03*
D77*
X-115125Y194750D03*
D65*
X-100125Y194750D03*
X-88375Y194750D03*
D35*
X-75500Y194750D03*
D36*
X-54875Y194750D03*
D48*
X-41625Y194750D03*
X-31375Y194750D03*
D77*
X-114875Y195000D03*
D65*
X-100125Y195000D03*
X-88375Y195000D03*
D55*
X-75625Y195000D03*
D51*
X-55000Y195000D03*
D47*
X-41750Y195000D03*
X-31250Y195000D03*
D77*
X-114875Y195250D03*
D65*
X-100125Y195250D03*
X-88375Y195250D03*
D56*
X-75750Y195250D03*
D85*
X-55125Y195250D03*
D48*
X-41875Y195250D03*
X-31125Y195250D03*
D76*
X-114750Y195500D03*
D65*
X-100125Y195500D03*
X-88375Y195500D03*
D53*
X-75875Y195500D03*
D52*
X-55000Y195500D03*
D47*
X-42000Y195500D03*
X-31000Y195500D03*
D77*
X-114625Y195750D03*
D65*
X-100125Y195750D03*
X-88375Y195750D03*
D36*
X-76125Y195750D03*
D21*
X-55000Y195750D03*
D48*
X-42125Y195750D03*
X-30875Y195750D03*
D76*
X-114500Y196000D03*
D65*
X-100125Y196000D03*
X-88375Y196000D03*
D85*
X-76375Y196000D03*
D86*
X-55000Y196000D03*
D47*
X-42250Y196000D03*
D48*
X-30625Y196000D03*
D65*
X-114375Y196250D03*
X-100125Y196250D03*
X-88375Y196250D03*
D49*
X-76625Y196250D03*
D69*
X-55000Y196250D03*
D48*
X-42375Y196250D03*
X-30625Y196250D03*
D76*
X-114250Y196500D03*
D65*
X-100125Y196500D03*
X-88375Y196500D03*
D86*
X-77000Y196500D03*
D87*
X-54875Y196500D03*
D48*
X-42625Y196500D03*
X-30375Y196500D03*
D65*
X-114125Y196750D03*
D31*
X-100250Y196750D03*
D65*
X-88375Y196750D03*
D69*
X-77500Y196750D03*
D39*
X-54875Y196750D03*
D48*
X-42625Y196750D03*
X-30375Y196750D03*
D47*
X-114250Y197000D03*
D65*
X-80125Y197000D03*
D75*
X-54750Y197000D03*
D66*
X-114500Y197250D03*
D65*
X-80125Y197250D03*
D44*
X-54750Y197250D03*
D41*
X-114875Y197500D03*
D65*
X-80125Y197500D03*
D31*
X-54750Y197500D03*
D74*
X-115375Y197750D03*
D65*
X-80125Y197750D03*
D83*
X-54875Y197750D03*
D69*
X-116000Y198000D03*
D65*
X-80125Y198000D03*
D57*
X-118000Y198250D03*
D65*
X-80125Y198250D03*
D35*
X-117750Y198500D03*
D65*
X-80125Y198500D03*
D53*
X-117125Y198750D03*
D65*
X-80125Y198750D03*
D43*
X-119125Y199000D03*
D65*
X-112875Y199000D03*
X-80125Y199000D03*
D71*
X-119125Y199250D03*
D31*
X-112750Y199250D03*
D65*
X-80125Y199250D03*
D48*
X-112625Y199500D03*
D65*
X-80125Y199500D03*
D31*
X-112500Y199750D03*
D65*
X-80125Y199750D03*
D48*
X-112375Y200000D03*
D65*
X-80125Y200000D03*
D47*
X-112250Y200250D03*
D65*
X-80125Y200250D03*
D48*
X-112125Y200500D03*
D65*
X-80125Y200500D03*
D47*
X-112000Y200750D03*
D65*
X-80125Y200750D03*
D47*
X-112000Y201000D03*
D65*
X-80125Y201000D03*
D47*
X-111750Y201250D03*
D65*
X-80125Y201250D03*
D67*
X-111625Y201500D03*
D65*
X-80125Y201500D03*
D47*
X-111500Y201750D03*
D65*
X-80125Y201750D03*
D67*
X-111375Y202000D03*
D65*
X-80125Y202000D03*
D66*
X-111250Y202250D03*
D65*
X-80125Y202250D03*
D67*
X-111125Y202500D03*
D65*
X-80125Y202500D03*
D66*
X-111000Y202750D03*
D65*
X-80125Y202750D03*
D45*
X-111125Y203000D03*
D65*
X-80125Y203000D03*
D42*
X-111250Y203250D03*
D65*
X-80125Y203250D03*
D40*
X-111500Y203500D03*
D65*
X-80125Y203500D03*
D73*
X-111750Y203750D03*
D65*
X-80125Y203750D03*
D70*
X-112125Y204000D03*
D65*
X-80125Y204000D03*
D37*
X-112500Y204250D03*
D65*
X-80125Y204250D03*
D52*
X-113000Y204500D03*
D65*
X-80125Y204500D03*
D35*
X-113750Y204750D03*
D65*
X-80125Y204750D03*
D88*
X-117625Y205000D03*
D76*
X-80000Y205000D03*
D24*
X-117125Y205250D03*
D89*
X-116625Y205500D03*
D90*
X-116125Y205750D03*
D23*
X-115500Y206000D03*
D49*
X-118125Y206250D03*
D66*
X-109000Y206250D03*
D38*
X-118000Y206500D03*
D45*
X-108875Y206500D03*
X-117875Y206750D03*
X-108625Y206750D03*
X-108625Y207000D03*
D44*
X-108500Y207250D03*
D45*
X-108375Y207500D03*
D44*
X-108250Y207750D03*
X-108000Y208000D03*
X-108000Y208250D03*
D43*
X-107875Y208500D03*
X-107625Y208750D03*
X-107625Y209000D03*
D42*
X-107500Y209250D03*
D43*
X-107375Y209500D03*
D42*
X-107250Y209750D03*
D41*
X-107125Y210000D03*
D42*
X-107000Y210250D03*
D41*
X-106875Y210500D03*
D40*
X-107250Y210750D03*
D39*
X-107375Y211000D03*
D70*
X-107625Y211250D03*
D37*
X-108000Y211500D03*
D49*
X-108375Y211750D03*
D54*
X-108750Y212000D03*
D61*
X-109375Y212250D03*
D62*
X-110375Y212500D03*
D83*
X-134875Y212750D03*
D91*
X-111625Y212750D03*
D65*
X-132875Y213000D03*
D30*
X-113625Y213000D03*
D92*
X-119625Y213250D03*
D28*
X-119625Y213500D03*
D27*
X-119625Y213750D03*
D26*
X-119500Y214000D03*
D93*
X-119500Y214250D03*
D94*
X-119500Y214500D03*
D23*
X-119500Y214750D03*
D22*
X-119375Y215000D03*
D49*
X-119375Y215250D03*
D84*
X-119375Y215500D03*
D18*
X30000Y240000D02*
X30000Y253000D01*
X100000Y253000D01*
X100000Y240000D01*
X30000Y206000D02*
X30000Y193000D01*
X100000Y193000D01*
X100000Y206000D01*
D19*
X45500Y223000D03*
D13*
X-86000Y234000D02*
X-104000Y234000D01*
X-104000Y243000D01*
X-86000Y243000D01*
X-86000Y234000D01*
X-86000Y223000D02*
X-104000Y223000D01*
X-104000Y232000D01*
X-86000Y232000D01*
X-86000Y223000D01*
D95*
X-64360Y260750D02*
X-5640Y260750D01*
X-65400Y222250D02*
X-74000Y222250D01*
X-74000Y243870D01*
X4000Y243870D02*
X4000Y222250D01*
X-4600Y222250D01*
D13*
X-53500Y-152000D02*
X-53500Y-195000D01*
X-81500Y-195000D01*
X-81500Y-152000D01*
X-53500Y-152000D01*
X-22750Y178250D02*
X-11750Y178250D01*
X-22750Y178250D02*
X-22750Y155750D01*
X-11750Y155750D01*
X-11750Y178250D01*
M02*
