G04 EAGLE Gerber RS-274X export*
G75*
%MOMM*%
%FSLAX34Y34*%
%LPD*%
%AMOC8*
5,1,8,0,0,1.08239X$1,22.5*%
G01*
%ADD10C,0.200000*%
%ADD11C,0.152400*%
%ADD12C,0.100000*%
%ADD13R,0.350000X0.400000*%
%ADD14C,0.150000*%
%ADD15C,0.101600*%
%ADD16C,0.127000*%
%ADD17R,6.000000X0.300000*%


D10*
X10000Y278500D02*
X10000Y268250D01*
X10000Y258250D02*
X10000Y248000D01*
X10000Y238000D02*
X10000Y227750D01*
X10000Y217750D02*
X10000Y207500D01*
X10000Y197500D02*
X10000Y187250D01*
X10000Y177250D02*
X10000Y167000D01*
X10000Y157000D02*
X10000Y146750D01*
X10000Y136750D02*
X10000Y126500D01*
X10000Y116500D02*
X10000Y106250D01*
X10000Y96250D02*
X10000Y86000D01*
X10000Y76000D02*
X10000Y65750D01*
X10000Y55750D02*
X10000Y45500D01*
X10000Y35500D02*
X10000Y25250D01*
X10000Y15250D02*
X10000Y5000D01*
X10000Y-5000D02*
X10000Y-15250D01*
X10000Y-25250D02*
X10000Y-35500D01*
X10000Y-45500D02*
X10000Y-55750D01*
X10000Y-65750D02*
X10000Y-76000D01*
X10000Y-86000D02*
X10000Y-96250D01*
X10000Y-106250D02*
X10000Y-116500D01*
X10000Y-126500D02*
X10000Y-136750D01*
X10000Y-146750D02*
X10000Y-157000D01*
X10000Y-167000D02*
X10000Y-177250D01*
X10000Y-187250D02*
X10000Y-197500D01*
X10000Y-207500D02*
X10000Y-217750D01*
X10000Y-227750D02*
X10000Y-238000D01*
X10000Y-248000D02*
X10000Y-258250D01*
X10000Y-268250D02*
X10000Y-278500D01*
D11*
X-264750Y-28488D02*
X-264750Y-20012D01*
X-262396Y-20012D02*
X-267104Y-20012D01*
X-255754Y24721D02*
X-254342Y24721D01*
X-255754Y24721D02*
X-255754Y20012D01*
X-252929Y20012D01*
X-252844Y20014D01*
X-252760Y20020D01*
X-252676Y20029D01*
X-252593Y20042D01*
X-252510Y20059D01*
X-252428Y20080D01*
X-252347Y20104D01*
X-252267Y20132D01*
X-252189Y20164D01*
X-252112Y20199D01*
X-252036Y20237D01*
X-251963Y20279D01*
X-251891Y20324D01*
X-251822Y20372D01*
X-251754Y20423D01*
X-251689Y20477D01*
X-251627Y20534D01*
X-251567Y20594D01*
X-251510Y20656D01*
X-251456Y20721D01*
X-251405Y20789D01*
X-251357Y20858D01*
X-251312Y20930D01*
X-251270Y21003D01*
X-251232Y21079D01*
X-251197Y21156D01*
X-251165Y21234D01*
X-251137Y21314D01*
X-251113Y21395D01*
X-251092Y21477D01*
X-251075Y21560D01*
X-251062Y21643D01*
X-251053Y21727D01*
X-251047Y21811D01*
X-251045Y21896D01*
X-251046Y21896D02*
X-251046Y26604D01*
X-251045Y26604D02*
X-251047Y26689D01*
X-251053Y26773D01*
X-251062Y26857D01*
X-251075Y26940D01*
X-251092Y27023D01*
X-251113Y27105D01*
X-251137Y27186D01*
X-251165Y27266D01*
X-251197Y27344D01*
X-251232Y27421D01*
X-251270Y27497D01*
X-251312Y27570D01*
X-251357Y27642D01*
X-251405Y27711D01*
X-251456Y27779D01*
X-251510Y27844D01*
X-251567Y27906D01*
X-251627Y27966D01*
X-251689Y28023D01*
X-251754Y28077D01*
X-251822Y28128D01*
X-251891Y28176D01*
X-251963Y28221D01*
X-252036Y28263D01*
X-252112Y28301D01*
X-252189Y28336D01*
X-252267Y28368D01*
X-252347Y28396D01*
X-252428Y28420D01*
X-252510Y28441D01*
X-252593Y28458D01*
X-252676Y28471D01*
X-252760Y28480D01*
X-252844Y28486D01*
X-252929Y28488D01*
X-255754Y28488D01*
X-260646Y28488D02*
X-260646Y20012D01*
X-265354Y20012D02*
X-260646Y28488D01*
X-265354Y28488D02*
X-265354Y20012D01*
X-270246Y20012D02*
X-270246Y28488D01*
X-272600Y28488D01*
X-272695Y28486D01*
X-272789Y28480D01*
X-272884Y28471D01*
X-272978Y28458D01*
X-273071Y28440D01*
X-273163Y28420D01*
X-273255Y28395D01*
X-273345Y28367D01*
X-273435Y28335D01*
X-273523Y28300D01*
X-273609Y28261D01*
X-273694Y28218D01*
X-273777Y28173D01*
X-273858Y28124D01*
X-273937Y28071D01*
X-274014Y28016D01*
X-274089Y27957D01*
X-274161Y27896D01*
X-274231Y27832D01*
X-274298Y27765D01*
X-274362Y27695D01*
X-274423Y27623D01*
X-274482Y27548D01*
X-274537Y27471D01*
X-274590Y27392D01*
X-274639Y27311D01*
X-274684Y27228D01*
X-274727Y27143D01*
X-274766Y27057D01*
X-274801Y26969D01*
X-274833Y26879D01*
X-274861Y26789D01*
X-274886Y26697D01*
X-274906Y26605D01*
X-274924Y26512D01*
X-274937Y26418D01*
X-274946Y26323D01*
X-274952Y26229D01*
X-274954Y26134D01*
X-274954Y22366D01*
X-274952Y22271D01*
X-274946Y22177D01*
X-274937Y22082D01*
X-274924Y21988D01*
X-274906Y21895D01*
X-274886Y21803D01*
X-274861Y21711D01*
X-274833Y21621D01*
X-274801Y21531D01*
X-274766Y21443D01*
X-274727Y21357D01*
X-274684Y21272D01*
X-274639Y21189D01*
X-274590Y21108D01*
X-274537Y21029D01*
X-274482Y20952D01*
X-274423Y20877D01*
X-274362Y20805D01*
X-274298Y20735D01*
X-274231Y20668D01*
X-274161Y20604D01*
X-274089Y20543D01*
X-274014Y20484D01*
X-273937Y20429D01*
X-273858Y20376D01*
X-273777Y20327D01*
X-273694Y20282D01*
X-273609Y20239D01*
X-273523Y20200D01*
X-273435Y20165D01*
X-273345Y20133D01*
X-273255Y20105D01*
X-273163Y20080D01*
X-273071Y20060D01*
X-272978Y20042D01*
X-272884Y20029D01*
X-272789Y20020D01*
X-272695Y20014D01*
X-272600Y20012D01*
X-270246Y20012D01*
D12*
X-71500Y152750D02*
X-71500Y170750D01*
X-71500Y152750D02*
X-62500Y152750D01*
X-62500Y170750D01*
X-71500Y170750D01*
X-24000Y-35000D02*
X-24000Y-53000D01*
X-24000Y-35000D02*
X-33000Y-35000D01*
X-33000Y-53000D01*
X-24000Y-53000D01*
X-22000Y-24000D02*
X-22000Y-6000D01*
X-22000Y-24000D02*
X-13000Y-24000D01*
X-13000Y-6000D01*
X-22000Y-6000D01*
X-13000Y-35000D02*
X-13000Y-53000D01*
X-13000Y-35000D02*
X-22000Y-35000D01*
X-22000Y-53000D01*
X-13000Y-53000D01*
X-33000Y-24000D02*
X-33000Y-6000D01*
X-33000Y-24000D02*
X-24000Y-24000D01*
X-24000Y-6000D01*
X-33000Y-6000D01*
X-21250Y10500D02*
X-21250Y28500D01*
X-21250Y10500D02*
X-12250Y10500D01*
X-12250Y28500D01*
X-21250Y28500D01*
X-24250Y50500D02*
X-24250Y68500D01*
X-24250Y50500D02*
X-15250Y50500D01*
X-15250Y68500D01*
X-24250Y68500D01*
X-12250Y48500D02*
X-12250Y30500D01*
X-12250Y48500D02*
X-21250Y48500D01*
X-21250Y30500D01*
X-12250Y30500D01*
X-15250Y71500D02*
X-15250Y89500D01*
X-24250Y89500D01*
X-24250Y71500D01*
X-15250Y71500D01*
X-185000Y-92000D02*
X-185000Y-122000D01*
X-185000Y-92000D02*
X-155000Y-92000D01*
X-155000Y-120000D01*
X-155000Y-121000D02*
X-155000Y-122000D01*
X-157000Y-122000D01*
X-185000Y-122000D01*
X-157000Y-122000D02*
X-157000Y-121000D01*
X-157000Y-120000D01*
X-155000Y-120000D01*
X-155000Y-121000D01*
X-157000Y-121000D01*
D13*
X-156250Y-120500D03*
D12*
X-208250Y-88000D02*
X-208250Y-70000D01*
X-217250Y-70000D01*
X-217250Y-88000D01*
X-208250Y-88000D01*
D14*
X-42500Y-93250D02*
X-42500Y-30750D01*
X-69500Y-20750D02*
X-85000Y-20750D01*
X-85000Y-38250D01*
X-85000Y-85750D02*
X-85000Y-103250D01*
X-69500Y-103250D01*
X-102500Y-93250D02*
X-102500Y-30750D01*
X-129500Y-20750D02*
X-145000Y-20750D01*
X-145000Y-38250D01*
X-145000Y-85750D02*
X-145000Y-103250D01*
X-129500Y-103250D01*
D12*
X-218000Y-92000D02*
X-218000Y-122000D01*
X-218000Y-92000D02*
X-188000Y-92000D01*
X-188000Y-120000D01*
X-188000Y-121000D02*
X-188000Y-122000D01*
X-190000Y-122000D01*
X-218000Y-122000D01*
X-190000Y-122000D02*
X-190000Y-121000D01*
X-190000Y-120000D01*
X-188000Y-120000D01*
X-188000Y-121000D01*
X-190000Y-121000D01*
D13*
X-189250Y-120500D03*
D12*
X-175250Y-88250D02*
X-175250Y-70250D01*
X-184250Y-70250D01*
X-184250Y-88250D01*
X-175250Y-88250D01*
D14*
X-42500Y1750D02*
X-42500Y64250D01*
X-69500Y74250D02*
X-85000Y74250D01*
X-85000Y56750D01*
X-85000Y9250D02*
X-85000Y-8250D01*
X-69500Y-8250D01*
X-102500Y1750D02*
X-102500Y64250D01*
X-129500Y74250D02*
X-145000Y74250D01*
X-145000Y56750D01*
X-145000Y9250D02*
X-145000Y-8250D01*
X-129500Y-8250D01*
D12*
X-96250Y-201750D02*
X-67250Y-201750D01*
X-96250Y-201750D02*
X-96250Y-152250D01*
X-67250Y-152250D01*
X-67250Y-201750D01*
D14*
X-66250Y-203000D02*
X-71250Y-203000D01*
X-66250Y-203000D02*
X-66250Y-198000D01*
D12*
X-99000Y-201750D02*
X-128000Y-201750D01*
X-128000Y-152250D01*
X-99000Y-152250D01*
X-99000Y-201750D01*
D14*
X-98000Y-203000D02*
X-103000Y-203000D01*
X-98000Y-203000D02*
X-98000Y-198000D01*
D12*
X-109250Y-213000D02*
X-127250Y-213000D01*
X-109250Y-213000D02*
X-109250Y-204000D01*
X-127250Y-204000D01*
X-127250Y-213000D01*
X-96000Y-213000D02*
X-78000Y-213000D01*
X-78000Y-204000D01*
X-96000Y-204000D01*
X-96000Y-213000D01*
X-110500Y-121000D02*
X-110500Y-110000D01*
X-110500Y-121000D02*
X-133000Y-121000D01*
X-133000Y-110000D01*
X-110500Y-110000D01*
X-110500Y-123000D02*
X-110500Y-134000D01*
X-133000Y-134000D01*
X-133000Y-123000D01*
X-110500Y-123000D01*
X-108250Y-121000D02*
X-108250Y-110000D01*
X-85750Y-110000D01*
X-85750Y-121000D01*
X-108250Y-121000D01*
X-108250Y-123000D02*
X-108250Y-134000D01*
X-108250Y-123000D02*
X-85750Y-123000D01*
X-85750Y-134000D01*
X-108250Y-134000D01*
X-108250Y-136000D02*
X-108250Y-147000D01*
X-108250Y-136000D02*
X-85750Y-136000D01*
X-85750Y-147000D01*
X-108250Y-147000D01*
X-110500Y-147000D02*
X-110500Y-136000D01*
X-110500Y-147000D02*
X-133000Y-147000D01*
X-133000Y-136000D01*
X-110500Y-136000D01*
D11*
X-183250Y-40750D02*
X-190250Y-40750D01*
X-209250Y-40750D01*
X-190250Y-56750D02*
X-183250Y-56750D01*
X-190250Y-56750D02*
X-209250Y-56750D01*
X-190250Y-56750D02*
X-190250Y-40750D01*
X-183250Y-40750D02*
X-183250Y-41988D01*
X-183250Y-55512D02*
X-183250Y-56750D01*
X-209250Y-56750D02*
X-209250Y-55512D01*
X-209250Y-41988D02*
X-209250Y-40750D01*
D12*
X-177500Y-4000D02*
X-177500Y14000D01*
X-177500Y-4000D02*
X-168500Y-4000D01*
X-168500Y14000D01*
X-177500Y14000D01*
X-177500Y16250D02*
X-177500Y34250D01*
X-177500Y16250D02*
X-168500Y16250D01*
X-168500Y34250D01*
X-177500Y34250D01*
D11*
X-82000Y227500D02*
X-63000Y227500D01*
X-82000Y227500D02*
X-82000Y200500D01*
X-63000Y200500D01*
X-63000Y227500D01*
X-61000Y226500D02*
X-60998Y226563D01*
X-60992Y226625D01*
X-60982Y226687D01*
X-60969Y226749D01*
X-60951Y226809D01*
X-60930Y226868D01*
X-60905Y226926D01*
X-60876Y226982D01*
X-60844Y227036D01*
X-60809Y227088D01*
X-60771Y227137D01*
X-60729Y227185D01*
X-60685Y227229D01*
X-60637Y227271D01*
X-60588Y227309D01*
X-60536Y227344D01*
X-60482Y227376D01*
X-60426Y227405D01*
X-60368Y227430D01*
X-60309Y227451D01*
X-60249Y227469D01*
X-60187Y227482D01*
X-60125Y227492D01*
X-60063Y227498D01*
X-60000Y227500D01*
X-59937Y227498D01*
X-59875Y227492D01*
X-59813Y227482D01*
X-59751Y227469D01*
X-59691Y227451D01*
X-59632Y227430D01*
X-59574Y227405D01*
X-59518Y227376D01*
X-59464Y227344D01*
X-59412Y227309D01*
X-59363Y227271D01*
X-59315Y227229D01*
X-59271Y227185D01*
X-59229Y227137D01*
X-59191Y227088D01*
X-59156Y227036D01*
X-59124Y226982D01*
X-59095Y226926D01*
X-59070Y226868D01*
X-59049Y226809D01*
X-59031Y226749D01*
X-59018Y226687D01*
X-59008Y226625D01*
X-59002Y226563D01*
X-59000Y226500D01*
X-59002Y226437D01*
X-59008Y226375D01*
X-59018Y226313D01*
X-59031Y226251D01*
X-59049Y226191D01*
X-59070Y226132D01*
X-59095Y226074D01*
X-59124Y226018D01*
X-59156Y225964D01*
X-59191Y225912D01*
X-59229Y225863D01*
X-59271Y225815D01*
X-59315Y225771D01*
X-59363Y225729D01*
X-59412Y225691D01*
X-59464Y225656D01*
X-59518Y225624D01*
X-59574Y225595D01*
X-59632Y225570D01*
X-59691Y225549D01*
X-59751Y225531D01*
X-59813Y225518D01*
X-59875Y225508D01*
X-59937Y225502D01*
X-60000Y225500D01*
X-60063Y225502D01*
X-60125Y225508D01*
X-60187Y225518D01*
X-60249Y225531D01*
X-60309Y225549D01*
X-60368Y225570D01*
X-60426Y225595D01*
X-60482Y225624D01*
X-60536Y225656D01*
X-60588Y225691D01*
X-60637Y225729D01*
X-60685Y225771D01*
X-60729Y225815D01*
X-60771Y225863D01*
X-60809Y225912D01*
X-60844Y225964D01*
X-60876Y226018D01*
X-60905Y226074D01*
X-60930Y226132D01*
X-60951Y226191D01*
X-60969Y226251D01*
X-60982Y226313D01*
X-60992Y226375D01*
X-60998Y226437D01*
X-61000Y226500D01*
D14*
X-35000Y42500D02*
X-35000Y23500D01*
X-25000Y23500D01*
X-25000Y42500D01*
X-35000Y42500D01*
X-35000Y-57000D02*
X-16000Y-57000D01*
X-35000Y-57000D02*
X-35000Y-67000D01*
X-16000Y-67000D01*
X-16000Y-57000D01*
D12*
X-73000Y180500D02*
X-73000Y198500D01*
X-73000Y180500D02*
X-64000Y180500D01*
X-64000Y198500D01*
X-73000Y198500D01*
X-95000Y198750D02*
X-95000Y180750D01*
X-86000Y180750D01*
X-86000Y198750D01*
X-95000Y198750D01*
X-84000Y198500D02*
X-84000Y180500D01*
X-75000Y180500D01*
X-75000Y198500D01*
X-84000Y198500D01*
X-34500Y-78000D02*
X-16500Y-78000D01*
X-16500Y-69000D01*
X-34500Y-69000D01*
X-34500Y-78000D01*
X-34500Y44500D02*
X-34500Y62500D01*
X-34500Y44500D02*
X-25500Y44500D01*
X-25500Y62500D01*
X-34500Y62500D01*
D15*
X92352Y-164508D02*
X92352Y-172297D01*
X96246Y-168403D02*
X88457Y-168403D01*
D12*
X-181000Y-37000D02*
X-181000Y37000D01*
X-214500Y37000D01*
X-214500Y-37000D01*
X-181000Y-37000D01*
D14*
X-164250Y59500D02*
X-163250Y59500D01*
X-163250Y45500D01*
X-164250Y45500D01*
X-176250Y45500D02*
X-184250Y45500D01*
X-192250Y45500D02*
X-193250Y45500D01*
X-193250Y59500D01*
X-192250Y59500D01*
X-184250Y59500D02*
X-172250Y59500D01*
D15*
X-173333Y55492D02*
X-173333Y49508D01*
X-173333Y55492D02*
X-174995Y55492D01*
X-175074Y55490D01*
X-175153Y55484D01*
X-175232Y55475D01*
X-175310Y55462D01*
X-175387Y55445D01*
X-175463Y55425D01*
X-175539Y55401D01*
X-175613Y55373D01*
X-175685Y55342D01*
X-175757Y55307D01*
X-175826Y55269D01*
X-175894Y55228D01*
X-175959Y55184D01*
X-176022Y55136D01*
X-176083Y55086D01*
X-176142Y55033D01*
X-176198Y54977D01*
X-176251Y54918D01*
X-176301Y54857D01*
X-176349Y54794D01*
X-176393Y54729D01*
X-176434Y54661D01*
X-176472Y54592D01*
X-176507Y54520D01*
X-176538Y54448D01*
X-176566Y54374D01*
X-176590Y54298D01*
X-176610Y54222D01*
X-176627Y54145D01*
X-176640Y54066D01*
X-176649Y53988D01*
X-176655Y53909D01*
X-176657Y53830D01*
X-176657Y51170D01*
X-176655Y51091D01*
X-176649Y51012D01*
X-176640Y50933D01*
X-176627Y50855D01*
X-176610Y50778D01*
X-176590Y50702D01*
X-176566Y50626D01*
X-176538Y50552D01*
X-176507Y50480D01*
X-176472Y50408D01*
X-176434Y50339D01*
X-176393Y50271D01*
X-176349Y50206D01*
X-176301Y50143D01*
X-176251Y50082D01*
X-176198Y50023D01*
X-176142Y49967D01*
X-176083Y49914D01*
X-176022Y49864D01*
X-175959Y49816D01*
X-175894Y49772D01*
X-175826Y49731D01*
X-175757Y49693D01*
X-175685Y49658D01*
X-175613Y49627D01*
X-175539Y49599D01*
X-175463Y49575D01*
X-175387Y49555D01*
X-175310Y49538D01*
X-175232Y49525D01*
X-175153Y49516D01*
X-175074Y49510D01*
X-174995Y49508D01*
X-173333Y49508D01*
X-179843Y50838D02*
X-181173Y55492D01*
X-179843Y50838D02*
X-183167Y50838D01*
X-182170Y52168D02*
X-182170Y49508D01*
D16*
X-13000Y-235000D02*
X0Y-235000D01*
X0Y-165000D01*
X-13000Y-165000D01*
X-47000Y-235000D02*
X-60000Y-235000D01*
X-60000Y-165000D01*
X-47000Y-165000D01*
D17*
X-30000Y-219500D03*
D16*
X-47000Y235000D02*
X-60000Y235000D01*
X-60000Y165000D01*
X-47000Y165000D01*
X-13000Y235000D02*
X0Y235000D01*
X0Y165000D01*
X-13000Y165000D01*
D17*
X-30000Y219500D03*
D12*
X-202250Y-68000D02*
X-220250Y-68000D01*
X-202250Y-68000D02*
X-202250Y-59000D01*
X-220250Y-59000D01*
X-220250Y-68000D01*
X-191000Y67000D02*
X-191000Y130000D01*
X-191000Y67000D02*
X-153000Y67000D01*
X-153000Y130000D01*
X-191000Y130000D01*
X-110750Y142500D02*
X-110750Y160500D01*
X-110750Y142500D02*
X-101750Y142500D01*
X-101750Y160500D01*
X-110750Y160500D01*
D14*
X-131250Y82500D02*
X-68750Y82500D01*
X-58750Y109500D02*
X-58750Y125000D01*
X-76250Y125000D01*
X-123750Y125000D02*
X-141250Y125000D01*
X-141250Y109500D01*
D12*
X-98000Y142500D02*
X-98000Y160500D01*
X-98000Y142500D02*
X-89000Y142500D01*
X-89000Y160500D01*
X-98000Y160500D01*
X-117000Y183750D02*
X-118000Y183750D01*
X-116000Y183750D02*
X-115000Y183750D01*
X-100000Y183750D01*
X-100000Y173750D01*
X-118000Y173750D01*
X-118000Y180750D01*
X-118000Y181750D02*
X-118000Y182750D01*
X-118000Y183750D01*
X-115000Y183750D02*
X-118000Y180750D01*
X-118000Y181750D01*
X-116000Y183750D01*
X-117000Y183750D01*
X-118000Y182750D01*
D14*
X-116500Y217000D02*
X-135500Y217000D01*
X-116500Y217000D02*
X-116500Y227000D01*
X-135500Y227000D01*
X-135500Y217000D01*
X-107500Y227000D02*
X-88500Y227000D01*
X-107500Y227000D02*
X-107500Y217000D01*
X-88500Y217000D01*
X-88500Y227000D01*
D12*
X-204500Y40500D02*
X-222500Y40500D01*
X-204500Y40500D02*
X-204500Y49500D01*
X-222500Y49500D01*
X-222500Y40500D01*
M02*
