G04 EAGLE Gerber RS-274X export*
G75*
%MOMM*%
%FSLAX34Y34*%
%LPD*%
%AMOC8*
5,1,8,0,0,1.08239X$1,22.5*%
G01*
%ADD10R,0.549200X0.449200*%
%ADD11R,2.399200X1.599200*%
%ADD12R,0.249200X0.474200*%
%ADD13R,1.100000X0.650000*%
%ADD14C,0.446122*%
%ADD15C,0.247138*%
%ADD16R,0.584200X1.219200*%
%ADD17R,0.449200X0.549200*%
%ADD18R,0.549200X0.849200*%
%ADD19R,1.549200X0.749200*%
%ADD20R,0.599200X0.799200*%
%ADD21R,1.449200X0.399200*%
%ADD22C,0.749200*%
%ADD23R,0.849200X0.549200*%
%ADD24R,3.049200X1.549200*%
%ADD25R,3.399200X1.849200*%
%ADD26R,0.349200X0.549200*%


D10*
X-67000Y166750D03*
X-67000Y156750D03*
X-28500Y-49000D03*
X-28500Y-39000D03*
X-17500Y-10000D03*
X-17500Y-20000D03*
X-17500Y-49000D03*
X-17500Y-39000D03*
X-28500Y-10000D03*
X-28500Y-20000D03*
X-16750Y24500D03*
X-16750Y14500D03*
X-19750Y64500D03*
X-19750Y54500D03*
X-16750Y34500D03*
X-16750Y44500D03*
X-19750Y75500D03*
X-19750Y85500D03*
D11*
X-170000Y-107000D03*
D12*
X-166750Y-121000D03*
X-173250Y-121000D03*
X-160250Y-121000D03*
X-179750Y-121000D03*
X-166750Y-93000D03*
X-173250Y-93000D03*
X-160250Y-93000D03*
X-179750Y-93000D03*
D13*
X-170000Y-107000D03*
D10*
X-212750Y-84000D03*
X-212750Y-74000D03*
D14*
X-65016Y-21234D02*
X-41984Y-21234D01*
X-41984Y-26266D01*
X-65016Y-26266D01*
X-65016Y-21234D01*
X-65016Y-22028D02*
X-41984Y-22028D01*
X-41984Y-97734D02*
X-65016Y-97734D01*
X-41984Y-97734D02*
X-41984Y-102766D01*
X-65016Y-102766D01*
X-65016Y-97734D01*
X-65016Y-98528D02*
X-41984Y-98528D01*
D15*
X-94011Y-44761D02*
X-94011Y-41739D01*
X-79989Y-41739D01*
X-79989Y-44761D01*
X-94011Y-44761D01*
X-94011Y-42414D02*
X-79989Y-42414D01*
X-94011Y-54239D02*
X-94011Y-57261D01*
X-94011Y-54239D02*
X-79989Y-54239D01*
X-79989Y-57261D01*
X-94011Y-57261D01*
X-94011Y-54914D02*
X-79989Y-54914D01*
X-94011Y-66739D02*
X-94011Y-69761D01*
X-94011Y-66739D02*
X-79989Y-66739D01*
X-79989Y-69761D01*
X-94011Y-69761D01*
X-94011Y-67414D02*
X-79989Y-67414D01*
X-94011Y-79239D02*
X-94011Y-82261D01*
X-94011Y-79239D02*
X-79989Y-79239D01*
X-79989Y-82261D01*
X-94011Y-82261D01*
X-94011Y-79914D02*
X-79989Y-79914D01*
D14*
X-101984Y-21234D02*
X-125016Y-21234D01*
X-101984Y-21234D02*
X-101984Y-26266D01*
X-125016Y-26266D01*
X-125016Y-21234D01*
X-125016Y-22028D02*
X-101984Y-22028D01*
X-101984Y-97734D02*
X-125016Y-97734D01*
X-101984Y-97734D02*
X-101984Y-102766D01*
X-125016Y-102766D01*
X-125016Y-97734D01*
X-125016Y-98528D02*
X-101984Y-98528D01*
D15*
X-154011Y-44761D02*
X-154011Y-41739D01*
X-139989Y-41739D01*
X-139989Y-44761D01*
X-154011Y-44761D01*
X-154011Y-42414D02*
X-139989Y-42414D01*
X-154011Y-54239D02*
X-154011Y-57261D01*
X-154011Y-54239D02*
X-139989Y-54239D01*
X-139989Y-57261D01*
X-154011Y-57261D01*
X-154011Y-54914D02*
X-139989Y-54914D01*
X-154011Y-66739D02*
X-154011Y-69761D01*
X-154011Y-66739D02*
X-139989Y-66739D01*
X-139989Y-69761D01*
X-154011Y-69761D01*
X-154011Y-67414D02*
X-139989Y-67414D01*
X-154011Y-79239D02*
X-154011Y-82261D01*
X-154011Y-79239D02*
X-139989Y-79239D01*
X-139989Y-82261D01*
X-154011Y-82261D01*
X-154011Y-79914D02*
X-139989Y-79914D01*
D11*
X-203000Y-107000D03*
D12*
X-199750Y-121000D03*
X-206250Y-121000D03*
X-193250Y-121000D03*
X-212750Y-121000D03*
X-199750Y-93000D03*
X-206250Y-93000D03*
X-193250Y-93000D03*
X-212750Y-93000D03*
D13*
X-203000Y-107000D03*
D10*
X-179750Y-84250D03*
X-179750Y-74250D03*
D14*
X-65016Y73766D02*
X-41984Y73766D01*
X-41984Y68734D01*
X-65016Y68734D01*
X-65016Y73766D01*
X-65016Y72972D02*
X-41984Y72972D01*
X-41984Y-2734D02*
X-65016Y-2734D01*
X-41984Y-2734D02*
X-41984Y-7766D01*
X-65016Y-7766D01*
X-65016Y-2734D01*
X-65016Y-3528D02*
X-41984Y-3528D01*
D15*
X-94011Y50239D02*
X-94011Y53261D01*
X-79989Y53261D01*
X-79989Y50239D01*
X-94011Y50239D01*
X-94011Y52586D02*
X-79989Y52586D01*
X-94011Y40761D02*
X-94011Y37739D01*
X-94011Y40761D02*
X-79989Y40761D01*
X-79989Y37739D01*
X-94011Y37739D01*
X-94011Y40086D02*
X-79989Y40086D01*
X-94011Y28261D02*
X-94011Y25239D01*
X-94011Y28261D02*
X-79989Y28261D01*
X-79989Y25239D01*
X-94011Y25239D01*
X-94011Y27586D02*
X-79989Y27586D01*
X-94011Y15761D02*
X-94011Y12739D01*
X-94011Y15761D02*
X-79989Y15761D01*
X-79989Y12739D01*
X-94011Y12739D01*
X-94011Y15086D02*
X-79989Y15086D01*
D14*
X-101984Y73766D02*
X-125016Y73766D01*
X-101984Y73766D02*
X-101984Y68734D01*
X-125016Y68734D01*
X-125016Y73766D01*
X-125016Y72972D02*
X-101984Y72972D01*
X-101984Y-2734D02*
X-125016Y-2734D01*
X-101984Y-2734D02*
X-101984Y-7766D01*
X-125016Y-7766D01*
X-125016Y-2734D01*
X-125016Y-3528D02*
X-101984Y-3528D01*
D15*
X-154011Y50239D02*
X-154011Y53261D01*
X-139989Y53261D01*
X-139989Y50239D01*
X-154011Y50239D01*
X-154011Y52586D02*
X-139989Y52586D01*
X-154011Y40761D02*
X-154011Y37739D01*
X-154011Y40761D02*
X-139989Y40761D01*
X-139989Y37739D01*
X-154011Y37739D01*
X-154011Y40086D02*
X-139989Y40086D01*
X-154011Y28261D02*
X-154011Y25239D01*
X-154011Y28261D02*
X-139989Y28261D01*
X-139989Y25239D01*
X-154011Y25239D01*
X-154011Y27586D02*
X-139989Y27586D01*
X-154011Y15761D02*
X-154011Y12739D01*
X-154011Y15761D02*
X-139989Y15761D01*
X-139989Y12739D01*
X-154011Y12739D01*
X-154011Y15086D02*
X-139989Y15086D01*
D16*
X-81750Y-193500D03*
X-81750Y-160500D03*
X-72250Y-193500D03*
X-72250Y-160500D03*
X-91250Y-193500D03*
X-91250Y-160500D03*
X-113500Y-193500D03*
X-113500Y-160500D03*
X-104000Y-193500D03*
X-104000Y-160500D03*
X-123000Y-193500D03*
X-123000Y-160500D03*
D17*
X-123250Y-208500D03*
X-113250Y-208500D03*
X-92000Y-208500D03*
X-82000Y-208500D03*
D18*
X-114500Y-115500D03*
X-129000Y-115500D03*
X-114500Y-128500D03*
X-129000Y-128500D03*
X-104250Y-115500D03*
X-89750Y-115500D03*
X-104250Y-128500D03*
X-89750Y-128500D03*
X-104250Y-141500D03*
X-89750Y-141500D03*
X-114500Y-141500D03*
X-129000Y-141500D03*
D19*
X-179250Y-48750D03*
X-213250Y-48750D03*
D10*
X-173000Y10000D03*
X-173000Y0D03*
X-173000Y30250D03*
X-173000Y20250D03*
D20*
X-68250Y221250D03*
X-76750Y221250D03*
X-68250Y206750D03*
X-76750Y206750D03*
D10*
X-30000Y38000D03*
X-30000Y28000D03*
D17*
X-20500Y-62000D03*
X-30500Y-62000D03*
D10*
X-68500Y194500D03*
X-68500Y184500D03*
X-90500Y194750D03*
X-90500Y184750D03*
X-79500Y194500D03*
X-79500Y184500D03*
D17*
X-30500Y-73500D03*
X-20500Y-73500D03*
D10*
X-30000Y58500D03*
X-30000Y48500D03*
D21*
X-189500Y0D03*
X-189500Y-6500D03*
X-189500Y-13000D03*
X-189500Y6500D03*
X-189500Y13000D03*
D22*
X-187000Y24000D02*
X-187000Y32000D01*
D17*
X-168250Y62000D03*
D23*
X-170250Y43000D03*
D17*
X-188250Y43000D03*
X-188250Y62000D03*
D24*
X-30000Y-230500D03*
X-30000Y-169500D03*
X-30000Y230500D03*
X-30000Y169500D03*
D17*
X-216250Y-63500D03*
X-206250Y-63500D03*
D25*
X-172000Y118500D03*
X-172000Y78500D03*
D10*
X-106250Y156500D03*
X-106250Y146500D03*
D14*
X-59234Y105016D02*
X-59234Y81984D01*
X-64266Y81984D01*
X-64266Y105016D01*
X-59234Y105016D01*
X-59234Y86222D02*
X-64266Y86222D01*
X-64266Y90460D02*
X-59234Y90460D01*
X-59234Y94698D02*
X-64266Y94698D01*
X-64266Y98936D02*
X-59234Y98936D01*
X-59234Y103174D02*
X-64266Y103174D01*
X-135734Y105016D02*
X-135734Y81984D01*
X-140766Y81984D01*
X-140766Y105016D01*
X-135734Y105016D01*
X-135734Y86222D02*
X-140766Y86222D01*
X-140766Y90460D02*
X-135734Y90460D01*
X-135734Y94698D02*
X-140766Y94698D01*
X-140766Y98936D02*
X-135734Y98936D01*
X-135734Y103174D02*
X-140766Y103174D01*
D15*
X-82761Y134011D02*
X-79739Y134011D01*
X-79739Y119989D01*
X-82761Y119989D01*
X-82761Y134011D01*
X-82761Y122336D02*
X-79739Y122336D01*
X-79739Y124683D02*
X-82761Y124683D01*
X-82761Y127030D02*
X-79739Y127030D01*
X-79739Y129377D02*
X-82761Y129377D01*
X-82761Y131724D02*
X-79739Y131724D01*
X-92239Y134011D02*
X-95261Y134011D01*
X-92239Y134011D02*
X-92239Y119989D01*
X-95261Y119989D01*
X-95261Y134011D01*
X-95261Y122336D02*
X-92239Y122336D01*
X-92239Y124683D02*
X-95261Y124683D01*
X-95261Y127030D02*
X-92239Y127030D01*
X-92239Y129377D02*
X-95261Y129377D01*
X-95261Y131724D02*
X-92239Y131724D01*
X-104739Y134011D02*
X-107761Y134011D01*
X-104739Y134011D02*
X-104739Y119989D01*
X-107761Y119989D01*
X-107761Y134011D01*
X-107761Y122336D02*
X-104739Y122336D01*
X-104739Y124683D02*
X-107761Y124683D01*
X-107761Y127030D02*
X-104739Y127030D01*
X-104739Y129377D02*
X-107761Y129377D01*
X-107761Y131724D02*
X-104739Y131724D01*
X-117239Y134011D02*
X-120261Y134011D01*
X-117239Y134011D02*
X-117239Y119989D01*
X-120261Y119989D01*
X-120261Y134011D01*
X-120261Y122336D02*
X-117239Y122336D01*
X-117239Y124683D02*
X-120261Y124683D01*
X-120261Y127030D02*
X-117239Y127030D01*
X-117239Y129377D02*
X-120261Y129377D01*
X-120261Y131724D02*
X-117239Y131724D01*
D10*
X-93500Y156500D03*
X-93500Y146500D03*
D26*
X-109000Y188250D03*
X-109000Y169250D03*
D17*
X-116500Y188250D03*
X-101500Y188250D03*
X-101500Y169250D03*
X-116500Y169250D03*
X-131000Y222000D03*
X-121000Y222000D03*
X-93000Y222000D03*
X-103000Y222000D03*
X-218500Y45000D03*
X-208500Y45000D03*
M02*
