G04 EAGLE Gerber RS-274X export*
G75*
%MOMM*%
%FSLAX34Y34*%
%LPD*%
%AMOC8*
5,1,8,0,0,1.08239X$1,22.5*%
G01*
%ADD10C,3.050800*%
%ADD11R,0.650800X0.550800*%
%ADD12C,3.566800*%
%ADD13R,2.500800X1.700800*%
%ADD14R,0.350800X0.575800*%
%ADD15C,0.546416*%
%ADD16C,0.351431*%
%ADD17R,0.685800X1.320800*%
%ADD18R,0.550800X0.650800*%
%ADD19R,0.650800X0.950800*%
%ADD20R,1.650800X0.850800*%
%ADD21R,0.700800X0.900800*%
%ADD22C,1.450800*%
%ADD23C,1.400800*%
%ADD24R,1.550800X0.500800*%
%ADD25C,0.850800*%
%ADD26R,0.950800X0.650800*%
%ADD27C,2.184400*%
%ADD28C,1.066800*%
%ADD29R,3.150800X1.650800*%
%ADD30R,3.500800X1.950800*%
%ADD31R,0.450800X0.650800*%


D10*
X118000Y140000D03*
D11*
X-67000Y166750D03*
X-67000Y156750D03*
X-28500Y-49000D03*
X-28500Y-39000D03*
X-17500Y-10000D03*
X-17500Y-20000D03*
X-17500Y-49000D03*
X-17500Y-39000D03*
X-28500Y-10000D03*
X-28500Y-20000D03*
D10*
X118000Y-140000D03*
X116000Y0D03*
D11*
X-16750Y24500D03*
X-16750Y14500D03*
X-19750Y64500D03*
X-19750Y54500D03*
X-16750Y34500D03*
X-16750Y44500D03*
X-19750Y75500D03*
X-19750Y85500D03*
D12*
X48250Y0D03*
X191500Y0D03*
D13*
X-170000Y-107000D03*
D14*
X-166750Y-121000D03*
X-173250Y-121000D03*
X-160250Y-121000D03*
X-179750Y-121000D03*
X-166750Y-93000D03*
X-173250Y-93000D03*
X-160250Y-93000D03*
X-179750Y-93000D03*
D11*
X-212750Y-84000D03*
X-212750Y-74000D03*
D15*
X-65022Y-21228D02*
X-41978Y-21228D01*
X-41978Y-26272D01*
X-65022Y-26272D01*
X-65022Y-21228D01*
X-65022Y-97728D02*
X-41978Y-97728D01*
X-41978Y-102772D01*
X-65022Y-102772D01*
X-65022Y-97728D01*
D16*
X-93997Y-44747D02*
X-93997Y-41753D01*
X-80003Y-41753D01*
X-80003Y-44747D01*
X-93997Y-44747D01*
X-93997Y-54253D02*
X-93997Y-57247D01*
X-93997Y-54253D02*
X-80003Y-54253D01*
X-80003Y-57247D01*
X-93997Y-57247D01*
X-93997Y-66753D02*
X-93997Y-69747D01*
X-93997Y-66753D02*
X-80003Y-66753D01*
X-80003Y-69747D01*
X-93997Y-69747D01*
X-93997Y-79253D02*
X-93997Y-82247D01*
X-93997Y-79253D02*
X-80003Y-79253D01*
X-80003Y-82247D01*
X-93997Y-82247D01*
D15*
X-101978Y-21228D02*
X-125022Y-21228D01*
X-101978Y-21228D02*
X-101978Y-26272D01*
X-125022Y-26272D01*
X-125022Y-21228D01*
X-125022Y-97728D02*
X-101978Y-97728D01*
X-101978Y-102772D01*
X-125022Y-102772D01*
X-125022Y-97728D01*
D16*
X-153997Y-44747D02*
X-153997Y-41753D01*
X-140003Y-41753D01*
X-140003Y-44747D01*
X-153997Y-44747D01*
X-153997Y-54253D02*
X-153997Y-57247D01*
X-153997Y-54253D02*
X-140003Y-54253D01*
X-140003Y-57247D01*
X-153997Y-57247D01*
X-153997Y-66753D02*
X-153997Y-69747D01*
X-153997Y-66753D02*
X-140003Y-66753D01*
X-140003Y-69747D01*
X-153997Y-69747D01*
X-153997Y-79253D02*
X-153997Y-82247D01*
X-153997Y-79253D02*
X-140003Y-79253D01*
X-140003Y-82247D01*
X-153997Y-82247D01*
D13*
X-203000Y-107000D03*
D14*
X-199750Y-121000D03*
X-206250Y-121000D03*
X-193250Y-121000D03*
X-212750Y-121000D03*
X-199750Y-93000D03*
X-206250Y-93000D03*
X-193250Y-93000D03*
X-212750Y-93000D03*
D11*
X-179750Y-84250D03*
X-179750Y-74250D03*
D15*
X-65022Y73772D02*
X-41978Y73772D01*
X-41978Y68728D01*
X-65022Y68728D01*
X-65022Y73772D01*
X-65022Y-2728D02*
X-41978Y-2728D01*
X-41978Y-7772D01*
X-65022Y-7772D01*
X-65022Y-2728D01*
D16*
X-93997Y50253D02*
X-93997Y53247D01*
X-80003Y53247D01*
X-80003Y50253D01*
X-93997Y50253D01*
X-93997Y40747D02*
X-93997Y37753D01*
X-93997Y40747D02*
X-80003Y40747D01*
X-80003Y37753D01*
X-93997Y37753D01*
X-93997Y28247D02*
X-93997Y25253D01*
X-93997Y28247D02*
X-80003Y28247D01*
X-80003Y25253D01*
X-93997Y25253D01*
X-93997Y15747D02*
X-93997Y12753D01*
X-93997Y15747D02*
X-80003Y15747D01*
X-80003Y12753D01*
X-93997Y12753D01*
D15*
X-101978Y73772D02*
X-125022Y73772D01*
X-101978Y73772D02*
X-101978Y68728D01*
X-125022Y68728D01*
X-125022Y73772D01*
X-125022Y-2728D02*
X-101978Y-2728D01*
X-101978Y-7772D01*
X-125022Y-7772D01*
X-125022Y-2728D01*
D16*
X-153997Y50253D02*
X-153997Y53247D01*
X-140003Y53247D01*
X-140003Y50253D01*
X-153997Y50253D01*
X-153997Y40747D02*
X-153997Y37753D01*
X-153997Y40747D02*
X-140003Y40747D01*
X-140003Y37753D01*
X-153997Y37753D01*
X-153997Y28247D02*
X-153997Y25253D01*
X-153997Y28247D02*
X-140003Y28247D01*
X-140003Y25253D01*
X-153997Y25253D01*
X-153997Y15747D02*
X-153997Y12753D01*
X-153997Y15747D02*
X-140003Y15747D01*
X-140003Y12753D01*
X-153997Y12753D01*
D17*
X-81750Y-193500D03*
X-81750Y-160500D03*
X-72250Y-193500D03*
X-72250Y-160500D03*
X-91250Y-193500D03*
X-91250Y-160500D03*
X-113500Y-193500D03*
X-113500Y-160500D03*
X-104000Y-193500D03*
X-104000Y-160500D03*
X-123000Y-193500D03*
X-123000Y-160500D03*
D18*
X-123250Y-208500D03*
X-113250Y-208500D03*
X-92000Y-208500D03*
X-82000Y-208500D03*
D19*
X-114500Y-115500D03*
X-129000Y-115500D03*
X-114500Y-128500D03*
X-129000Y-128500D03*
X-104250Y-115500D03*
X-89750Y-115500D03*
X-104250Y-128500D03*
X-89750Y-128500D03*
X-104250Y-141500D03*
X-89750Y-141500D03*
X-114500Y-141500D03*
X-129000Y-141500D03*
D20*
X-179250Y-48750D03*
X-213250Y-48750D03*
D11*
X-173000Y10000D03*
X-173000Y0D03*
X-173000Y30250D03*
X-173000Y20250D03*
D21*
X-68250Y221250D03*
X-76750Y221250D03*
X-68250Y206750D03*
X-76750Y206750D03*
D11*
X-30000Y38000D03*
X-30000Y28000D03*
D18*
X-20500Y-62000D03*
X-30500Y-62000D03*
D11*
X-68500Y194500D03*
X-68500Y184500D03*
X-90500Y194750D03*
X-90500Y184750D03*
X-79500Y194500D03*
X-79500Y184500D03*
D18*
X-30500Y-73500D03*
X-20500Y-73500D03*
D11*
X-30000Y58500D03*
X-30000Y48500D03*
D22*
X-27000Y-140000D03*
X-47000Y-140000D03*
X-67000Y-140000D03*
X-2000Y-70000D03*
X-2000Y-90000D03*
X-2000Y-110000D03*
X-2000Y-130000D03*
X-2000Y-50000D03*
X-2000Y-30000D03*
X-2000Y-10000D03*
X-2000Y10000D03*
X-2000Y30000D03*
X-2000Y50000D03*
X-2000Y70000D03*
X-2000Y90000D03*
X-2000Y110000D03*
X-2000Y130000D03*
X-27000Y140000D03*
X-47000Y140000D03*
X-67000Y140000D03*
X-147000Y140000D03*
X-167000Y140000D03*
X-187000Y140000D03*
X-207000Y140000D03*
X-232000Y130000D03*
X-232000Y110000D03*
X-232000Y90000D03*
X-232000Y70000D03*
X-232000Y50000D03*
X-232000Y30000D03*
X-232000Y10000D03*
X-232000Y-10000D03*
X-232000Y-30000D03*
X-232000Y-50000D03*
X-232000Y-70000D03*
X-232000Y-90000D03*
X-232000Y-110000D03*
X-232000Y-130000D03*
X-207000Y-140000D03*
X-187000Y-140000D03*
X-167000Y-140000D03*
X-147000Y-140000D03*
D23*
X115000Y179000D03*
X115000Y229000D03*
X115000Y-179000D03*
X115000Y-229000D03*
D24*
X-189500Y0D03*
X-189500Y-6500D03*
X-189500Y-13000D03*
X-189500Y6500D03*
X-189500Y13000D03*
D25*
X-187000Y-24000D02*
X-187000Y-32000D01*
X-187000Y24000D02*
X-187000Y32000D01*
X-208500Y5500D02*
X-208500Y-5500D01*
D18*
X-168250Y62000D03*
D26*
X-170250Y43000D03*
D18*
X-188250Y43000D03*
X-188250Y62000D03*
D27*
X-5000Y-272000D02*
X-4998Y-271859D01*
X-4992Y-271718D01*
X-4982Y-271578D01*
X-4968Y-271438D01*
X-4950Y-271298D01*
X-4929Y-271159D01*
X-4903Y-271020D01*
X-4874Y-270882D01*
X-4840Y-270746D01*
X-4803Y-270610D01*
X-4762Y-270475D01*
X-4717Y-270341D01*
X-4668Y-270209D01*
X-4616Y-270078D01*
X-4560Y-269949D01*
X-4500Y-269822D01*
X-4437Y-269696D01*
X-4371Y-269572D01*
X-4300Y-269449D01*
X-4227Y-269329D01*
X-4150Y-269211D01*
X-4070Y-269095D01*
X-3986Y-268982D01*
X-3900Y-268871D01*
X-3810Y-268762D01*
X-3717Y-268656D01*
X-3622Y-268553D01*
X-3523Y-268452D01*
X-3422Y-268354D01*
X-3318Y-268259D01*
X-3211Y-268167D01*
X-3102Y-268078D01*
X-2990Y-267993D01*
X-2876Y-267910D01*
X-2760Y-267830D01*
X-2641Y-267754D01*
X-2520Y-267682D01*
X-2398Y-267612D01*
X-2273Y-267547D01*
X-2147Y-267484D01*
X-2019Y-267426D01*
X-1889Y-267371D01*
X-1758Y-267319D01*
X-1625Y-267272D01*
X-1491Y-267228D01*
X-1356Y-267187D01*
X-1220Y-267151D01*
X-1083Y-267119D01*
X-945Y-267090D01*
X-807Y-267065D01*
X-667Y-267045D01*
X-527Y-267028D01*
X-387Y-267015D01*
X-246Y-267006D01*
X-106Y-267001D01*
X35Y-267000D01*
X176Y-267003D01*
X317Y-267010D01*
X457Y-267021D01*
X597Y-267036D01*
X737Y-267055D01*
X876Y-267077D01*
X1014Y-267104D01*
X1152Y-267134D01*
X1288Y-267169D01*
X1424Y-267207D01*
X1558Y-267249D01*
X1692Y-267295D01*
X1824Y-267344D01*
X1954Y-267398D01*
X2083Y-267455D01*
X2210Y-267515D01*
X2336Y-267579D01*
X2459Y-267647D01*
X2581Y-267718D01*
X2701Y-267792D01*
X2818Y-267870D01*
X2933Y-267951D01*
X3046Y-268035D01*
X3157Y-268122D01*
X3265Y-268213D01*
X3370Y-268306D01*
X3473Y-268403D01*
X3573Y-268502D01*
X3670Y-268604D01*
X3764Y-268709D01*
X3855Y-268816D01*
X3943Y-268926D01*
X4028Y-269038D01*
X4110Y-269153D01*
X4189Y-269270D01*
X4264Y-269389D01*
X4336Y-269510D01*
X4404Y-269633D01*
X4469Y-269758D01*
X4531Y-269885D01*
X4588Y-270014D01*
X4643Y-270144D01*
X4693Y-270275D01*
X4740Y-270408D01*
X4783Y-270542D01*
X4822Y-270678D01*
X4857Y-270814D01*
X4889Y-270951D01*
X4916Y-271089D01*
X4940Y-271228D01*
X4960Y-271368D01*
X4976Y-271508D01*
X4988Y-271648D01*
X4996Y-271789D01*
X5000Y-271930D01*
X5000Y-272070D01*
X4996Y-272211D01*
X4988Y-272352D01*
X4976Y-272492D01*
X4960Y-272632D01*
X4940Y-272772D01*
X4916Y-272911D01*
X4889Y-273049D01*
X4857Y-273186D01*
X4822Y-273322D01*
X4783Y-273458D01*
X4740Y-273592D01*
X4693Y-273725D01*
X4643Y-273856D01*
X4588Y-273986D01*
X4531Y-274115D01*
X4469Y-274242D01*
X4404Y-274367D01*
X4336Y-274490D01*
X4264Y-274611D01*
X4189Y-274730D01*
X4110Y-274847D01*
X4028Y-274962D01*
X3943Y-275074D01*
X3855Y-275184D01*
X3764Y-275291D01*
X3670Y-275396D01*
X3573Y-275498D01*
X3473Y-275597D01*
X3370Y-275694D01*
X3265Y-275787D01*
X3157Y-275878D01*
X3046Y-275965D01*
X2933Y-276049D01*
X2818Y-276130D01*
X2701Y-276208D01*
X2581Y-276282D01*
X2459Y-276353D01*
X2336Y-276421D01*
X2210Y-276485D01*
X2083Y-276545D01*
X1954Y-276602D01*
X1824Y-276656D01*
X1692Y-276705D01*
X1558Y-276751D01*
X1424Y-276793D01*
X1288Y-276831D01*
X1152Y-276866D01*
X1014Y-276896D01*
X876Y-276923D01*
X737Y-276945D01*
X597Y-276964D01*
X457Y-276979D01*
X317Y-276990D01*
X176Y-276997D01*
X35Y-277000D01*
X-106Y-276999D01*
X-246Y-276994D01*
X-387Y-276985D01*
X-527Y-276972D01*
X-667Y-276955D01*
X-807Y-276935D01*
X-945Y-276910D01*
X-1083Y-276881D01*
X-1220Y-276849D01*
X-1356Y-276813D01*
X-1491Y-276772D01*
X-1625Y-276728D01*
X-1758Y-276681D01*
X-1889Y-276629D01*
X-2019Y-276574D01*
X-2147Y-276516D01*
X-2273Y-276453D01*
X-2398Y-276388D01*
X-2520Y-276318D01*
X-2641Y-276246D01*
X-2760Y-276170D01*
X-2876Y-276090D01*
X-2990Y-276007D01*
X-3102Y-275922D01*
X-3211Y-275833D01*
X-3318Y-275741D01*
X-3422Y-275646D01*
X-3523Y-275548D01*
X-3622Y-275447D01*
X-3717Y-275344D01*
X-3810Y-275238D01*
X-3900Y-275129D01*
X-3986Y-275018D01*
X-4070Y-274905D01*
X-4150Y-274789D01*
X-4227Y-274671D01*
X-4300Y-274551D01*
X-4371Y-274428D01*
X-4437Y-274304D01*
X-4500Y-274178D01*
X-4560Y-274051D01*
X-4616Y-273922D01*
X-4668Y-273791D01*
X-4717Y-273659D01*
X-4762Y-273525D01*
X-4803Y-273390D01*
X-4840Y-273254D01*
X-4874Y-273118D01*
X-4903Y-272980D01*
X-4929Y-272841D01*
X-4950Y-272702D01*
X-4968Y-272562D01*
X-4982Y-272422D01*
X-4992Y-272282D01*
X-4998Y-272141D01*
X-5000Y-272000D01*
D28*
X0Y-272000D03*
D27*
X-5000Y272000D02*
X-4998Y272141D01*
X-4992Y272282D01*
X-4982Y272422D01*
X-4968Y272562D01*
X-4950Y272702D01*
X-4929Y272841D01*
X-4903Y272980D01*
X-4874Y273118D01*
X-4840Y273254D01*
X-4803Y273390D01*
X-4762Y273525D01*
X-4717Y273659D01*
X-4668Y273791D01*
X-4616Y273922D01*
X-4560Y274051D01*
X-4500Y274178D01*
X-4437Y274304D01*
X-4371Y274428D01*
X-4300Y274551D01*
X-4227Y274671D01*
X-4150Y274789D01*
X-4070Y274905D01*
X-3986Y275018D01*
X-3900Y275129D01*
X-3810Y275238D01*
X-3717Y275344D01*
X-3622Y275447D01*
X-3523Y275548D01*
X-3422Y275646D01*
X-3318Y275741D01*
X-3211Y275833D01*
X-3102Y275922D01*
X-2990Y276007D01*
X-2876Y276090D01*
X-2760Y276170D01*
X-2641Y276246D01*
X-2520Y276318D01*
X-2398Y276388D01*
X-2273Y276453D01*
X-2147Y276516D01*
X-2019Y276574D01*
X-1889Y276629D01*
X-1758Y276681D01*
X-1625Y276728D01*
X-1491Y276772D01*
X-1356Y276813D01*
X-1220Y276849D01*
X-1083Y276881D01*
X-945Y276910D01*
X-807Y276935D01*
X-667Y276955D01*
X-527Y276972D01*
X-387Y276985D01*
X-246Y276994D01*
X-106Y276999D01*
X35Y277000D01*
X176Y276997D01*
X317Y276990D01*
X457Y276979D01*
X597Y276964D01*
X737Y276945D01*
X876Y276923D01*
X1014Y276896D01*
X1152Y276866D01*
X1288Y276831D01*
X1424Y276793D01*
X1558Y276751D01*
X1692Y276705D01*
X1824Y276656D01*
X1954Y276602D01*
X2083Y276545D01*
X2210Y276485D01*
X2336Y276421D01*
X2459Y276353D01*
X2581Y276282D01*
X2701Y276208D01*
X2818Y276130D01*
X2933Y276049D01*
X3046Y275965D01*
X3157Y275878D01*
X3265Y275787D01*
X3370Y275694D01*
X3473Y275597D01*
X3573Y275498D01*
X3670Y275396D01*
X3764Y275291D01*
X3855Y275184D01*
X3943Y275074D01*
X4028Y274962D01*
X4110Y274847D01*
X4189Y274730D01*
X4264Y274611D01*
X4336Y274490D01*
X4404Y274367D01*
X4469Y274242D01*
X4531Y274115D01*
X4588Y273986D01*
X4643Y273856D01*
X4693Y273725D01*
X4740Y273592D01*
X4783Y273458D01*
X4822Y273322D01*
X4857Y273186D01*
X4889Y273049D01*
X4916Y272911D01*
X4940Y272772D01*
X4960Y272632D01*
X4976Y272492D01*
X4988Y272352D01*
X4996Y272211D01*
X5000Y272070D01*
X5000Y271930D01*
X4996Y271789D01*
X4988Y271648D01*
X4976Y271508D01*
X4960Y271368D01*
X4940Y271228D01*
X4916Y271089D01*
X4889Y270951D01*
X4857Y270814D01*
X4822Y270678D01*
X4783Y270542D01*
X4740Y270408D01*
X4693Y270275D01*
X4643Y270144D01*
X4588Y270014D01*
X4531Y269885D01*
X4469Y269758D01*
X4404Y269633D01*
X4336Y269510D01*
X4264Y269389D01*
X4189Y269270D01*
X4110Y269153D01*
X4028Y269038D01*
X3943Y268926D01*
X3855Y268816D01*
X3764Y268709D01*
X3670Y268604D01*
X3573Y268502D01*
X3473Y268403D01*
X3370Y268306D01*
X3265Y268213D01*
X3157Y268122D01*
X3046Y268035D01*
X2933Y267951D01*
X2818Y267870D01*
X2701Y267792D01*
X2581Y267718D01*
X2459Y267647D01*
X2336Y267579D01*
X2210Y267515D01*
X2083Y267455D01*
X1954Y267398D01*
X1824Y267344D01*
X1692Y267295D01*
X1558Y267249D01*
X1424Y267207D01*
X1288Y267169D01*
X1152Y267134D01*
X1014Y267104D01*
X876Y267077D01*
X737Y267055D01*
X597Y267036D01*
X457Y267021D01*
X317Y267010D01*
X176Y267003D01*
X35Y267000D01*
X-106Y267001D01*
X-246Y267006D01*
X-387Y267015D01*
X-527Y267028D01*
X-667Y267045D01*
X-807Y267065D01*
X-945Y267090D01*
X-1083Y267119D01*
X-1220Y267151D01*
X-1356Y267187D01*
X-1491Y267228D01*
X-1625Y267272D01*
X-1758Y267319D01*
X-1889Y267371D01*
X-2019Y267426D01*
X-2147Y267484D01*
X-2273Y267547D01*
X-2398Y267612D01*
X-2520Y267682D01*
X-2641Y267754D01*
X-2760Y267830D01*
X-2876Y267910D01*
X-2990Y267993D01*
X-3102Y268078D01*
X-3211Y268167D01*
X-3318Y268259D01*
X-3422Y268354D01*
X-3523Y268452D01*
X-3622Y268553D01*
X-3717Y268656D01*
X-3810Y268762D01*
X-3900Y268871D01*
X-3986Y268982D01*
X-4070Y269095D01*
X-4150Y269211D01*
X-4227Y269329D01*
X-4300Y269449D01*
X-4371Y269572D01*
X-4437Y269696D01*
X-4500Y269822D01*
X-4560Y269949D01*
X-4616Y270078D01*
X-4668Y270209D01*
X-4717Y270341D01*
X-4762Y270475D01*
X-4803Y270610D01*
X-4840Y270746D01*
X-4874Y270882D01*
X-4903Y271020D01*
X-4929Y271159D01*
X-4950Y271298D01*
X-4968Y271438D01*
X-4982Y271578D01*
X-4992Y271718D01*
X-4998Y271859D01*
X-5000Y272000D01*
D28*
X0Y272000D03*
D29*
X-30000Y-230500D03*
X-30000Y-169500D03*
X-30000Y230500D03*
X-30000Y169500D03*
D18*
X-216250Y-63500D03*
X-206250Y-63500D03*
D30*
X-172000Y118500D03*
X-172000Y78500D03*
D11*
X-106250Y156500D03*
X-106250Y146500D03*
D15*
X-59228Y105022D02*
X-59228Y81978D01*
X-64272Y81978D01*
X-64272Y105022D01*
X-59228Y105022D01*
X-59228Y87169D02*
X-64272Y87169D01*
X-64272Y92360D02*
X-59228Y92360D01*
X-59228Y97551D02*
X-64272Y97551D01*
X-64272Y102742D02*
X-59228Y102742D01*
X-135728Y105022D02*
X-135728Y81978D01*
X-140772Y81978D01*
X-140772Y105022D01*
X-135728Y105022D01*
X-135728Y87169D02*
X-140772Y87169D01*
X-140772Y92360D02*
X-135728Y92360D01*
X-135728Y97551D02*
X-140772Y97551D01*
X-140772Y102742D02*
X-135728Y102742D01*
D16*
X-82747Y133997D02*
X-79753Y133997D01*
X-79753Y120003D01*
X-82747Y120003D01*
X-82747Y133997D01*
X-82747Y123341D02*
X-79753Y123341D01*
X-79753Y126679D02*
X-82747Y126679D01*
X-82747Y130017D02*
X-79753Y130017D01*
X-79753Y133355D02*
X-82747Y133355D01*
X-92253Y133997D02*
X-95247Y133997D01*
X-92253Y133997D02*
X-92253Y120003D01*
X-95247Y120003D01*
X-95247Y133997D01*
X-95247Y123341D02*
X-92253Y123341D01*
X-92253Y126679D02*
X-95247Y126679D01*
X-95247Y130017D02*
X-92253Y130017D01*
X-92253Y133355D02*
X-95247Y133355D01*
X-104753Y133997D02*
X-107747Y133997D01*
X-104753Y133997D02*
X-104753Y120003D01*
X-107747Y120003D01*
X-107747Y133997D01*
X-107747Y123341D02*
X-104753Y123341D01*
X-104753Y126679D02*
X-107747Y126679D01*
X-107747Y130017D02*
X-104753Y130017D01*
X-104753Y133355D02*
X-107747Y133355D01*
X-117253Y133997D02*
X-120247Y133997D01*
X-117253Y133997D02*
X-117253Y120003D01*
X-120247Y120003D01*
X-120247Y133997D01*
X-120247Y123341D02*
X-117253Y123341D01*
X-117253Y126679D02*
X-120247Y126679D01*
X-120247Y130017D02*
X-117253Y130017D01*
X-117253Y133355D02*
X-120247Y133355D01*
D11*
X-93500Y156500D03*
X-93500Y146500D03*
D31*
X-109000Y188250D03*
X-109000Y169250D03*
D18*
X-116500Y188250D03*
X-101500Y188250D03*
X-101500Y169250D03*
X-116500Y169250D03*
X-131000Y222000D03*
X-121000Y222000D03*
X-93000Y222000D03*
X-103000Y222000D03*
D22*
X-265000Y-10000D03*
X-265000Y10000D03*
D18*
X-218500Y45000D03*
X-208500Y45000D03*
M02*
