G04 EAGLE Gerber RS-274X export*
G75*
%MOMM*%
%FSLAX34Y34*%
%LPD*%
%AMOC8*
5,1,8,0,0,1.08239X$1,22.5*%
G01*
%ADD10R,0.750000X0.400000*%
%ADD11R,1.500000X1.500000*%
%ADD12R,0.949200X3.349200*%
%ADD13R,0.549200X3.349200*%
%ADD14R,0.949200X0.949200*%
%ADD15R,0.449200X0.549200*%
%ADD16R,0.549200X0.449200*%
%ADD17R,0.849200X2.449200*%
%ADD18R,1.549200X3.049200*%
%ADD19R,0.549200X1.499200*%
%ADD20R,1.149200X1.749200*%
%ADD21C,0.695616*%
%ADD22R,2.449200X0.849200*%
%ADD23R,0.849200X0.549200*%


D10*
X76000Y103350D03*
X76000Y116050D03*
X76000Y90650D03*
X76000Y77950D03*
D11*
X103000Y105500D03*
D10*
X134000Y116050D03*
X134000Y103350D03*
X134000Y90650D03*
X134000Y77950D03*
D11*
X103000Y88500D03*
X120000Y105500D03*
X120000Y88500D03*
D10*
X143000Y168850D03*
X143000Y181550D03*
X143000Y156150D03*
X143000Y143450D03*
D11*
X170000Y171000D03*
D10*
X201000Y181550D03*
X201000Y168850D03*
X201000Y156150D03*
X201000Y143450D03*
D11*
X170000Y154000D03*
X187000Y171000D03*
X187000Y154000D03*
D12*
X58000Y92500D03*
D13*
X45000Y92500D03*
D12*
X32000Y92500D03*
X58000Y42500D03*
D13*
X45000Y42500D03*
D12*
X32000Y42500D03*
D14*
X4750Y182000D03*
X14250Y160000D03*
X-4750Y160000D03*
D15*
X-28500Y160250D03*
X-38500Y160250D03*
D10*
X149000Y104850D03*
X149000Y117550D03*
X149000Y92150D03*
X149000Y79450D03*
D11*
X176000Y107000D03*
D10*
X207000Y117550D03*
X207000Y104850D03*
X207000Y92150D03*
X207000Y79450D03*
D11*
X176000Y90000D03*
X193000Y107000D03*
X193000Y90000D03*
D10*
X38000Y168850D03*
X38000Y181550D03*
X38000Y156150D03*
X38000Y143450D03*
D11*
X65000Y171000D03*
D10*
X96000Y181550D03*
X96000Y168850D03*
X96000Y156150D03*
X96000Y143450D03*
D11*
X65000Y154000D03*
X82000Y171000D03*
X82000Y154000D03*
D10*
X38000Y-156150D03*
X38000Y-143450D03*
X38000Y-168850D03*
X38000Y-181550D03*
D11*
X65000Y-154000D03*
D10*
X96000Y-143450D03*
X96000Y-156150D03*
X96000Y-168850D03*
X96000Y-181550D03*
D11*
X65000Y-171000D03*
X82000Y-154000D03*
X82000Y-171000D03*
D10*
X143000Y-156150D03*
X143000Y-143450D03*
X143000Y-168850D03*
X143000Y-181550D03*
D11*
X170000Y-154000D03*
D10*
X201000Y-143450D03*
X201000Y-156150D03*
X201000Y-168850D03*
X201000Y-181550D03*
D11*
X170000Y-171000D03*
X187000Y-154000D03*
X187000Y-171000D03*
D12*
X32000Y-92500D03*
D13*
X45000Y-92500D03*
D12*
X58000Y-92500D03*
X32000Y-42500D03*
D13*
X45000Y-42500D03*
D12*
X58000Y-42500D03*
D16*
X-17500Y-165000D03*
X-17500Y-175000D03*
X4500Y-165000D03*
X4500Y-175000D03*
D10*
X149000Y-92150D03*
X149000Y-79450D03*
X149000Y-104850D03*
X149000Y-117550D03*
D11*
X176000Y-90000D03*
D10*
X207000Y-79450D03*
X207000Y-92150D03*
X207000Y-104850D03*
X207000Y-117550D03*
D11*
X176000Y-107000D03*
X193000Y-90000D03*
X193000Y-107000D03*
D16*
X-28500Y-165000D03*
X-28500Y-175000D03*
D10*
X76000Y-90650D03*
X76000Y-77950D03*
X76000Y-103350D03*
X76000Y-116050D03*
D11*
X103000Y-88500D03*
D10*
X134000Y-77950D03*
X134000Y-90650D03*
X134000Y-103350D03*
X134000Y-116050D03*
D11*
X103000Y-105500D03*
X120000Y-88500D03*
X120000Y-105500D03*
D16*
X-6500Y-165000D03*
X-6500Y-175000D03*
D10*
X76000Y-35150D03*
X76000Y-22450D03*
X76000Y-47850D03*
X76000Y-60550D03*
D11*
X103000Y-33000D03*
D10*
X134000Y-22450D03*
X134000Y-35150D03*
X134000Y-47850D03*
X134000Y-60550D03*
D11*
X103000Y-50000D03*
X120000Y-33000D03*
X120000Y-50000D03*
D10*
X149000Y-38150D03*
X149000Y-25450D03*
X149000Y-50850D03*
X149000Y-63550D03*
D11*
X176000Y-36000D03*
D10*
X207000Y-25450D03*
X207000Y-38150D03*
X207000Y-50850D03*
X207000Y-63550D03*
D11*
X176000Y-53000D03*
X193000Y-36000D03*
X193000Y-53000D03*
D10*
X149000Y50850D03*
X149000Y63550D03*
X149000Y38150D03*
X149000Y25450D03*
D11*
X176000Y53000D03*
D10*
X207000Y63550D03*
X207000Y50850D03*
X207000Y38150D03*
X207000Y25450D03*
D11*
X176000Y36000D03*
X193000Y53000D03*
X193000Y36000D03*
D10*
X76000Y47850D03*
X76000Y60550D03*
X76000Y35150D03*
X76000Y22450D03*
D11*
X103000Y50000D03*
D10*
X134000Y60550D03*
X134000Y47850D03*
X134000Y35150D03*
X134000Y22450D03*
D11*
X103000Y33000D03*
X120000Y50000D03*
X120000Y33000D03*
D17*
G36*
X146377Y-231232D02*
X139022Y-235478D01*
X126777Y-214268D01*
X134132Y-210022D01*
X146377Y-231232D01*
G37*
G36*
X173223Y-215732D02*
X165868Y-219978D01*
X153623Y-198768D01*
X160978Y-194522D01*
X173223Y-215732D01*
G37*
X252500Y30000D03*
X221500Y30000D03*
X252500Y-90000D03*
X221500Y-90000D03*
X252500Y-30000D03*
X221500Y-30000D03*
X252500Y0D03*
X221500Y0D03*
X252500Y-60000D03*
X221500Y-60000D03*
X252500Y60000D03*
X221500Y60000D03*
G36*
X134132Y210022D02*
X126777Y214268D01*
X139022Y235478D01*
X146377Y231232D01*
X134132Y210022D01*
G37*
G36*
X160978Y194522D02*
X153623Y198768D01*
X165868Y219978D01*
X173223Y215732D01*
X160978Y194522D01*
G37*
X252500Y90000D03*
X221500Y90000D03*
D18*
X34500Y-223000D03*
X95500Y-223000D03*
X34500Y223000D03*
X95500Y223000D03*
D15*
X-90000Y238500D03*
X-100000Y238500D03*
X-90000Y227500D03*
X-100000Y227500D03*
D19*
X-10000Y217000D03*
X-20000Y217000D03*
X-30000Y217000D03*
X-40000Y217000D03*
X-50000Y217000D03*
X-60000Y217000D03*
D20*
X3000Y255250D03*
X-73000Y255250D03*
D21*
X-261232Y47768D02*
X-261232Y25232D01*
X-268768Y25232D01*
X-268768Y47768D01*
X-261232Y47768D01*
X-261232Y31840D02*
X-268768Y31840D01*
X-268768Y38448D02*
X-261232Y38448D01*
X-261232Y45056D02*
X-268768Y45056D01*
X-261232Y-25232D02*
X-261232Y-47768D01*
X-268768Y-47768D01*
X-268768Y-25232D01*
X-261232Y-25232D01*
X-261232Y-41160D02*
X-268768Y-41160D01*
X-268768Y-34552D02*
X-261232Y-34552D01*
X-261232Y-27944D02*
X-268768Y-27944D01*
D22*
X-67500Y-158000D03*
X-67500Y-189000D03*
D23*
X-17250Y174250D03*
X-17250Y159750D03*
M02*
