G04 EAGLE Gerber RS-274X export*
G75*
%MOMM*%
%FSLAX34Y34*%
%LPD*%
%AMOC8*
5,1,8,0,0,1.08239X$1,22.5*%
G01*
%ADD10R,0.900800X0.550800*%
%ADD11R,4.600800X4.460800*%
%ADD12C,3.050800*%
%ADD13R,1.050800X3.450800*%
%ADD14R,0.650800X3.450800*%
%ADD15R,1.050800X1.050800*%
%ADD16R,0.550800X0.650800*%
%ADD17R,0.650800X0.550800*%
%ADD18R,0.950800X2.550800*%
%ADD19C,3.566800*%
%ADD20C,1.450800*%
%ADD21C,1.400800*%
%ADD22R,1.650800X3.150800*%
%ADD23C,0.850800*%
%ADD24C,2.184400*%
%ADD25C,1.066800*%
%ADD26R,0.650800X1.600800*%
%ADD27R,1.250800X1.850800*%
%ADD28C,0.806416*%
%ADD29R,2.550800X0.950800*%
%ADD30R,0.950800X0.650800*%


D10*
X76000Y116050D03*
X76000Y103350D03*
X76000Y90650D03*
X76000Y77950D03*
D11*
X115500Y97000D03*
D10*
X143000Y181550D03*
X143000Y168850D03*
X143000Y156150D03*
X143000Y143450D03*
D11*
X182500Y162500D03*
D12*
X118000Y140000D03*
D13*
X58000Y92500D03*
D14*
X45000Y92500D03*
D13*
X32000Y92500D03*
X58000Y42500D03*
D14*
X45000Y42500D03*
D13*
X32000Y42500D03*
D15*
X4750Y182000D03*
X14250Y160000D03*
X-4750Y160000D03*
D16*
X-28500Y160250D03*
X-38500Y160250D03*
D10*
X149000Y117550D03*
X149000Y104850D03*
X149000Y92150D03*
X149000Y79450D03*
D11*
X188500Y98500D03*
D10*
X38000Y181550D03*
X38000Y168850D03*
X38000Y156150D03*
X38000Y143450D03*
D11*
X77500Y162500D03*
D10*
X38000Y-143450D03*
X38000Y-156150D03*
X38000Y-168850D03*
X38000Y-181550D03*
D11*
X77500Y-162500D03*
D10*
X143000Y-143450D03*
X143000Y-156150D03*
X143000Y-168850D03*
X143000Y-181550D03*
D11*
X182500Y-162500D03*
D12*
X118000Y-140000D03*
D13*
X32000Y-92500D03*
D14*
X45000Y-92500D03*
D13*
X58000Y-92500D03*
X32000Y-42500D03*
D14*
X45000Y-42500D03*
D13*
X58000Y-42500D03*
D17*
X-17500Y-165000D03*
X-17500Y-175000D03*
X4500Y-165000D03*
X4500Y-175000D03*
D10*
X149000Y-79450D03*
X149000Y-92150D03*
X149000Y-104850D03*
X149000Y-117550D03*
D11*
X188500Y-98500D03*
D17*
X-28500Y-165000D03*
X-28500Y-175000D03*
D10*
X76000Y-77950D03*
X76000Y-90650D03*
X76000Y-103350D03*
X76000Y-116050D03*
D11*
X115500Y-97000D03*
D17*
X-6500Y-165000D03*
X-6500Y-175000D03*
D10*
X76000Y-22450D03*
X76000Y-35150D03*
X76000Y-47850D03*
X76000Y-60550D03*
D11*
X115500Y-41500D03*
D10*
X149000Y-25450D03*
X149000Y-38150D03*
X149000Y-50850D03*
X149000Y-63550D03*
D11*
X188500Y-44500D03*
D12*
X116000Y0D03*
D10*
X149000Y63550D03*
X149000Y50850D03*
X149000Y38150D03*
X149000Y25450D03*
D11*
X188500Y44500D03*
D10*
X76000Y60550D03*
X76000Y47850D03*
X76000Y35150D03*
X76000Y22450D03*
D11*
X115500Y41500D03*
D18*
G36*
X147071Y-231418D02*
X138836Y-236172D01*
X126083Y-214082D01*
X134318Y-209328D01*
X147071Y-231418D01*
G37*
G36*
X173917Y-215918D02*
X165682Y-220672D01*
X152929Y-198582D01*
X161164Y-193828D01*
X173917Y-215918D01*
G37*
X252500Y30000D03*
X221500Y30000D03*
X252500Y-90000D03*
X221500Y-90000D03*
X252500Y-30000D03*
X221500Y-30000D03*
X252500Y0D03*
X221500Y0D03*
X252500Y-60000D03*
X221500Y-60000D03*
X252500Y60000D03*
X221500Y60000D03*
G36*
X134318Y209328D02*
X126083Y214082D01*
X138836Y236172D01*
X147071Y231418D01*
X134318Y209328D01*
G37*
G36*
X161164Y193828D02*
X152929Y198582D01*
X165682Y220672D01*
X173917Y215918D01*
X161164Y193828D01*
G37*
X252500Y90000D03*
X221500Y90000D03*
D19*
X48250Y0D03*
X191500Y0D03*
D20*
X-27000Y-140000D03*
X-47000Y-140000D03*
X-67000Y-140000D03*
X-2000Y-70000D03*
X-2000Y-90000D03*
X-2000Y-110000D03*
X-2000Y-130000D03*
X-2000Y-50000D03*
X-2000Y-30000D03*
X-2000Y-10000D03*
X-2000Y10000D03*
X-2000Y30000D03*
X-2000Y50000D03*
X-2000Y70000D03*
X-2000Y90000D03*
X-2000Y110000D03*
X-2000Y130000D03*
X-27000Y140000D03*
X-47000Y140000D03*
X-67000Y140000D03*
X-147000Y140000D03*
X-167000Y140000D03*
X-187000Y140000D03*
X-207000Y140000D03*
X-232000Y130000D03*
X-232000Y110000D03*
X-232000Y90000D03*
X-232000Y70000D03*
X-232000Y50000D03*
X-232000Y30000D03*
X-232000Y10000D03*
X-232000Y-10000D03*
X-232000Y-30000D03*
X-232000Y-50000D03*
X-232000Y-70000D03*
X-232000Y-90000D03*
X-232000Y-110000D03*
X-232000Y-130000D03*
X-207000Y-140000D03*
X-187000Y-140000D03*
X-167000Y-140000D03*
X-147000Y-140000D03*
D21*
X115000Y179000D03*
X115000Y229000D03*
X115000Y-179000D03*
X115000Y-229000D03*
D22*
X34500Y-223000D03*
X95500Y-223000D03*
D23*
X-187000Y-32000D02*
X-187000Y-24000D01*
X-187000Y24000D02*
X-187000Y32000D01*
X-208500Y5500D02*
X-208500Y-5500D01*
D24*
X267000Y0D02*
X267002Y141D01*
X267008Y282D01*
X267018Y422D01*
X267032Y562D01*
X267050Y702D01*
X267071Y841D01*
X267097Y980D01*
X267126Y1118D01*
X267160Y1254D01*
X267197Y1390D01*
X267238Y1525D01*
X267283Y1659D01*
X267332Y1791D01*
X267384Y1922D01*
X267440Y2051D01*
X267500Y2178D01*
X267563Y2304D01*
X267629Y2428D01*
X267700Y2551D01*
X267773Y2671D01*
X267850Y2789D01*
X267930Y2905D01*
X268014Y3018D01*
X268100Y3129D01*
X268190Y3238D01*
X268283Y3344D01*
X268378Y3447D01*
X268477Y3548D01*
X268578Y3646D01*
X268682Y3741D01*
X268789Y3833D01*
X268898Y3922D01*
X269010Y4007D01*
X269124Y4090D01*
X269240Y4170D01*
X269359Y4246D01*
X269480Y4318D01*
X269602Y4388D01*
X269727Y4453D01*
X269853Y4516D01*
X269981Y4574D01*
X270111Y4629D01*
X270242Y4681D01*
X270375Y4728D01*
X270509Y4772D01*
X270644Y4813D01*
X270780Y4849D01*
X270917Y4881D01*
X271055Y4910D01*
X271193Y4935D01*
X271333Y4955D01*
X271473Y4972D01*
X271613Y4985D01*
X271754Y4994D01*
X271894Y4999D01*
X272035Y5000D01*
X272176Y4997D01*
X272317Y4990D01*
X272457Y4979D01*
X272597Y4964D01*
X272737Y4945D01*
X272876Y4923D01*
X273014Y4896D01*
X273152Y4866D01*
X273288Y4831D01*
X273424Y4793D01*
X273558Y4751D01*
X273692Y4705D01*
X273824Y4656D01*
X273954Y4602D01*
X274083Y4545D01*
X274210Y4485D01*
X274336Y4421D01*
X274459Y4353D01*
X274581Y4282D01*
X274701Y4208D01*
X274818Y4130D01*
X274933Y4049D01*
X275046Y3965D01*
X275157Y3878D01*
X275265Y3787D01*
X275370Y3694D01*
X275473Y3597D01*
X275573Y3498D01*
X275670Y3396D01*
X275764Y3291D01*
X275855Y3184D01*
X275943Y3074D01*
X276028Y2962D01*
X276110Y2847D01*
X276189Y2730D01*
X276264Y2611D01*
X276336Y2490D01*
X276404Y2367D01*
X276469Y2242D01*
X276531Y2115D01*
X276588Y1986D01*
X276643Y1856D01*
X276693Y1725D01*
X276740Y1592D01*
X276783Y1458D01*
X276822Y1322D01*
X276857Y1186D01*
X276889Y1049D01*
X276916Y911D01*
X276940Y772D01*
X276960Y632D01*
X276976Y492D01*
X276988Y352D01*
X276996Y211D01*
X277000Y70D01*
X277000Y-70D01*
X276996Y-211D01*
X276988Y-352D01*
X276976Y-492D01*
X276960Y-632D01*
X276940Y-772D01*
X276916Y-911D01*
X276889Y-1049D01*
X276857Y-1186D01*
X276822Y-1322D01*
X276783Y-1458D01*
X276740Y-1592D01*
X276693Y-1725D01*
X276643Y-1856D01*
X276588Y-1986D01*
X276531Y-2115D01*
X276469Y-2242D01*
X276404Y-2367D01*
X276336Y-2490D01*
X276264Y-2611D01*
X276189Y-2730D01*
X276110Y-2847D01*
X276028Y-2962D01*
X275943Y-3074D01*
X275855Y-3184D01*
X275764Y-3291D01*
X275670Y-3396D01*
X275573Y-3498D01*
X275473Y-3597D01*
X275370Y-3694D01*
X275265Y-3787D01*
X275157Y-3878D01*
X275046Y-3965D01*
X274933Y-4049D01*
X274818Y-4130D01*
X274701Y-4208D01*
X274581Y-4282D01*
X274459Y-4353D01*
X274336Y-4421D01*
X274210Y-4485D01*
X274083Y-4545D01*
X273954Y-4602D01*
X273824Y-4656D01*
X273692Y-4705D01*
X273558Y-4751D01*
X273424Y-4793D01*
X273288Y-4831D01*
X273152Y-4866D01*
X273014Y-4896D01*
X272876Y-4923D01*
X272737Y-4945D01*
X272597Y-4964D01*
X272457Y-4979D01*
X272317Y-4990D01*
X272176Y-4997D01*
X272035Y-5000D01*
X271894Y-4999D01*
X271754Y-4994D01*
X271613Y-4985D01*
X271473Y-4972D01*
X271333Y-4955D01*
X271193Y-4935D01*
X271055Y-4910D01*
X270917Y-4881D01*
X270780Y-4849D01*
X270644Y-4813D01*
X270509Y-4772D01*
X270375Y-4728D01*
X270242Y-4681D01*
X270111Y-4629D01*
X269981Y-4574D01*
X269853Y-4516D01*
X269727Y-4453D01*
X269602Y-4388D01*
X269480Y-4318D01*
X269359Y-4246D01*
X269240Y-4170D01*
X269124Y-4090D01*
X269010Y-4007D01*
X268898Y-3922D01*
X268789Y-3833D01*
X268682Y-3741D01*
X268578Y-3646D01*
X268477Y-3548D01*
X268378Y-3447D01*
X268283Y-3344D01*
X268190Y-3238D01*
X268100Y-3129D01*
X268014Y-3018D01*
X267930Y-2905D01*
X267850Y-2789D01*
X267773Y-2671D01*
X267700Y-2551D01*
X267629Y-2428D01*
X267563Y-2304D01*
X267500Y-2178D01*
X267440Y-2051D01*
X267384Y-1922D01*
X267332Y-1791D01*
X267283Y-1659D01*
X267238Y-1525D01*
X267197Y-1390D01*
X267160Y-1254D01*
X267126Y-1118D01*
X267097Y-980D01*
X267071Y-841D01*
X267050Y-702D01*
X267032Y-562D01*
X267018Y-422D01*
X267008Y-282D01*
X267002Y-141D01*
X267000Y0D01*
D25*
X272000Y0D03*
D24*
X-140000Y-235000D02*
X-139998Y-234859D01*
X-139992Y-234718D01*
X-139982Y-234578D01*
X-139968Y-234438D01*
X-139950Y-234298D01*
X-139929Y-234159D01*
X-139903Y-234020D01*
X-139874Y-233882D01*
X-139840Y-233746D01*
X-139803Y-233610D01*
X-139762Y-233475D01*
X-139717Y-233341D01*
X-139668Y-233209D01*
X-139616Y-233078D01*
X-139560Y-232949D01*
X-139500Y-232822D01*
X-139437Y-232696D01*
X-139371Y-232572D01*
X-139300Y-232449D01*
X-139227Y-232329D01*
X-139150Y-232211D01*
X-139070Y-232095D01*
X-138986Y-231982D01*
X-138900Y-231871D01*
X-138810Y-231762D01*
X-138717Y-231656D01*
X-138622Y-231553D01*
X-138523Y-231452D01*
X-138422Y-231354D01*
X-138318Y-231259D01*
X-138211Y-231167D01*
X-138102Y-231078D01*
X-137990Y-230993D01*
X-137876Y-230910D01*
X-137760Y-230830D01*
X-137641Y-230754D01*
X-137520Y-230682D01*
X-137398Y-230612D01*
X-137273Y-230547D01*
X-137147Y-230484D01*
X-137019Y-230426D01*
X-136889Y-230371D01*
X-136758Y-230319D01*
X-136625Y-230272D01*
X-136491Y-230228D01*
X-136356Y-230187D01*
X-136220Y-230151D01*
X-136083Y-230119D01*
X-135945Y-230090D01*
X-135807Y-230065D01*
X-135667Y-230045D01*
X-135527Y-230028D01*
X-135387Y-230015D01*
X-135246Y-230006D01*
X-135106Y-230001D01*
X-134965Y-230000D01*
X-134824Y-230003D01*
X-134683Y-230010D01*
X-134543Y-230021D01*
X-134403Y-230036D01*
X-134263Y-230055D01*
X-134124Y-230077D01*
X-133986Y-230104D01*
X-133848Y-230134D01*
X-133712Y-230169D01*
X-133576Y-230207D01*
X-133442Y-230249D01*
X-133308Y-230295D01*
X-133176Y-230344D01*
X-133046Y-230398D01*
X-132917Y-230455D01*
X-132790Y-230515D01*
X-132664Y-230579D01*
X-132541Y-230647D01*
X-132419Y-230718D01*
X-132299Y-230792D01*
X-132182Y-230870D01*
X-132067Y-230951D01*
X-131954Y-231035D01*
X-131843Y-231122D01*
X-131735Y-231213D01*
X-131630Y-231306D01*
X-131527Y-231403D01*
X-131427Y-231502D01*
X-131330Y-231604D01*
X-131236Y-231709D01*
X-131145Y-231816D01*
X-131057Y-231926D01*
X-130972Y-232038D01*
X-130890Y-232153D01*
X-130811Y-232270D01*
X-130736Y-232389D01*
X-130664Y-232510D01*
X-130596Y-232633D01*
X-130531Y-232758D01*
X-130469Y-232885D01*
X-130412Y-233014D01*
X-130357Y-233144D01*
X-130307Y-233275D01*
X-130260Y-233408D01*
X-130217Y-233542D01*
X-130178Y-233678D01*
X-130143Y-233814D01*
X-130111Y-233951D01*
X-130084Y-234089D01*
X-130060Y-234228D01*
X-130040Y-234368D01*
X-130024Y-234508D01*
X-130012Y-234648D01*
X-130004Y-234789D01*
X-130000Y-234930D01*
X-130000Y-235070D01*
X-130004Y-235211D01*
X-130012Y-235352D01*
X-130024Y-235492D01*
X-130040Y-235632D01*
X-130060Y-235772D01*
X-130084Y-235911D01*
X-130111Y-236049D01*
X-130143Y-236186D01*
X-130178Y-236322D01*
X-130217Y-236458D01*
X-130260Y-236592D01*
X-130307Y-236725D01*
X-130357Y-236856D01*
X-130412Y-236986D01*
X-130469Y-237115D01*
X-130531Y-237242D01*
X-130596Y-237367D01*
X-130664Y-237490D01*
X-130736Y-237611D01*
X-130811Y-237730D01*
X-130890Y-237847D01*
X-130972Y-237962D01*
X-131057Y-238074D01*
X-131145Y-238184D01*
X-131236Y-238291D01*
X-131330Y-238396D01*
X-131427Y-238498D01*
X-131527Y-238597D01*
X-131630Y-238694D01*
X-131735Y-238787D01*
X-131843Y-238878D01*
X-131954Y-238965D01*
X-132067Y-239049D01*
X-132182Y-239130D01*
X-132299Y-239208D01*
X-132419Y-239282D01*
X-132541Y-239353D01*
X-132664Y-239421D01*
X-132790Y-239485D01*
X-132917Y-239545D01*
X-133046Y-239602D01*
X-133176Y-239656D01*
X-133308Y-239705D01*
X-133442Y-239751D01*
X-133576Y-239793D01*
X-133712Y-239831D01*
X-133848Y-239866D01*
X-133986Y-239896D01*
X-134124Y-239923D01*
X-134263Y-239945D01*
X-134403Y-239964D01*
X-134543Y-239979D01*
X-134683Y-239990D01*
X-134824Y-239997D01*
X-134965Y-240000D01*
X-135106Y-239999D01*
X-135246Y-239994D01*
X-135387Y-239985D01*
X-135527Y-239972D01*
X-135667Y-239955D01*
X-135807Y-239935D01*
X-135945Y-239910D01*
X-136083Y-239881D01*
X-136220Y-239849D01*
X-136356Y-239813D01*
X-136491Y-239772D01*
X-136625Y-239728D01*
X-136758Y-239681D01*
X-136889Y-239629D01*
X-137019Y-239574D01*
X-137147Y-239516D01*
X-137273Y-239453D01*
X-137398Y-239388D01*
X-137520Y-239318D01*
X-137641Y-239246D01*
X-137760Y-239170D01*
X-137876Y-239090D01*
X-137990Y-239007D01*
X-138102Y-238922D01*
X-138211Y-238833D01*
X-138318Y-238741D01*
X-138422Y-238646D01*
X-138523Y-238548D01*
X-138622Y-238447D01*
X-138717Y-238344D01*
X-138810Y-238238D01*
X-138900Y-238129D01*
X-138986Y-238018D01*
X-139070Y-237905D01*
X-139150Y-237789D01*
X-139227Y-237671D01*
X-139300Y-237551D01*
X-139371Y-237428D01*
X-139437Y-237304D01*
X-139500Y-237178D01*
X-139560Y-237051D01*
X-139616Y-236922D01*
X-139668Y-236791D01*
X-139717Y-236659D01*
X-139762Y-236525D01*
X-139803Y-236390D01*
X-139840Y-236254D01*
X-139874Y-236118D01*
X-139903Y-235980D01*
X-139929Y-235841D01*
X-139950Y-235702D01*
X-139968Y-235562D01*
X-139982Y-235422D01*
X-139992Y-235282D01*
X-139998Y-235141D01*
X-140000Y-235000D01*
D25*
X-135000Y-235000D03*
D22*
X34500Y223000D03*
X95500Y223000D03*
D16*
X-90000Y238500D03*
X-100000Y238500D03*
X-90000Y227500D03*
X-100000Y227500D03*
D26*
X-10000Y217000D03*
X-20000Y217000D03*
X-30000Y217000D03*
X-40000Y217000D03*
X-50000Y217000D03*
X-60000Y217000D03*
D27*
X3000Y255250D03*
X-73000Y255250D03*
D20*
X-265000Y-10000D03*
X-265000Y10000D03*
D28*
X-261278Y25278D02*
X-261278Y47722D01*
X-261278Y25278D02*
X-268722Y25278D01*
X-268722Y47722D01*
X-261278Y47722D01*
X-261278Y32939D02*
X-268722Y32939D01*
X-268722Y40600D02*
X-261278Y40600D01*
X-261278Y-25278D02*
X-261278Y-47722D01*
X-268722Y-47722D01*
X-268722Y-25278D01*
X-261278Y-25278D01*
X-261278Y-40061D02*
X-268722Y-40061D01*
X-268722Y-32400D02*
X-261278Y-32400D01*
D29*
X-67500Y-158000D03*
X-67500Y-189000D03*
D30*
X-17250Y174250D03*
X-17250Y159750D03*
M02*
